<?xml version="1.0" encoding="utf-8"?>
<!-- Generator: Adobe Illustrator 16.0.0, SVG Export Plug-In . SVG Version: 6.00 Build 0)  -->
<!DOCTYPE svg PUBLIC "-//W3C//DTD SVG 1.1//EN" "http://www.w3.org/Graphics/SVG/1.1/DTD/svg11.dtd">
<svg version="1.1" id="Layer_1" xmlns="http://www.w3.org/2000/svg" xmlns:xlink="http://www.w3.org/1999/xlink" x="0px" y="0px"
	 width="127.983px" height="128px" viewBox="0 0 127.983 128" enable-background="new 0 0 127.983 128" xml:space="preserve">
<g>
	<path fill="#515254" d="M4,128c-0.611,0-1.224-0.137-1.79-0.421C0.855,126.903,0,125.518,0,124.001V34.005
		c0-1.26,0.593-2.443,1.599-3.2L41.591,0.801c1.421-1.064,3.373-1.066,4.8-0.002l37.603,28.193l37.591-28.191
		c1.214-0.912,2.831-1.057,4.189-0.377c1.355,0.675,2.208,2.061,2.208,3.577v90.008c0,1.26-0.593,2.446-1.597,3.202l-40,29.99
		c-1.419,1.063-3.377,1.064-4.798,0l-37.597-28.2l-37.591,28.2C5.694,127.729,4.849,128,4,128z M43.99,90.001
		c0.843,0,1.689,0.268,2.401,0.8l37.595,28.2l35.998-26.992V12.001L86.394,37.192c-1.422,1.067-3.373,1.069-4.801,0.002L43.99,9.001
		L8,36.005V116l33.591-25.198C42.301,90.27,43.147,90.001,43.99,90.001z"/>
	<path fill="#515254" d="M43.99,98.001c-2.208,0-3.998-1.791-3.998-4v-90c0-2.21,1.791-3.998,3.998-3.998c2.209,0,4,1.788,4,3.998
		v90C47.99,96.211,46.2,98.001,43.99,98.001z"/>
	<path fill="#515254" d="M83.991,128c-2.21,0-4-1.788-4-3.998V33.993c0-2.21,1.79-4,4-4c2.208,0,3.998,1.791,3.998,4v90.008
		C87.989,126.211,86.198,128,83.991,128z"/>
</g>
</svg>
