<?xml version="1.0" encoding="utf-8"?>
<!-- Generator: Adobe Illustrator 16.0.0, SVG Export Plug-In . SVG Version: 6.00 Build 0)  -->
<!DOCTYPE svg PUBLIC "-//W3C//DTD SVG 1.1//EN" "http://www.w3.org/Graphics/SVG/1.1/DTD/svg11.dtd">
<svg version="1.1" id="Layer_1" xmlns="http://www.w3.org/2000/svg" xmlns:xlink="http://www.w3.org/1999/xlink" x="0px" y="0px"
	 width="127.982px" height="128px" viewBox="0 0 127.982 128" enable-background="new 0 0 127.982 128" xml:space="preserve">
<g>
	<path fill="#FAA526" d="M4,128c-0.609,0-1.223-0.138-1.789-0.421C0.855,126.9,0,125.516,0,124V34.005
		c0-1.259,0.592-2.443,1.6-3.199L41.59,0.803c1.422-1.066,3.375-1.068,4.8-0.002l37.602,28.193l37.591-28.191
		c1.214-0.912,2.832-1.059,4.188-0.379c1.355,0.678,2.211,2.062,2.211,3.578v90.007c0,1.26-0.594,2.445-1.6,3.201l-39.998,29.992
		c-1.422,1.062-3.378,1.064-4.8-0.002L43.99,99L6.399,127.199C5.695,127.729,4.849,128,4,128z M43.99,90.001
		c0.843,0,1.689,0.268,2.4,0.801l37.594,28.199l35.999-26.992V12L86.393,37.192c-1.422,1.066-3.375,1.068-4.8,0.002L43.99,9
		L7.999,36.005V116L41.59,90.802C42.301,90.269,43.146,90.001,43.99,90.001z"/>
	<path fill="#FAA526" d="M43.99,98c-2.209,0-4-1.791-4-4V4.001c0-2.209,1.791-4,4-4c2.208,0,3.999,1.791,3.999,4V94
		C47.989,96.209,46.199,98,43.99,98z"/>
	<path fill="#FAA526" d="M83.988,128c-2.208,0-4-1.791-4-3.999V33.993c0-2.208,1.791-4,4-4c2.209,0,4,1.791,4,4V124
		C87.988,126.209,86.197,128,83.988,128z"/>
</g>
</svg>
