<?xml version="1.0" encoding="utf-8"?>
<!-- Generator: Adobe Illustrator 16.0.0, SVG Export Plug-In . SVG Version: 6.00 Build 0)  -->
<!DOCTYPE svg PUBLIC "-//W3C//DTD SVG 1.1//EN" "http://www.w3.org/Graphics/SVG/1.1/DTD/svg11.dtd">
<svg version="1.1" id="Layer_1" xmlns="http://www.w3.org/2000/svg" xmlns:xlink="http://www.w3.org/1999/xlink" x="0px" y="0px"
	 width="15.998px" height="16px" viewBox="0 0 15.998 16" enable-background="new 0 0 15.998 16" xml:space="preserve">
<g>
	<path fill="#FFFFFF" d="M0.5,16c-0.076,0-0.153-0.018-0.224-0.053C0.107,15.862,0,15.689,0,15.5V4.25c0-0.158,0.074-0.305,0.2-0.4
		l4.999-3.75c0.178-0.134,0.422-0.134,0.6,0l4.7,3.524l4.699-3.523c0.152-0.114,0.354-0.133,0.524-0.048
		c0.169,0.085,0.276,0.258,0.276,0.447v11.251c0,0.157-0.074,0.306-0.2,0.4l-5,3.749c-0.178,0.133-0.422,0.133-0.6,0l-4.699-3.525
		L0.8,15.9C0.712,15.966,0.606,16,0.5,16z M5.499,11.25c0.105,0,0.211,0.033,0.3,0.1l4.699,3.525l4.5-3.374V1.5l-4.199,3.149
		c-0.178,0.133-0.422,0.133-0.6,0l-4.7-3.524L1,4.5v10l4.199-3.15C5.288,11.283,5.394,11.25,5.499,11.25z"/>
	<path fill="#FFFFFF" d="M5.499,12.25c-0.276,0-0.5-0.224-0.5-0.5V0.5c0-0.276,0.224-0.5,0.5-0.5c0.276,0,0.5,0.224,0.5,0.5v11.25
		C5.999,12.026,5.775,12.25,5.499,12.25z"/>
	<path fill="#FFFFFF" d="M10.499,16c-0.276,0-0.5-0.224-0.5-0.5V4.249c0-0.276,0.224-0.5,0.5-0.5c0.276,0,0.5,0.224,0.5,0.5V15.5
		C10.999,15.776,10.775,16,10.499,16z"/>
</g>
</svg>
