<?xml version="1.0" encoding="utf-8"?>
<!-- Generator: Adobe Illustrator 16.0.0, SVG Export Plug-In . SVG Version: 6.00 Build 0)  -->
<!DOCTYPE svg PUBLIC "-//W3C//DTD SVG 1.1//EN" "http://www.w3.org/Graphics/SVG/1.1/DTD/svg11.dtd">
<svg version="1.1" id="Layer_1" xmlns="http://www.w3.org/2000/svg" xmlns:xlink="http://www.w3.org/1999/xlink" x="0px" y="0px"
	 width="15.998px" height="16px" viewBox="0 0 15.998 16" enable-background="new 0 0 15.998 16" xml:space="preserve">
<g>
	<path fill="#515254" d="M0.5,16c-0.077,0-0.153-0.018-0.224-0.053C0.106,15.863,0,15.689,0,15.5V4.25c0-0.158,0.074-0.306,0.2-0.4
		L5.199,0.1c0.178-0.133,0.422-0.133,0.6,0l4.7,3.524L15.198,0.1c0.151-0.114,0.354-0.132,0.523-0.047
		c0.169,0.084,0.276,0.258,0.276,0.447v11.251c0,0.158-0.074,0.306-0.199,0.4l-5,3.749c-0.177,0.133-0.422,0.133-0.6,0l-4.7-3.525
		L0.8,15.9C0.711,15.966,0.606,16,0.5,16z M5.499,11.25c0.105,0,0.211,0.034,0.3,0.1l4.699,3.525l4.5-3.374V1.5l-4.199,3.149
		c-0.178,0.133-0.422,0.133-0.6,0L5.499,1.125L1,4.5V14.5l4.199-3.149C5.288,11.284,5.393,11.25,5.499,11.25z"/>
	<path fill="#515254" d="M5.499,12.25c-0.276,0-0.5-0.224-0.5-0.5V0.5c0-0.276,0.224-0.5,0.5-0.5c0.276,0,0.5,0.224,0.5,0.5v11.25
		C5.999,12.026,5.775,12.25,5.499,12.25z"/>
	<path fill="#515254" d="M10.499,16c-0.276,0-0.5-0.224-0.5-0.5V4.249c0-0.276,0.224-0.5,0.5-0.5s0.5,0.224,0.5,0.5V15.5
		C10.999,15.776,10.774,16,10.499,16z"/>
</g>
</svg>
