<?xml version="1.0" encoding="utf-8"?>
<!-- Generator: Adobe Illustrator 16.0.0, SVG Export Plug-In . SVG Version: 6.00 Build 0)  -->
<!DOCTYPE svg PUBLIC "-//W3C//DTD SVG 1.1//EN" "http://www.w3.org/Graphics/SVG/1.1/DTD/svg11.dtd">
<svg version="1.1" id="Layer_1" xmlns="http://www.w3.org/2000/svg" xmlns:xlink="http://www.w3.org/1999/xlink" x="0px" y="0px"
	 width="31.996px" height="32px" viewBox="0 0 31.996 32" enable-background="new 0 0 31.996 32" xml:space="preserve">
<g>
	<path fill="#FFFFFF" d="M1,32c-0.152,0-0.306-0.035-0.447-0.105C0.214,31.725,0,31.379,0,31V8.501c0-0.315,0.148-0.611,0.4-0.8
		l9.998-7.5c0.355-0.267,0.844-0.267,1.2,0l9.401,7.048l9.397-7.048c0.304-0.228,0.708-0.265,1.047-0.095
		C31.782,0.275,31.996,0.621,31.996,1v22.502c0,0.315-0.148,0.611-0.4,0.8l-10,7.498c-0.355,0.266-0.845,0.266-1.2,0l-9.399-7.05
		L1.6,31.8C1.424,31.932,1.212,32,1,32z M10.998,22.5c0.211,0,0.422,0.067,0.6,0.2l9.399,7.05l9-6.748V3l-8.397,6.298
		c-0.355,0.267-0.844,0.267-1.2,0L10.998,2.25L2,9.001V29l8.397-6.3C10.575,22.567,10.787,22.5,10.998,22.5z"/>
	<path fill="#FFFFFF" d="M10.998,24.5c-0.552,0-1-0.448-1-1V1c0-0.552,0.447-1,1-1s1,0.447,1,1v22.5
		C11.998,24.052,11.55,24.5,10.998,24.5z"/>
	<path fill="#FFFFFF" d="M20.998,32c-0.552,0-1-0.448-1-1V8.498c0-0.552,0.448-1,1-1s1,0.448,1,1V31
		C21.997,31.552,21.55,32,20.998,32z"/>
</g>
</svg>
