<?xml version="1.0" encoding="utf-8"?>
<!-- Generator: Adobe Illustrator 16.0.0, SVG Export Plug-In . SVG Version: 6.00 Build 0)  -->
<!DOCTYPE svg PUBLIC "-//W3C//DTD SVG 1.1//EN" "http://www.w3.org/Graphics/SVG/1.1/DTD/svg11.dtd">
<svg version="1.1" id="Layer_1" xmlns="http://www.w3.org/2000/svg" xmlns:xlink="http://www.w3.org/1999/xlink" x="0px" y="0px"
	 width="16px" height="16px" viewBox="0 0 16 16" enable-background="new 0 0 16 16" xml:space="preserve">
<g>
	<path fill="#515254" d="M13.278,16H2.723C1.222,16,0,14.778,0,13.277V2.722C0,1.221,1.222,0,2.723,0h10.556
		C14.779,0,16,1.221,16,2.722v10.555C16,14.778,14.779,16,13.278,16z M2.723,1C1.773,1,1,1.772,1,2.722v10.555
		C1,14.227,1.773,15,2.723,15h10.556C14.228,15,15,14.227,15,13.277V2.722C15,1.772,14.228,1,13.278,1H2.723z"/>
	<rect x="0.256" y="3.751" fill="#515254" width="15.311" height="1"/>
	<rect x="5.139" y="6.166" fill="#515254" width="2.467" height="1.834"/>
	<rect x="8.394" y="6.166" fill="#515254" width="2.468" height="1.834"/>
	<rect x="11.648" y="6.166" fill="#515254" width="2.467" height="1.834"/>
	<rect x="1.885" y="8.666" fill="#515254" width="2.468" height="1.834"/>
	<rect x="5.139" y="8.666" fill="#515254" width="2.467" height="1.834"/>
	<rect x="8.394" y="8.666" fill="#515254" width="2.468" height="1.834"/>
	<rect x="11.648" y="8.666" fill="#515254" width="2.467" height="1.834"/>
	<rect x="1.885" y="11.166" fill="#515254" width="2.468" height="1.834"/>
	<rect x="5.139" y="11.166" fill="#515254" width="2.467" height="1.834"/>
	<rect x="8.394" y="11.166" fill="#515254" width="2.468" height="1.834"/>
	<rect x="11.648" y="11.166" fill="#515254" width="2.467" height="1.834"/>
	<path fill="#5C5C5C" d="M15.412,2.722c0-1.222-1-2.222-2.222-2.222H2.635c-1.223,0-2.223,1-2.223,2.222V4.5h15V2.722z"/>
	<path fill="#515254" d="M16,5H0V2.722C0,1.221,1.222,0,2.723,0h10.556C14.779,0,16,1.221,16,2.722V5z M1,4h14V2.722
		C15,1.772,14.228,1,13.278,1H2.723C1.772,1,1,1.772,1,2.722V4z"/>
</g>
</svg>
