<?xml version="1.0" standalone="no"?>
<!DOCTYPE svg PUBLIC "-//W3C//DTD SVG 20010904//EN"
 "http://www.w3.org/TR/2001/REC-SVG-20010904/DTD/svg10.dtd">
<svg version="1.0" xmlns="http://www.w3.org/2000/svg"
 width="128.000000pt" height="128.000000pt" viewBox="0 0 128.000000 128.000000"
 preserveAspectRatio="xMidYMid meet">
<metadata>
Created by potrace 1.13, written by Peter Selinger 2001-2015
</metadata>
<g transform="translate(0.000000,128.000000) scale(0.100000,-0.100000)"
fill="#000000" stroke="none">
<path d="M130 1253 c-36 -19 -65 -43 -85 -71 l-30 -44 0 -497 0 -497 27 -42
c15 -22 49 -54 75 -69 l48 -28 444 -3 c503 -3 530 -1 594 56 78 71 77 58 77
583 l0 467 -28 53 c-20 39 -41 62 -77 84 l-48 30 -471 3 -471 3 -55 -28z
m1068 -718 c2 -316 1 -342 -17 -375 -10 -19 -34 -44 -52 -55 -33 -19 -52 -20
-484 -20 -500 0 -493 -1 -535 68 -19 30 -20 52 -20 380 l0 347 553 -2 552 -3
3 -340z"/>
<path d="M417 783 c-4 -3 -7 -37 -7 -75 l0 -68 100 0 100 0 0 75 0 75 -93 0
c-52 0 -97 -3 -100 -7z"/>
<path d="M677 783 c-4 -3 -7 -37 -7 -75 l0 -68 100 0 100 0 0 75 0 75 -93 0
c-52 0 -97 -3 -100 -7z"/>
<path d="M937 783 c-4 -3 -7 -37 -7 -75 l0 -68 100 0 100 0 0 75 0 75 -93 0
c-52 0 -97 -3 -100 -7z"/>
<path d="M160 515 l0 -76 98 3 97 3 0 70 0 70 -97 3 -98 3 0 -76z"/>
<path d="M417 583 c-4 -3 -7 -37 -7 -75 l0 -68 100 0 100 0 0 75 0 75 -93 0
c-52 0 -97 -3 -100 -7z"/>
<path d="M677 583 c-4 -3 -7 -37 -7 -75 l0 -68 100 0 100 0 0 75 0 75 -93 0
c-52 0 -97 -3 -100 -7z"/>
<path d="M930 515 l0 -75 100 0 100 0 0 75 0 75 -100 0 -100 0 0 -75z"/>
<path d="M160 315 l0 -76 98 3 97 3 0 70 0 70 -97 3 -98 3 0 -76z"/>
<path d="M414 376 c-3 -7 -4 -40 -2 -72 l3 -59 98 -3 97 -3 0 76 0 75 -95 0
c-72 0 -97 -3 -101 -14z"/>
<path d="M670 315 l0 -75 100 0 100 0 0 75 0 75 -100 0 -100 0 0 -75z"/>
<path d="M930 315 l0 -75 100 0 100 0 0 75 0 75 -100 0 -100 0 0 -75z"/>
</g>
</svg>
