<?xml version="1.0" encoding="utf-8"?>
<!-- Generator: Adobe Illustrator 16.0.0, SVG Export Plug-In . SVG Version: 6.00 Build 0)  -->
<!DOCTYPE svg PUBLIC "-//W3C//DTD SVG 1.1//EN" "http://www.w3.org/Graphics/SVG/1.1/DTD/svg11.dtd">
<svg version="1.1" id="Layer_1" xmlns="http://www.w3.org/2000/svg" xmlns:xlink="http://www.w3.org/1999/xlink" x="0px" y="0px"
	 width="32px" height="32px" viewBox="0 0 32 32" enable-background="new 0 0 32 32" xml:space="preserve">
<g>
	<path fill="#515254" d="M26.556,32H5.446C2.443,32,0,29.557,0,26.554V5.444C0,2.442,2.443,0,5.446,0h21.11
		C29.558,0,32,2.442,32,5.444v21.11C32,29.557,29.558,32,26.556,32z M5.446,2C3.546,2,2,3.545,2,5.444v21.11
		C2,28.454,3.546,30,5.446,30h21.11C28.455,30,30,28.454,30,26.554V5.444C30,3.545,28.455,2,26.556,2H5.446z"/>
	<rect x="0.513" y="7.502" fill="#515254" width="30.622" height="2"/>
	<rect x="10.278" y="12.332" fill="#515254" width="4.935" height="3.668"/>
	<rect x="16.787" y="12.332" fill="#515254" width="4.935" height="3.668"/>
	<rect x="23.296" y="12.332" fill="#515254" width="4.935" height="3.668"/>
	<rect x="3.77" y="17.332" fill="#515254" width="4.935" height="3.668"/>
	<rect x="10.278" y="17.332" fill="#515254" width="4.935" height="3.668"/>
	<rect x="16.787" y="17.332" fill="#515254" width="4.935" height="3.668"/>
	<rect x="23.296" y="17.332" fill="#515254" width="4.935" height="3.668"/>
	<rect x="3.77" y="22.332" fill="#515254" width="4.935" height="3.668"/>
	<rect x="10.278" y="22.332" fill="#515254" width="4.935" height="3.668"/>
	<rect x="16.787" y="22.332" fill="#515254" width="4.935" height="3.668"/>
	<rect x="23.296" y="22.332" fill="#515254" width="4.935" height="3.668"/>
	<path fill="#5C5C5C" d="M30.824,5.444C30.824,3,28.824,1,26.38,1H5.269C2.825,1,0.824,3,0.824,5.444V9h30V5.444z"/>
	<path fill="#515254" d="M32,10H0V5.444C0,2.442,2.443,0,5.445,0h21.111C29.558,0,32,2.442,32,5.444V10z M2,8h28V5.444
		C30,3.545,28.455,2,26.556,2H5.445C3.545,2,2,3.545,2,5.444V8z"/>
</g>
</svg>
