<?xml version="1.0" standalone="no"?>
<!DOCTYPE svg PUBLIC "-//W3C//DTD SVG 20010904//EN"
 "http://www.w3.org/TR/2001/REC-SVG-20010904/DTD/svg10.dtd">
<svg version="1.0" xmlns="http://www.w3.org/2000/svg"
 width="32.000000pt" height="32.000000pt" viewBox="0 0 32.000000 32.000000"
 preserveAspectRatio="xMidYMid meet">
<metadata>
Created by potrace 1.13, written by Peter Selinger 2001-2015
</metadata>
<g transform="translate(0.000000,32.000000) scale(0.100000,-0.100000)"
fill="#000000" stroke="none">
<path d="M16 298 c-12 -17 -16 -50 -16 -140 0 -160 -2 -158 163 -158 162 0
157 -5 157 162 0 163 5 158 -163 158 -119 0 -127 -1 -141 -22z m284 -166 c0
-55 -4 -92 -12 -100 -17 -17 -239 -17 -256 0 -8 8 -12 45 -12 100 l0 88 140 0
140 0 0 -88z"/>
</g>
</svg>
