<?xml version="1.0" encoding="utf-8"?>
<!-- Generator: Adobe Illustrator 16.0.0, SVG Export Plug-In . SVG Version: 6.00 Build 0)  -->
<!DOCTYPE svg PUBLIC "-//W3C//DTD SVG 1.1//EN" "http://www.w3.org/Graphics/SVG/1.1/DTD/svg11.dtd">
<svg version="1.1" id="Layer_1" xmlns="http://www.w3.org/2000/svg" xmlns:xlink="http://www.w3.org/1999/xlink" x="0px" y="0px"
	 width="128px" height="128px" viewBox="0 0 128 128" enable-background="new 0 0 128 128" xml:space="preserve">
<g>
	<path fill="#515254" d="M106.225,128H21.783C9.772,128,0,118.229,0,106.217V21.777C0,9.77,9.772,0,21.783,0h84.442
		C118.232,0,128,9.77,128,21.777v84.439C128,118.229,118.232,128,106.225,128z M21.783,8C14.184,8,8,14.18,8,21.777v84.439
		C8,113.816,14.184,120,21.783,120h84.442c7.596,0,13.775-6.184,13.775-13.783V21.777C120,14.18,113.821,8,106.225,8H21.783z"/>
	<rect x="2.051" y="30.008" fill="#515254" width="122.488" height="8"/>
	<rect x="41.113" y="49.328" fill="#515254" width="19.739" height="14.672"/>
	<rect x="67.148" y="49.328" fill="#515254" width="19.741" height="14.672"/>
	<rect x="93.184" y="49.328" fill="#515254" width="19.741" height="14.672"/>
	<rect x="15.08" y="69.328" fill="#515254" width="19.741" height="14.672"/>
	<rect x="41.113" y="69.328" fill="#515254" width="19.739" height="14.672"/>
	<rect x="67.148" y="69.328" fill="#515254" width="19.741" height="14.672"/>
	<rect x="93.184" y="69.328" fill="#515254" width="19.741" height="14.672"/>
	<rect x="15.08" y="89.328" fill="#515254" width="19.741" height="14.672"/>
	<rect x="41.113" y="89.328" fill="#515254" width="19.739" height="14.672"/>
	<rect x="67.148" y="89.328" fill="#515254" width="19.741" height="14.672"/>
	<rect x="93.184" y="89.328" fill="#515254" width="19.741" height="14.672"/>
	<path fill="#5C5C5C" d="M123.295,21.777c0-9.775-8-17.775-17.775-17.775H21.076c-9.777,0-17.781,8-17.781,17.775v14.225h120V21.777
		z"/>
	<path fill="#515254" d="M128,40.002H0V21.777C0,9.77,9.772,0.002,21.781,0.002h84.444C118.232,0.002,128,9.77,128,21.777V40.002z
		 M8,32.002h112V21.777c0-7.596-6.179-13.775-13.775-13.775H21.781C14.182,8.002,8,14.182,8,21.777V32.002z"/>
</g>
</svg>
