<?xml version="1.0" encoding="utf-8"?>
<!-- Generator: Adobe Illustrator 16.0.0, SVG Export Plug-In . SVG Version: 6.00 Build 0)  -->
<!DOCTYPE svg PUBLIC "-//W3C//DTD SVG 1.1//EN" "http://www.w3.org/Graphics/SVG/1.1/DTD/svg11.dtd">
<svg version="1.1" id="Layer_1" xmlns="http://www.w3.org/2000/svg" xmlns:xlink="http://www.w3.org/1999/xlink" x="0px" y="0px"
	 width="105.804px" height="128px" viewBox="0 0 105.804 128" enable-background="new 0 0 105.804 128" xml:space="preserve">
<g>
	<path fill="#FAA525" d="M65.778,95.395H7.419C3.329,95.395,0,92.067,0,87.979V7.421C0,3.331,3.329,0,7.419,0h40.217
		c1.825,0,3.306,1.482,3.306,3.308v18.087c0,0.451,0.349,0.803,0.796,0.805l18.161,0.061c1.823,0.007,3.296,1.485,3.296,3.306
		v62.413C73.196,92.067,69.868,95.395,65.778,95.395z M7.419,6.613c-0.444,0-0.806,0.362-0.806,0.808v80.558
		c0,0.444,0.362,0.804,0.806,0.804h58.358c0.444,0,0.804-0.36,0.804-0.804V28.862l-14.863-0.049
		c-4.074-0.012-7.388-3.34-7.388-7.418V6.613H7.419z"/>
	<path fill="#FAA525" d="M82.084,111.694H23.72c-1.827,0-3.308-1.48-3.308-3.306s1.48-3.306,3.308-3.306h58.364
		c0.444,0,0.804-0.358,0.804-0.801V41.868c0-1.825,1.48-3.306,3.308-3.306c1.826,0,3.306,1.48,3.306,3.306v62.413
		C89.501,108.368,86.174,111.694,82.084,111.694z"/>
	<path fill="#FAA525" d="M98.388,128H40.023c-1.826,0-3.308-1.48-3.308-3.306c0-1.826,1.482-3.306,3.308-3.306h58.365
		c0.442,0,0.803-0.36,0.803-0.804V58.171c0-1.826,1.482-3.306,3.307-3.306c1.826,0,3.306,1.48,3.306,3.306v62.413
		C105.804,124.673,102.477,128,98.388,128z"/>
</g>
</svg>
