<?xml version="1.0" encoding="utf-8"?>
<!-- Generator: Adobe Illustrator 16.0.0, SVG Export Plug-In . SVG Version: 6.00 Build 0)  -->
<!DOCTYPE svg PUBLIC "-//W3C//DTD SVG 1.1//EN" "http://www.w3.org/Graphics/SVG/1.1/DTD/svg11.dtd">
<svg version="1.1" id="Layer_1" xmlns="http://www.w3.org/2000/svg" xmlns:xlink="http://www.w3.org/1999/xlink" x="0px" y="0px"
	 width="105.804px" height="128px" viewBox="0 0 105.804 128" enable-background="new 0 0 105.804 128" xml:space="preserve">
<g>
	<path fill="#515254" d="M65.778,95.395H7.42c-4.091,0-7.42-3.328-7.42-7.417V7.42C0,3.329,3.329,0,7.42,0h40.216
		c1.826,0,3.306,1.48,3.306,3.307v18.087c0,0.45,0.349,0.804,0.796,0.806l18.161,0.06c1.821,0.007,3.295,1.485,3.295,3.307v62.412
		C73.195,92.067,69.868,95.395,65.778,95.395z M7.42,6.613c-0.446,0-0.808,0.361-0.808,0.807v80.557
		c0,0.444,0.362,0.804,0.808,0.804h58.358c0.444,0,0.804-0.36,0.804-0.804V28.86l-14.865-0.048c-4.073-0.011-7.388-3.34-7.388-7.418
		V6.613H7.42z"/>
	<path fill="#515254" d="M82.084,111.694H23.716c-1.826,0-3.306-1.48-3.306-3.307s1.48-3.307,3.306-3.307h58.368
		c0.444,0,0.804-0.358,0.804-0.801V41.868c0-1.826,1.48-3.306,3.306-3.306c1.826,0,3.307,1.48,3.307,3.306v62.412
		C89.501,108.368,86.174,111.694,82.084,111.694z"/>
	<path fill="#515254" d="M98.387,128H40.023c-1.826,0-3.307-1.48-3.307-3.306c0-1.826,1.48-3.307,3.307-3.307h58.364
		c0.444,0,0.804-0.36,0.804-0.804V58.171c0-1.826,1.48-3.307,3.306-3.307c1.826,0,3.307,1.48,3.307,3.307v62.412
		C105.804,124.673,102.477,128,98.387,128z"/>
</g>
</svg>
