<?xml version="1.0" encoding="utf-8"?>
<!-- Generator: Adobe Illustrator 16.0.0, SVG Export Plug-In . SVG Version: 6.00 Build 0)  -->
<!DOCTYPE svg PUBLIC "-//W3C//DTD SVG 1.1//EN" "http://www.w3.org/Graphics/SVG/1.1/DTD/svg11.dtd">
<svg version="1.1" id="Layer_1" xmlns="http://www.w3.org/2000/svg" xmlns:xlink="http://www.w3.org/1999/xlink" x="0px" y="0px"
	 width="13.225px" height="16px" viewBox="0 0 13.225 16" enable-background="new 0 0 13.225 16" xml:space="preserve">
<g>
	<path fill="#FFFFFF" d="M8.222,11.924H0.927C0.416,11.924,0,11.508,0,10.998V0.927C0,0.417,0.416,0,0.927,0h5.027
		c0.228,0,0.413,0.185,0.413,0.414v2.261c0,0.056,0.043,0.101,0.1,0.101l2.27,0.008c0.228,0,0.412,0.186,0.412,0.413v7.802
		C9.149,11.508,8.733,11.924,8.222,11.924z M0.927,0.827c-0.056,0-0.101,0.045-0.101,0.101v10.07c0,0.055,0.045,0.1,0.101,0.1h7.295
		c0.055,0,0.101-0.045,0.101-0.1v-7.39L6.464,3.602C5.956,3.6,5.541,3.184,5.541,2.674V0.827H0.927z"/>
	<path fill="#FFFFFF" d="M10.26,13.961H2.965c-0.229,0-0.414-0.185-0.414-0.413s0.185-0.413,0.414-0.413h7.295
		c0.056,0,0.101-0.045,0.101-0.101V5.234c0-0.229,0.185-0.414,0.413-0.414c0.229,0,0.414,0.185,0.414,0.414v7.801
		C11.188,13.546,10.771,13.961,10.26,13.961z"/>
	<path fill="#FFFFFF" d="M12.298,16H5.002c-0.228,0-0.413-0.185-0.413-0.414c0-0.228,0.185-0.413,0.413-0.413h7.296
		c0.055,0,0.101-0.045,0.101-0.101V7.271c0-0.228,0.185-0.414,0.413-0.414s0.413,0.186,0.413,0.414v7.801
		C13.225,15.584,12.81,16,12.298,16z"/>
</g>
</svg>
