<?xml version="1.0" encoding="utf-8"?>
<!-- Generator: Adobe Illustrator 16.0.0, SVG Export Plug-In . SVG Version: 6.00 Build 0)  -->
<!DOCTYPE svg PUBLIC "-//W3C//DTD SVG 1.1//EN" "http://www.w3.org/Graphics/SVG/1.1/DTD/svg11.dtd">
<svg version="1.1" id="Layer_1" xmlns="http://www.w3.org/2000/svg" xmlns:xlink="http://www.w3.org/1999/xlink" x="0px" y="0px"
	 width="26.451px" height="32px" viewBox="0 0 26.451 32" enable-background="new 0 0 26.451 32" xml:space="preserve">
<g>
	<path fill="#FFFFFF" d="M16.444,23.849H1.855C0.832,23.849,0,23.017,0,21.995V1.855C0,0.833,0.832,0,1.855,0h10.054
		c0.456,0,0.826,0.37,0.826,0.827v4.521c0,0.113,0.087,0.201,0.199,0.202l4.54,0.015c0.456,0.001,0.824,0.371,0.824,0.826v15.604
		C18.299,23.017,17.467,23.849,16.444,23.849z M1.855,1.653c-0.111,0-0.202,0.09-0.202,0.202v20.14c0,0.111,0.091,0.201,0.202,0.201
		h14.589c0.111,0,0.201-0.09,0.201-0.201V7.215l-3.716-0.012c-1.018-0.003-1.847-0.835-1.847-1.855V1.653H1.855z"/>
	<path fill="#FFFFFF" d="M20.521,27.923H5.93c-0.457,0-0.827-0.37-0.827-0.826c0-0.457,0.37-0.827,0.827-0.827h14.591
		c0.111,0,0.201-0.089,0.201-0.2V10.467c0-0.457,0.37-0.827,0.826-0.827c0.457,0,0.827,0.37,0.827,0.827V26.07
		C22.375,27.092,21.543,27.923,20.521,27.923z"/>
	<path fill="#FFFFFF" d="M24.597,32H10.005c-0.457,0-0.827-0.37-0.827-0.827s0.37-0.827,0.827-0.827h14.591
		c0.111,0,0.201-0.09,0.201-0.201V14.543c0-0.457,0.37-0.827,0.827-0.827c0.456,0,0.826,0.37,0.826,0.827v15.603
		C26.451,31.168,25.619,32,24.597,32z"/>
</g>
</svg>
