<?xml version="1.0" encoding="utf-8"?>
<!-- Generator: Adobe Illustrator 16.0.0, SVG Export Plug-In . SVG Version: 6.00 Build 0)  -->
<!DOCTYPE svg PUBLIC "-//W3C//DTD SVG 1.1//EN" "http://www.w3.org/Graphics/SVG/1.1/DTD/svg11.dtd">
<svg version="1.1" id="Layer_1" xmlns="http://www.w3.org/2000/svg" xmlns:xlink="http://www.w3.org/1999/xlink" x="0px" y="0px"
	 width="28.498px" height="32px" viewBox="0 0 28.498 32" enable-background="new 0 0 28.498 32" xml:space="preserve">
<g>
	<path fill="#FAA526" d="M24.292,32H4.208c-1.103,0-2-0.897-2-2V14.334c0-1.103,0.897-2,2-2h20.084c1.103,0,2,0.897,2,2V30
		C26.292,31.103,25.395,32,24.292,32z M24.292,30v1V30C24.292,30,24.292,30,24.292,30z M4.208,14.334V30h20.083l0.001-15.666H4.208z
		"/>
	<path fill="#FAA526" d="M1,16.985c-0.226,0-0.453-0.076-0.64-0.231c-0.424-0.354-0.481-0.984-0.128-1.409L12.225,0.949
		C12.728,0.346,13.466,0,14.25,0s1.522,0.346,2.025,0.948l11.991,14.394c0.353,0.424,0.296,1.055-0.128,1.409
		c-0.425,0.352-1.055,0.296-1.409-0.128L14.739,2.229C14.573,2.03,14.362,2,14.25,2s-0.323,0.03-0.489,0.229L1.769,16.625
		C1.57,16.862,1.286,16.985,1,16.985z"/>
</g>
</svg>
