<?xml version="1.0" encoding="utf-8"?>
<!-- Generator: Adobe Illustrator 16.0.0, SVG Export Plug-In . SVG Version: 6.00 Build 0)  -->
<!DOCTYPE svg PUBLIC "-//W3C//DTD SVG 1.1//EN" "http://www.w3.org/Graphics/SVG/1.1/DTD/svg11.dtd">
<svg version="1.1" id="Layer_1" xmlns="http://www.w3.org/2000/svg" xmlns:xlink="http://www.w3.org/1999/xlink" x="0px" y="0px"
	 width="14.249px" height="16px" viewBox="0 0 14.249 16" enable-background="new 0 0 14.249 16" xml:space="preserve">
<g>
	<path fill="#FFFFFF" d="M12.146,16H2.104c-0.552,0-1-0.448-1-1V7.167c0-0.552,0.448-1,1-1h10.042c0.552,0,1,0.448,1,1V15
		C13.146,15.552,12.698,16,12.146,16z M12.146,15v0.5V15C12.146,15,12.146,15,12.146,15z M2.104,7.167V15h10.041l0.001-7.833H2.104z
		"/>
	<path fill="#FFFFFF" d="M0.5,8.492c-0.112,0-0.226-0.038-0.319-0.116C-0.032,8.2-0.061,7.885,0.116,7.672l5.997-7.198
		C6.364,0.173,6.733,0,7.125,0c0.392,0,0.761,0.173,1.013,0.474l5.995,7.197c0.177,0.212,0.148,0.527-0.064,0.704
		c-0.212,0.176-0.527,0.147-0.704-0.064L7.37,1.114C7.287,1.015,7.181,1,7.125,1S6.964,1.015,6.88,1.115L0.884,8.313
		C0.785,8.431,0.643,8.492,0.5,8.492z"/>
</g>
</svg>
