<?xml version="1.0" encoding="utf-8"?>
<!-- Generator: Adobe Illustrator 16.0.0, SVG Export Plug-In . SVG Version: 6.00 Build 0)  -->
<!DOCTYPE svg PUBLIC "-//W3C//DTD SVG 1.1//EN" "http://www.w3.org/Graphics/SVG/1.1/DTD/svg11.dtd">
<svg version="1.1" id="Layer_1" xmlns="http://www.w3.org/2000/svg" xmlns:xlink="http://www.w3.org/1999/xlink" x="0px" y="0px"
	 width="12.2px" height="16px" viewBox="0 0 12.2 16" enable-background="new 0 0 12.2 16" xml:space="preserve">
<g>
	<path fill="#507BBE" d="M11.095,16h-9.99C0.496,16,0,15.504,0,14.895V1.105C0,0.496,0.496,0,1.105,0h6.884
		c0.222,0,0.402,0.18,0.402,0.402v3.096c0,0.166,0.135,0.302,0.3,0.303L11.8,3.81c0.222,0,0.4,0.18,0.4,0.402v10.684
		C12.2,15.504,11.705,16,11.095,16z M1.105,0.803c-0.167,0-0.302,0.136-0.302,0.302v13.79c0,0.166,0.135,0.302,0.302,0.302h9.99
		c0.167,0,0.302-0.136,0.302-0.302V4.612L8.689,4.603C8.082,4.602,7.588,4.105,7.588,3.498V0.803H1.105z"/>
	<path fill="#507BBE" d="M9.314,7.198C9.314,7.198,9.314,7.198,9.314,7.198L4.172,7.197c-0.222,0-0.401-0.181-0.401-0.402
		s0.18-0.401,0.401-0.401l0,0l5.143,0.002c0.222,0,0.401,0.18,0.401,0.401S9.536,7.198,9.314,7.198z"/>
	<path fill="#507BBE" d="M9.313,9.134H2.887c-0.222,0-0.401-0.18-0.401-0.401s0.18-0.402,0.401-0.402h6.427
		c0.222,0,0.402,0.18,0.402,0.402S9.535,9.134,9.313,9.134z"/>
	<path fill="#507BBE" d="M9.313,11.071H2.887c-0.222,0-0.402-0.18-0.402-0.402s0.18-0.401,0.402-0.401h6.427
		c0.222,0,0.401,0.18,0.401,0.401S9.535,11.071,9.313,11.071z"/>
	<path fill="#507BBE" d="M9.314,13.008H2.887c-0.222,0-0.402-0.18-0.402-0.402s0.18-0.401,0.402-0.401h6.428
		c0.222,0,0.401,0.18,0.401,0.401S9.536,13.008,9.314,13.008z"/>
	<g>
		<defs>
			<polygon id="SVGID_100_" points="10.132,0.605 4.61,7.174 6.679,8.913 12.2,2.344 12.063,1.397 11.089,0.579 			"/>
		</defs>
		<clipPath id="SVGID_2_">
			<use xlink:href="#SVGID_100_"  overflow="visible"/>
		</clipPath>
		
			<linearGradient id="SVGID_3_" gradientUnits="userSpaceOnUse" x1="983.0747" y1="533.3599" x2="983.4763" y2="533.3599" gradientTransform="matrix(6.6178 5.5629 5.5629 -6.6178 -9465.7793 -1935.4043)">
			<stop  offset="0" style="stop-color:#F58220"/>
			<stop  offset="1" style="stop-color:#FFCB0B"/>
		</linearGradient>
		<polygon clip-path="url(#SVGID_2_)" fill="url(#SVGID_3_)" points="7.753,-3.16 16.306,4.03 9.058,12.651 0.505,5.462 		"/>
	</g>
	<g>
		<defs>
			
				<rect id="SVGID_103_" x="7.975" y="-0.093" transform="matrix(-0.7652 -0.6438 0.6438 -0.7652 12.2917 13.5143)" width="1.271" height="9.218"/>
		</defs>
		<clipPath id="SVGID_5_">
			<use xlink:href="#SVGID_103_"  overflow="visible"/>
		</clipPath>
		
			<linearGradient id="SVGID_6_" gradientUnits="userSpaceOnUse" x1="1173.2695" y1="646.1841" x2="1173.6714" y2="646.1841" gradientTransform="matrix(-13.9237 -0.0122 -0.0122 13.9237 16355.5586 -8978.4883)">
			<stop  offset="0" style="stop-color:#FFCB0B"/>
			<stop  offset="0.8684" style="stop-color:#FFCB0B"/>
			<stop  offset="1" style="stop-color:#FFCB0B"/>
		</linearGradient>
		<polygon clip-path="url(#SVGID_5_)" fill="url(#SVGID_6_)" points="12.063,8.458 5.151,8.453 5.158,0.573 12.069,0.579 		"/>
	</g>
	<g>
		<defs>
			<path id="SVGID_106_" d="M3.517,10.669l1.39-0.771c-0.094-0.169-0.219-0.32-0.367-0.445c-0.161-0.135-0.347-0.237-0.548-0.3
				L3.517,10.669z"/>
		</defs>
		<clipPath id="SVGID_8_">
			<use xlink:href="#SVGID_106_"  overflow="visible"/>
		</clipPath>
		
			<linearGradient id="SVGID_9_" gradientUnits="userSpaceOnUse" x1="1390.1123" y1="971.1519" x2="1390.514" y2="971.1519" gradientTransform="matrix(-2.0352 -1.8386 -1.8386 2.0352 4619.2612 589.6147)">
			<stop  offset="0" style="stop-color:#010101"/>
			<stop  offset="1" style="stop-color:#010101"/>
		</linearGradient>
		<polygon clip-path="url(#SVGID_8_)" fill="url(#SVGID_9_)" points="4.282,11.361 2.762,9.988 4.141,8.461 5.661,9.834 		"/>
	</g>
</g>
</svg>
