<?xml version="1.0" encoding="utf-8"?>
<!-- Generator: Adobe Illustrator 16.0.0, SVG Export Plug-In . SVG Version: 6.00 Build 0)  -->
<!DOCTYPE svg PUBLIC "-//W3C//DTD SVG 1.1//EN" "http://www.w3.org/Graphics/SVG/1.1/DTD/svg11.dtd">
<svg version="1.1" id="Layer_1" xmlns="http://www.w3.org/2000/svg" xmlns:xlink="http://www.w3.org/1999/xlink" x="0px" y="0px"
	 width="24.4px" height="32px" viewBox="0 0 24.4 32" enable-background="new 0 0 24.4 32" xml:space="preserve">
<g>
	<path fill="#5C5C5C" d="M22.19,32H2.211C0.992,32,0,31.009,0,29.79V2.21C0,0.991,0.992,0,2.211,0h13.768
		c0.444,0,0.803,0.36,0.803,0.803v6.191c0,0.333,0.27,0.604,0.601,0.605L23.6,7.619c0.443,0.001,0.801,0.36,0.801,0.803V29.79
		C24.4,31.009,23.409,32,22.19,32z M2.211,1.607c-0.333,0-0.604,0.271-0.604,0.604V29.79c0,0.333,0.271,0.604,0.604,0.604H22.19
		c0.333,0,0.604-0.271,0.604-0.604V9.224l-5.415-0.017c-1.215-0.003-2.203-0.996-2.203-2.212V1.607H2.211z"/>
	<rect x="7.666" y="15.37" fill="#5C5C5C" width="9.069" height="7.165"/>
	<path fill="#5C5C5C" d="M16.735,23.338H7.666c-0.443,0-0.803-0.36-0.803-0.804V15.37c0-0.444,0.36-0.804,0.803-0.804h9.069
		c0.444,0,0.803,0.36,0.803,0.804v7.165C17.538,22.979,17.179,23.338,16.735,23.338z M8.47,21.731h7.462v-5.559H8.47V21.731z"/>
	<path fill="#5C5C5C" d="M14.39,16.174c-0.444,0-0.804-0.36-0.804-0.803c0-1.439-0.73-2.443-1.386-2.443s-1.386,1.003-1.386,2.443
		c0,0.443-0.359,0.803-0.803,0.803s-0.804-0.36-0.804-0.803c0-2.271,1.315-4.05,2.993-4.05c1.678,0,2.993,1.779,2.993,4.05
		C15.193,15.814,14.833,16.174,14.39,16.174z"/>
	<path fill="#FFFFFF" d="M13.872,18.713c0,0.924-0.749,1.672-1.672,1.672s-1.672-0.749-1.672-1.672c0-0.923,0.749-1.671,1.672-1.671
		S13.872,17.791,13.872,18.713"/>
	<path fill="#5C5C5C" d="M12.2,21.189c-1.365,0-2.476-1.11-2.476-2.476c0-1.365,1.111-2.475,2.476-2.475s2.476,1.11,2.476,2.475
		C14.676,20.079,13.565,21.189,12.2,21.189z M12.2,17.845c-0.479,0-0.869,0.39-0.869,0.868c0,0.479,0.39,0.869,0.869,0.869
		s0.869-0.389,0.869-0.869C13.069,18.235,12.679,17.845,12.2,17.845z"/>
</g>
</svg>
