<?xml version="1.0" encoding="utf-8"?>
<!-- Generator: Adobe Illustrator 16.0.0, SVG Export Plug-In . SVG Version: 6.00 Build 0)  -->
<!DOCTYPE svg PUBLIC "-//W3C//DTD SVG 1.1//EN" "http://www.w3.org/Graphics/SVG/1.1/DTD/svg11.dtd">
<svg version="1.1" id="Layer_1" xmlns="http://www.w3.org/2000/svg" xmlns:xlink="http://www.w3.org/1999/xlink" x="0px" y="0px"
	 width="24.4px" height="32px" viewBox="0 0 24.4 32" enable-background="new 0 0 24.4 32" xml:space="preserve">
<g>
	<path fill="#A6CF4A" d="M22.19,32H2.211C0.991,32,0,31.009,0,29.79V2.21C0,0.991,0.991,0,2.211,0h13.768
		c0.444,0,0.803,0.36,0.803,0.803v6.191c0,0.333,0.27,0.604,0.601,0.605L23.6,7.619c0.443,0.001,0.801,0.36,0.801,0.803V29.79
		C24.4,31.009,23.409,32,22.19,32z M2.211,1.607c-0.333,0-0.604,0.271-0.604,0.604V29.79c0,0.333,0.271,0.604,0.604,0.604H22.19
		c0.333,0,0.604-0.271,0.604-0.604V9.224l-5.415-0.017c-1.215-0.003-2.204-0.996-2.204-2.212V1.607H2.211z"/>
</g>
</svg>
