<?xml version="1.0" encoding="utf-8"?>
<!-- Generator: Adobe Illustrator 16.0.0, SVG Export Plug-In . SVG Version: 6.00 Build 0)  -->
<!DOCTYPE svg PUBLIC "-//W3C//DTD SVG 1.1//EN" "http://www.w3.org/Graphics/SVG/1.1/DTD/svg11.dtd">
<svg version="1.1" id="Layer_1" xmlns="http://www.w3.org/2000/svg" xmlns:xlink="http://www.w3.org/1999/xlink" x="0px" y="0px"
	 width="12.2px" height="16px" viewBox="0 0 12.2 16" enable-background="new 0 0 12.2 16" xml:space="preserve">
<g>
	<path fill="#5C5C5C" d="M11.095,16h-9.99C0.496,16,0,15.504,0,14.895V1.105C0,0.496,0.496,0,1.105,0H7.99
		c0.222,0,0.401,0.18,0.401,0.402v3.096c0,0.166,0.135,0.302,0.301,0.303L11.8,3.81c0.221,0,0.4,0.18,0.4,0.402v10.684
		C12.2,15.504,11.705,16,11.095,16z M1.105,0.803c-0.167,0-0.302,0.136-0.302,0.302v13.79c0,0.166,0.136,0.302,0.302,0.302h9.99
		c0.166,0,0.302-0.136,0.302-0.302V4.612L8.689,4.603C8.082,4.602,7.588,4.105,7.588,3.498V0.803H1.105z"/>
	<rect x="3.833" y="7.685" fill="#5C5C5C" width="4.535" height="3.582"/>
	<path fill="#5C5C5C" d="M8.368,11.669H3.833c-0.222,0-0.402-0.18-0.402-0.402V7.685c0-0.222,0.18-0.402,0.402-0.402h4.535
		c0.222,0,0.401,0.18,0.401,0.402v3.582C8.769,11.489,8.589,11.669,8.368,11.669z M4.235,10.866h3.731V8.086H4.235V10.866z"/>
	<path fill="#5C5C5C" d="M7.195,8.087c-0.222,0-0.402-0.18-0.402-0.402c0-0.72-0.365-1.221-0.693-1.221S5.407,6.965,5.407,7.685
		c0,0.222-0.18,0.402-0.402,0.402c-0.222,0-0.401-0.18-0.401-0.402c0-1.135,0.657-2.024,1.496-2.024S7.597,6.55,7.597,7.685
		C7.597,7.907,7.417,8.087,7.195,8.087z"/>
	<path fill="#FFFFFF" d="M6.936,9.357c0,0.462-0.375,0.836-0.836,0.836S5.264,9.819,5.264,9.357S5.639,8.521,6.1,8.521
		S6.936,8.895,6.936,9.357"/>
	<path fill="#5C5C5C" d="M6.1,10.594c-0.683,0-1.238-0.555-1.238-1.237S5.417,8.12,6.1,8.12s1.238,0.555,1.238,1.237
		S6.783,10.594,6.1,10.594z M6.1,8.922c-0.239,0-0.435,0.195-0.435,0.435S5.861,9.791,6.1,9.791s0.435-0.195,0.435-0.434
		S6.339,8.922,6.1,8.922z"/>
</g>
</svg>
