<?xml version="1.0" encoding="utf-8"?>
<!-- Generator: Adobe Illustrator 16.0.0, SVG Export Plug-In . SVG Version: 6.00 Build 0)  -->
<!DOCTYPE svg PUBLIC "-//W3C//DTD SVG 1.1//EN" "http://www.w3.org/Graphics/SVG/1.1/DTD/svg11.dtd">
<svg version="1.1" id="Layer_1" xmlns="http://www.w3.org/2000/svg" xmlns:xlink="http://www.w3.org/1999/xlink" x="0px" y="0px"
	 width="24.773px" height="32px" viewBox="0 0 24.773 32" enable-background="new 0 0 24.773 32" xml:space="preserve">
<g>
	<path fill="#A6CF4A" d="M22.19,32H2.211C0.992,32,0,31.009,0,29.79V2.21C0,0.991,0.992,0,2.211,0h13.768
		c0.444,0,0.804,0.36,0.804,0.803v6.191c0,0.333,0.27,0.604,0.601,0.605l6.216,0.02C24.042,7.621,24.4,7.98,24.4,8.423V29.79
		C24.4,31.009,23.409,32,22.19,32z M2.211,1.607c-0.333,0-0.604,0.271-0.604,0.604V29.79c0,0.333,0.271,0.604,0.604,0.604H22.19
		c0.333,0,0.604-0.271,0.604-0.604V9.224l-5.415-0.018c-1.215-0.003-2.203-0.996-2.203-2.212V1.607H2.211z"/>
	<path fill="#A6CF4A" d="M18.627,14.396C18.627,14.396,18.627,14.396,18.627,14.396L8.343,14.393c-0.444,0-0.803-0.36-0.803-0.804
		s0.36-0.803,0.803-0.803c0,0,0,0,0,0l10.284,0.003c0.444,0,0.803,0.36,0.803,0.804C19.431,14.037,19.071,14.396,18.627,14.396z"/>
	<path fill="#A6CF4A" d="M18.627,18.269H5.774c-0.444,0-0.804-0.359-0.804-0.803s0.36-0.804,0.804-0.804h12.853
		c0.443,0,0.803,0.36,0.803,0.804S19.07,18.269,18.627,18.269z"/>
	<path fill="#A6CF4A" d="M18.626,22.143H5.772c-0.443,0-0.803-0.36-0.803-0.804s0.36-0.803,0.803-0.803h12.854
		c0.443,0,0.803,0.359,0.803,0.803S19.07,22.143,18.626,22.143z"/>
	<path fill="#A6CF4A" d="M18.628,26.016H5.772c-0.443,0-0.803-0.36-0.803-0.803c0-0.444,0.36-0.804,0.803-0.804h12.855
		c0.444,0,0.803,0.36,0.803,0.804C19.431,25.656,19.072,26.016,18.628,26.016z"/>
	<g>
		<defs>
			<polygon id="SVGID_55_" points="20.637,0.974 9.593,14.112 13.729,17.588 24.773,4.45 24.496,2.557 22.549,0.92 			"/>
		</defs>
		<clipPath id="SVGID_2_">
			<use xlink:href="#SVGID_55_"  overflow="visible"/>
		</clipPath>
		
			<linearGradient id="SVGID_3_" gradientUnits="userSpaceOnUse" x1="742.2358" y1="681.894" x2="743.0394" y2="681.894" gradientTransform="matrix(6.6178 5.5629 5.5629 -6.6178 -8690.7725 390.7095)">
			<stop  offset="0" style="stop-color:#F58220"/>
			<stop  offset="1" style="stop-color:#FFCB0B"/>
		</linearGradient>
		<polygon clip-path="url(#SVGID_2_)" fill="url(#SVGID_3_)" points="15.878,-6.557 32.983,7.821 18.488,25.065 1.383,10.687 		"/>
	</g>
	<g>
		<defs>
			
				<rect id="SVGID_58_" x="16.32" y="-0.423" transform="matrix(-0.7656 -0.6433 0.6433 -0.7656 25.4024 26.8446)" width="2.543" height="18.435"/>
		</defs>
		<clipPath id="SVGID_5_">
			<use xlink:href="#SVGID_58_"  overflow="visible"/>
		</clipPath>
		
			<linearGradient id="SVGID_6_" gradientUnits="userSpaceOnUse" x1="876.8213" y1="748.7212" x2="877.6249" y2="748.7212" gradientTransform="matrix(-13.9237 -0.0122 -0.0122 13.9237 12240.9248 -10405.5234)">
			<stop  offset="0" style="stop-color:#FFCB0B"/>
			<stop  offset="0.8684" style="stop-color:#FFCB0B"/>
			<stop  offset="1" style="stop-color:#FFCB0B"/>
		</linearGradient>
		<polygon clip-path="url(#SVGID_5_)" fill="url(#SVGID_6_)" points="24.496,16.681 10.673,16.668 10.687,0.908 24.51,0.92 		"/>
	</g>
	<g>
		<defs>
			<path id="SVGID_61_" d="M7.405,21.102l2.779-1.543c-0.188-0.338-0.438-0.641-0.733-0.89c-0.323-0.271-0.694-0.475-1.096-0.601
				L7.405,21.102z"/>
		</defs>
		<clipPath id="SVGID_8_">
			<use xlink:href="#SVGID_61_"  overflow="visible"/>
		</clipPath>
		
			<linearGradient id="SVGID_9_" gradientUnits="userSpaceOnUse" x1="1040.3696" y1="959.1343" x2="1041.1731" y2="959.1343" gradientTransform="matrix(-2.0352 -1.8386 -1.8386 2.0352 3890.3701 -18.9105)">
			<stop  offset="0" style="stop-color:#010101"/>
			<stop  offset="1" style="stop-color:#010101"/>
		</linearGradient>
		<polygon clip-path="url(#SVGID_8_)" fill="url(#SVGID_9_)" points="8.935,22.484 5.896,19.739 8.654,16.687 11.693,19.432 		"/>
	</g>
</g>
</svg>
