<?xml version="1.0" encoding="utf-8"?>
<!-- Generator: Adobe Illustrator 16.0.0, SVG Export Plug-In . SVG Version: 6.00 Build 0)  -->
<!DOCTYPE svg PUBLIC "-//W3C//DTD SVG 1.1//EN" "http://www.w3.org/Graphics/SVG/1.1/DTD/svg11.dtd">
<svg version="1.1" id="Layer_1" xmlns="http://www.w3.org/2000/svg" xmlns:xlink="http://www.w3.org/1999/xlink" x="0px" y="0px"
	 width="97.604px" height="128px" viewBox="0 0 97.604 128" enable-background="new 0 0 97.604 128" xml:space="preserve">
<g>
	<path fill="#A6CF4A" d="M88.763,128H8.844C3.967,128,0,124.035,0,119.159V8.841C0,3.965,3.967,0,8.844,0h55.072
		c1.775,0,3.214,1.439,3.214,3.214v24.766c0,1.331,1.078,2.415,2.404,2.42l24.865,0.077c1.771,0.006,3.204,1.442,3.204,3.214v85.469
		C97.604,124.035,93.638,128,88.763,128z M8.844,6.428c-1.333,0-2.417,1.083-2.417,2.414v110.317c0,1.331,1.084,2.414,2.417,2.414
		h79.918c1.331,0,2.414-1.083,2.414-2.414V36.895l-21.661-0.067c-4.86-0.014-8.813-3.984-8.813-8.848V6.428H8.844z"/>
</g>
</svg>
