<?xml version="1.0" encoding="utf-8"?>
<!-- Generator: Adobe Illustrator 16.0.0, SVG Export Plug-In . SVG Version: 6.00 Build 0)  -->
<!DOCTYPE svg PUBLIC "-//W3C//DTD SVG 1.1//EN" "http://www.w3.org/Graphics/SVG/1.1/DTD/svg11.dtd">
<svg version="1.1" id="Layer_1" xmlns="http://www.w3.org/2000/svg" xmlns:xlink="http://www.w3.org/1999/xlink" x="0px" y="0px"
	 width="97.604px" height="128px" viewBox="0 0 97.604 128" enable-background="new 0 0 97.604 128" xml:space="preserve">
<g>
	<path fill="#5C5C5C" d="M88.763,128H8.846C3.968,128,0,124.035,0,119.159V8.841C0,3.965,3.968,0,8.846,0h55.071
		c1.775,0,3.214,1.439,3.214,3.214v24.766c0,1.331,1.078,2.415,2.404,2.42l24.865,0.077c1.771,0.006,3.204,1.442,3.204,3.214v85.469
		C97.604,124.035,93.638,128,88.763,128z M8.846,6.428c-1.334,0-2.418,1.083-2.418,2.414v110.317c0,1.331,1.084,2.414,2.418,2.414
		h79.917c1.331,0,2.413-1.083,2.413-2.414V36.895l-21.66-0.067c-4.86-0.014-8.813-3.984-8.813-8.848V6.428H8.846z"/>
	<rect x="30.666" y="61.478" fill="#5C5C5C" width="36.274" height="28.661"/>
	<path fill="#5C5C5C" d="M66.94,93.353H30.666c-1.775,0-3.214-1.439-3.214-3.214V61.478c0-1.774,1.439-3.213,3.214-3.213H66.94
		c1.775,0,3.214,1.439,3.214,3.213v28.661C70.154,91.914,68.715,93.353,66.94,93.353z M33.88,86.925h29.847V64.692H33.88V86.925z"/>
	<path fill="#5C5C5C" d="M57.56,64.695c-1.775,0-3.214-1.439-3.214-3.214c0-5.758-2.922-9.77-5.544-9.77s-5.542,4.012-5.542,9.77
		c0,1.775-1.439,3.214-3.214,3.214s-3.214-1.439-3.214-3.214c0-9.083,5.258-16.198,11.97-16.198c6.713,0,11.972,7.115,11.972,16.198
		C60.773,63.256,59.334,64.695,57.56,64.695z"/>
	<path fill="#FFFFFF" d="M55.49,74.854c0,3.694-2.996,6.688-6.688,6.688s-6.688-2.994-6.688-6.688c0-3.692,2.996-6.687,6.688-6.687
		S55.49,71.162,55.49,74.854"/>
	<path fill="#5C5C5C" d="M48.802,84.756c-5.459,0-9.902-4.442-9.902-9.902s4.442-9.9,9.902-9.9s9.902,4.441,9.902,9.9
		S54.261,84.756,48.802,84.756z M48.802,71.382c-1.916,0-3.474,1.558-3.474,3.473c0,1.916,1.558,3.474,3.474,3.474
		s3.474-1.558,3.474-3.474C52.276,72.94,50.718,71.382,48.802,71.382z"/>
</g>
</svg>
