<?xml version="1.0" encoding="utf-8"?>
<!-- Generator: Adobe Illustrator 16.0.0, SVG Export Plug-In . SVG Version: 6.00 Build 0)  -->
<!DOCTYPE svg PUBLIC "-//W3C//DTD SVG 1.1//EN" "http://www.w3.org/Graphics/SVG/1.1/DTD/svg11.dtd">
<svg version="1.1" id="Layer_1" xmlns="http://www.w3.org/2000/svg" xmlns:xlink="http://www.w3.org/1999/xlink" x="0px" y="0px"
	 width="12.212px" height="16px" viewBox="0 0 12.212 16" enable-background="new 0 0 12.212 16" xml:space="preserve">
<g>
	<path fill="#FAA526" d="M11.096,16h-9.99C0.496,16,0,15.504,0,14.895V1.105C0,0.496,0.496,0,1.105,0h6.884
		c0.222,0,0.402,0.18,0.402,0.402v3.096c0,0.166,0.135,0.302,0.3,0.303L11.8,3.81c0.222,0,0.4,0.18,0.4,0.401v10.684
		C12.2,15.504,11.705,16,11.096,16z M1.105,0.803c-0.167,0-0.302,0.136-0.302,0.302v13.79c0,0.166,0.135,0.302,0.302,0.302h9.99
		c0.166,0,0.301-0.136,0.301-0.302V4.612L8.689,4.603C8.082,4.602,7.588,4.105,7.588,3.498V0.803H1.105z"/>
	<path fill="#FAA525" d="M9.314,7.198C9.314,7.198,9.314,7.198,9.314,7.198L4.172,7.197c-0.222,0-0.401-0.181-0.401-0.402
		s0.18-0.401,0.401-0.401l0,0l5.143,0.002c0.222,0,0.401,0.18,0.401,0.401S9.536,7.198,9.314,7.198z"/>
	<path fill="#FAA525" d="M9.313,9.134H2.887c-0.222,0-0.401-0.18-0.401-0.401s0.18-0.402,0.401-0.402h6.427
		c0.222,0,0.401,0.18,0.401,0.402S9.535,9.134,9.313,9.134z"/>
	<path fill="#FAA525" d="M9.313,11.071H2.887c-0.222,0-0.402-0.18-0.402-0.402s0.18-0.401,0.402-0.401h6.427
		c0.222,0,0.401,0.18,0.401,0.401S9.535,11.071,9.313,11.071z"/>
	<path fill="#FAA525" d="M9.314,13.008H2.887c-0.222,0-0.402-0.18-0.402-0.402s0.18-0.401,0.402-0.401h6.428
		c0.222,0,0.401,0.18,0.401,0.401S9.536,13.008,9.314,13.008z"/>
	<g>
		<defs>
			<polygon id="SVGID_91_" points="10.144,0.487 4.622,7.056 6.689,8.794 12.212,2.225 12.073,1.278 11.1,0.46 			"/>
		</defs>
		<clipPath id="SVGID_2_">
			<use xlink:href="#SVGID_91_"  overflow="visible"/>
		</clipPath>
		
			<linearGradient id="SVGID_3_" gradientUnits="userSpaceOnUse" x1="363.7251" y1="588.6118" x2="364.1269" y2="588.6118" gradientTransform="matrix(6.6178 5.5629 5.5629 -6.6178 -5674.374 1875.4902)">
			<stop  offset="0" style="stop-color:#F58220"/>
			<stop  offset="1" style="stop-color:#FFCB0B"/>
		</linearGradient>
		<polygon clip-path="url(#SVGID_2_)" fill="url(#SVGID_3_)" points="7.765,-3.279 16.317,3.911 9.069,12.533 0.517,5.343 		"/>
	</g>
	<g>
		<defs>
			
				<rect id="SVGID_94_" x="7.985" y="-0.212" transform="matrix(-0.7655 -0.6434 0.6434 -0.7655 12.3913 13.3104)" width="1.272" height="9.217"/>
		</defs>
		<clipPath id="SVGID_5_">
			<use xlink:href="#SVGID_94_"  overflow="visible"/>
		</clipPath>
		
			<linearGradient id="SVGID_6_" gradientUnits="userSpaceOnUse" x1="434.3433" y1="646.2808" x2="434.7448" y2="646.2808" gradientTransform="matrix(-13.9237 -0.0122 -0.0122 13.9237 6066.9663 -8988.957)">
			<stop  offset="0" style="stop-color:#FFCB0B"/>
			<stop  offset="0.8684" style="stop-color:#FFCB0B"/>
			<stop  offset="1" style="stop-color:#FFCB0B"/>
		</linearGradient>
		<polygon clip-path="url(#SVGID_5_)" fill="url(#SVGID_6_)" points="12.073,8.34 5.162,8.334 5.169,0.454 12.08,0.46 		"/>
	</g>
	<g>
		<defs>
			<path id="SVGID_97_" d="M3.528,10.551L4.917,9.78C4.823,9.61,4.699,9.459,4.551,9.334c-0.161-0.136-0.348-0.237-0.549-0.3
				L3.528,10.551z"/>
		</defs>
		<clipPath id="SVGID_8_">
			<use xlink:href="#SVGID_97_"  overflow="visible"/>
		</clipPath>
		
			<linearGradient id="SVGID_9_" gradientUnits="userSpaceOnUse" x1="502.6909" y1="789.6655" x2="503.0927" y2="789.6655" gradientTransform="matrix(-2.0352 -1.8386 -1.8386 2.0352 2479.541 -672.7231)">
			<stop  offset="0" style="stop-color:#010101"/>
			<stop  offset="1" style="stop-color:#010101"/>
		</linearGradient>
		<polygon clip-path="url(#SVGID_8_)" fill="url(#SVGID_9_)" points="4.293,11.242 2.774,9.87 4.152,8.343 5.672,9.716 		"/>
	</g>
</g>
</svg>
