<?xml version="1.0" encoding="utf-8"?>
<!-- Generator: Adobe Illustrator 16.0.0, SVG Export Plug-In . SVG Version: 6.00 Build 0)  -->
<!DOCTYPE svg PUBLIC "-//W3C//DTD SVG 1.1//EN" "http://www.w3.org/Graphics/SVG/1.1/DTD/svg11.dtd">
<svg version="1.1" id="Layer_1" xmlns="http://www.w3.org/2000/svg" xmlns:xlink="http://www.w3.org/1999/xlink" x="0px" y="0px"
	 width="24.424px" height="32px" viewBox="0 0 24.424 32" enable-background="new 0 0 24.424 32" xml:space="preserve">
<g>
	<path fill="#FAA526" d="M22.191,32H2.211C0.992,32,0,31.009,0,29.79V2.21C0,0.991,0.992,0,2.211,0h13.768
		c0.444,0,0.804,0.36,0.804,0.803v6.191c0,0.333,0.27,0.604,0.601,0.605L23.6,7.62c0.443,0.001,0.801,0.36,0.801,0.803V29.79
		C24.401,31.009,23.41,32,22.191,32z M2.211,1.607c-0.333,0-0.604,0.271-0.604,0.604V29.79c0,0.333,0.271,0.604,0.604,0.604h19.979
		c0.333,0,0.603-0.271,0.603-0.604V9.224l-5.415-0.018c-1.215-0.003-2.203-0.996-2.203-2.212V1.607H2.211z"/>
	<path fill="#FAA525" d="M18.628,14.396C18.628,14.396,18.628,14.396,18.628,14.396L8.343,14.393c-0.443,0-0.803-0.36-0.803-0.804
		s0.359-0.803,0.803-0.803c0,0,0,0,0,0l10.284,0.003c0.444,0,0.803,0.36,0.803,0.804C19.432,14.037,19.072,14.396,18.628,14.396z"/>
	<path fill="#FAA525" d="M18.627,18.269H5.774c-0.443,0-0.803-0.359-0.803-0.803s0.36-0.804,0.803-0.804h12.853
		c0.444,0,0.803,0.36,0.803,0.804S19.071,18.269,18.627,18.269z"/>
	<path fill="#FAA525" d="M18.626,22.143H5.773c-0.444,0-0.804-0.36-0.804-0.804s0.36-0.803,0.804-0.803h12.854
		c0.444,0,0.804,0.359,0.804,0.803S19.07,22.143,18.626,22.143z"/>
	<path fill="#FAA525" d="M18.628,26.016H5.773c-0.444,0-0.804-0.36-0.804-0.803c0-0.444,0.36-0.804,0.804-0.804h12.855
		c0.443,0,0.803,0.36,0.803,0.804C19.432,25.656,19.072,26.016,18.628,26.016z"/>
	<g>
		<defs>
			<polygon id="SVGID_64_" points="20.288,0.974 9.243,14.112 13.379,17.588 24.424,4.45 24.147,2.557 22.2,0.92 			"/>
		</defs>
		<clipPath id="SVGID_2_">
			<use xlink:href="#SVGID_64_"  overflow="visible"/>
		</clipPath>
		
			<linearGradient id="SVGID_3_" gradientUnits="userSpaceOnUse" x1="361.9912" y1="708.1177" x2="362.7948" y2="708.1177" gradientTransform="matrix(6.6178 5.5629 5.5629 -6.6178 -6320.6084 2679.5081)">
			<stop  offset="0" style="stop-color:#F58220"/>
			<stop  offset="1" style="stop-color:#FFCB0B"/>
		</linearGradient>
		<polygon clip-path="url(#SVGID_2_)" fill="url(#SVGID_3_)" points="15.529,-6.557 32.634,7.821 18.139,25.065 1.034,10.687 		"/>
	</g>
	<g>
		<defs>
			
				<rect id="SVGID_67_" x="15.971" y="-0.423" transform="matrix(-0.7656 -0.6433 0.6433 -0.7656 24.7864 26.6202)" width="2.543" height="18.435"/>
		</defs>
		<clipPath id="SVGID_5_">
			<use xlink:href="#SVGID_67_"  overflow="visible"/>
		</clipPath>
		
			<linearGradient id="SVGID_6_" gradientUnits="userSpaceOnUse" x1="440.0742" y1="748.6987" x2="440.8778" y2="748.6987" gradientTransform="matrix(-13.9237 -0.0122 -0.0122 13.9237 6159.4292 -10410.5313)">
			<stop  offset="0" style="stop-color:#FFCB0B"/>
			<stop  offset="0.8684" style="stop-color:#FFCB0B"/>
			<stop  offset="1" style="stop-color:#FFCB0B"/>
		</linearGradient>
		<polygon clip-path="url(#SVGID_5_)" fill="url(#SVGID_6_)" points="24.147,16.681 10.325,16.668 10.338,0.908 24.161,0.92 		"/>
	</g>
	<g>
		<defs>
			<path id="SVGID_70_" d="M7.057,21.102l2.778-1.543c-0.189-0.338-0.438-0.641-0.734-0.89c-0.322-0.271-0.694-0.475-1.097-0.601
				L7.057,21.102z"/>
		</defs>
		<clipPath id="SVGID_8_">
			<use xlink:href="#SVGID_70_"  overflow="visible"/>
		</clipPath>
		
			<linearGradient id="SVGID_9_" gradientUnits="userSpaceOnUse" x1="533.5991" y1="873.0161" x2="534.4028" y2="873.0161" gradientTransform="matrix(-2.0352 -1.8386 -1.8386 2.0352 2700.3203 -775.3698)">
			<stop  offset="0" style="stop-color:#010101"/>
			<stop  offset="1" style="stop-color:#010101"/>
		</linearGradient>
		<polygon clip-path="url(#SVGID_8_)" fill="url(#SVGID_9_)" points="8.586,22.484 5.548,19.739 8.305,16.687 11.343,19.432 		"/>
	</g>
</g>
</svg>
