<?xml version="1.0" encoding="utf-8"?>
<!-- Generator: Adobe Illustrator 16.0.0, SVG Export Plug-In . SVG Version: 6.00 Build 0)  -->
<!DOCTYPE svg PUBLIC "-//W3C//DTD SVG 1.1//EN" "http://www.w3.org/Graphics/SVG/1.1/DTD/svg11.dtd">
<svg version="1.1" id="Layer_1" xmlns="http://www.w3.org/2000/svg" xmlns:xlink="http://www.w3.org/1999/xlink" x="0px" y="0px"
	 width="12.2px" height="16px" viewBox="0 0 12.2 16" enable-background="new 0 0 12.2 16" xml:space="preserve">
<g>
	<path fill="#FAA526" d="M11.095,16h-9.99C0.496,16,0,15.504,0,14.895V1.105C0,0.496,0.496,0,1.105,0h6.884
		c0.222,0,0.401,0.18,0.401,0.402v3.096c0,0.166,0.135,0.302,0.301,0.303L11.8,3.81c0.222,0,0.4,0.18,0.4,0.402v10.684
		C12.2,15.504,11.705,16,11.095,16z M1.105,0.803c-0.167,0-0.302,0.136-0.302,0.302v13.79c0,0.166,0.135,0.302,0.302,0.302h9.99
		c0.167,0,0.301-0.136,0.301-0.302V4.612L8.689,4.603C8.082,4.602,7.588,4.105,7.588,3.498V0.803H1.105z"/>
</g>
</svg>
