<?xml version="1.0" encoding="utf-8"?>
<!-- Generator: Adobe Illustrator 16.0.0, SVG Export Plug-In . SVG Version: 6.00 Build 0)  -->
<!DOCTYPE svg PUBLIC "-//W3C//DTD SVG 1.1//EN" "http://www.w3.org/Graphics/SVG/1.1/DTD/svg11.dtd">
<svg version="1.1" id="Layer_1" xmlns="http://www.w3.org/2000/svg" xmlns:xlink="http://www.w3.org/1999/xlink" x="0px" y="0px"
	 width="34.269px" height="32px" viewBox="0 0 34.269 32" enable-background="new 0 0 34.269 32" xml:space="preserve">
<path fill="#515254" d="M17.111,32l-0.47-0.231c-0.508-0.249-12.47-6.215-15.949-16.2C-1.35,9.712,1.281,3.077,6.557,0.776
	c3.562-1.552,7.735-0.724,10.587,2.002C20,0.061,24.176-0.757,27.733,0.806c5.272,2.314,7.889,8.957,5.833,14.807
	c-3.502,9.976-15.477,15.91-15.984,16.157L17.111,32z M10.352,2.119c-1.003,0-1.991,0.209-2.938,0.621
	c-4.272,1.863-6.38,7.302-4.699,12.124C5.538,22.964,14.901,28.407,17.114,29.6c2.215-1.189,11.595-6.618,14.432-14.697
	c1.692-4.817-0.404-10.261-4.673-12.136c-3.062-1.343-6.663-0.405-8.911,2.265L17.14,6.007L16.321,5.03
	C14.77,3.18,12.594,2.119,10.352,2.119z"/>
</svg>
