<?xml version="1.0" encoding="utf-8"?>
<!-- Generator: Adobe Illustrator 16.0.0, SVG Export Plug-In . SVG Version: 6.00 Build 0)  -->
<!DOCTYPE svg PUBLIC "-//W3C//DTD SVG 1.1//EN" "http://www.w3.org/Graphics/SVG/1.1/DTD/svg11.dtd">
<svg version="1.1" id="Layer_1" xmlns="http://www.w3.org/2000/svg" xmlns:xlink="http://www.w3.org/1999/xlink" x="0px" y="0px"
	 width="137.074px" height="128px" viewBox="0 0 137.074 128" enable-background="new 0 0 137.074 128" xml:space="preserve">
<path fill="#515254" d="M68.446,128l-1.881-0.925c-2.031-0.996-49.878-24.859-63.797-64.799C-5.4,38.851,5.125,12.308,26.229,3.106
	c14.246-6.208,30.939-2.896,42.346,8.009C80.001,0.242,96.705-3.026,110.934,3.223c21.087,9.258,31.557,35.827,23.334,59.228
	c-14.009,39.902-61.906,63.638-63.937,64.63L68.446,128z M41.406,8.475c-4.011,0-7.965,0.837-11.751,2.486
	C12.565,18.413,4.134,40.167,10.86,59.455c11.293,32.404,48.744,54.173,57.596,58.943c8.862-4.755,46.379-26.47,57.728-58.786
	c6.768-19.269-1.617-41.045-18.694-48.543c-12.246-5.373-26.652-1.621-35.645,9.06l-3.287,3.902l-3.276-3.91
	C59.081,12.72,50.378,8.475,41.406,8.475z"/>
</svg>
