<?xml version="1.0" encoding="utf-8"?>
<!-- Generator: Adobe Illustrator 16.0.0, SVG Export Plug-In . SVG Version: 6.00 Build 0)  -->
<!DOCTYPE svg PUBLIC "-//W3C//DTD SVG 1.1//EN" "http://www.w3.org/Graphics/SVG/1.1/DTD/svg11.dtd">
<svg version="1.1" id="Layer_1" xmlns="http://www.w3.org/2000/svg" xmlns:xlink="http://www.w3.org/1999/xlink" x="0px" y="0px"
	 width="17.134px" height="16px" viewBox="0 0 17.134 16" enable-background="new 0 0 17.134 16" xml:space="preserve">
<g>
	<path fill="#EF3B39" d="M13.651,0.894c-1.82-0.8-3.817-0.223-5.081,1.277c-1.26-1.504-3.255-2.086-5.078-1.292
		C1.102,1.922-0.081,4.935,0.852,7.608c1.688,4.842,7.705,7.795,7.705,7.795s6.023-2.937,7.721-7.774
		C17.216,4.958,16.041,1.942,13.651,0.894"/>
	<path fill="#BE1E2D" d="M8.556,16l-0.235-0.116c-0.254-0.125-6.234-3.108-7.974-8.1c-1.021-2.928,0.294-6.246,2.932-7.396
		c1.78-0.777,3.867-0.362,5.293,1.001c1.429-1.359,3.518-1.767,5.295-0.987c2.636,1.157,3.944,4.478,2.917,7.403
		c-1.751,4.987-7.738,7.955-7.992,8.078L8.556,16z M5.176,1.06c-0.502,0-0.996,0.104-1.469,0.311
		c-2.136,0.932-3.19,3.65-2.349,6.062c1.412,4.05,6.093,6.771,7.199,7.368c1.107-0.595,5.797-3.309,7.216-7.348
		c0.846-2.409-0.202-5.131-2.336-6.067c-1.53-0.672-3.332-0.203-4.456,1.132L8.57,3.004L8.16,2.515
		C7.385,1.59,6.297,1.06,5.176,1.06z"/>
</g>
</svg>
