<?xml version="1.0" encoding="utf-8"?>
<!-- Generator: Adobe Illustrator 16.0.0, SVG Export Plug-In . SVG Version: 6.00 Build 0)  -->
<!DOCTYPE svg PUBLIC "-//W3C//DTD SVG 1.1//EN" "http://www.w3.org/Graphics/SVG/1.1/DTD/svg11.dtd">
<svg version="1.1" id="Layer_1" xmlns="http://www.w3.org/2000/svg" xmlns:xlink="http://www.w3.org/1999/xlink" x="0px" y="0px"
	 width="34.267px" height="32px" viewBox="0 0 34.267 32" enable-background="new 0 0 34.267 32" xml:space="preserve">
<g>
	<path fill="#EF3B39" d="M27.302,1.788c-3.641-1.599-7.634-0.446-10.161,2.556C14.621,1.335,10.63,0.171,6.985,1.759
		C2.204,3.844-0.162,9.87,1.704,15.217c3.375,9.684,15.409,15.59,15.409,15.59s12.046-5.874,15.443-15.549
		C34.432,9.917,32.08,3.885,27.302,1.788"/>
	<path fill="#BE1E2D" d="M17.111,32l-0.47-0.231C16.133,31.52,4.172,25.553,0.692,15.569C-1.35,9.713,1.281,3.078,6.557,0.777
		c3.56-1.554,7.733-0.725,10.586,2.003c2.858-2.718,7.035-3.534,10.59-1.974c5.271,2.314,7.888,8.957,5.833,14.807
		C30.064,25.588,18.09,31.522,17.582,31.77L17.111,32z M10.352,2.12c-1.003,0-1.992,0.209-2.938,0.622
		c-4.272,1.863-6.38,7.301-4.698,12.123C5.539,22.965,14.9,28.407,17.113,29.6c2.215-1.189,11.595-6.617,14.432-14.696
		c1.692-4.818-0.404-10.262-4.673-12.136c-3.061-1.343-6.663-0.406-8.912,2.265l-0.822,0.976L16.32,5.031
		C14.77,3.181,12.594,2.12,10.352,2.12z"/>
</g>
</svg>
