<?xml version="1.0" encoding="utf-8"?>
<!-- Generator: Adobe Illustrator 16.0.0, SVG Export Plug-In . SVG Version: 6.00 Build 0)  -->
<!DOCTYPE svg PUBLIC "-//W3C//DTD SVG 1.1//EN" "http://www.w3.org/Graphics/SVG/1.1/DTD/svg11.dtd">
<svg version="1.1" id="Layer_1" xmlns="http://www.w3.org/2000/svg" xmlns:xlink="http://www.w3.org/1999/xlink" x="0px" y="0px"
	 width="137.069px" height="128px" viewBox="0 0 137.069 128" enable-background="new 0 0 137.069 128" xml:space="preserve">
<g>
	<path fill="#EF3B39" d="M109.21,7.151C94.647,0.757,78.673,5.368,68.564,17.373C58.482,5.341,42.519,0.684,27.941,7.038
		C8.815,15.377-0.646,39.479,6.815,60.868c13.5,38.736,61.634,62.362,61.634,62.362s48.186-23.497,61.772-62.197
		C137.728,39.667,128.32,15.54,109.21,7.151"/>
	<path fill="#BE1E2D" d="M68.443,128l-1.881-0.925c-2.031-0.996-49.874-24.861-63.793-64.797
		c-8.17-23.423,2.354-49.966,23.459-59.167c14.241-6.216,30.932-2.9,42.345,8.011C80.006,0.249,96.714-3.013,110.932,3.228
		c21.086,9.255,31.553,35.826,23.331,59.226c-14.007,39.901-61.904,63.636-63.936,64.628L68.443,128z M41.406,8.479
		c-4.013,0-7.967,0.837-11.753,2.486c-17.089,7.452-25.52,29.206-18.792,48.493c11.293,32.403,48.74,54.172,57.592,58.942
		c8.862-4.755,46.381-26.47,57.726-58.785c6.768-19.271-1.615-41.046-18.691-48.542C95.247,5.701,80.836,9.45,71.843,20.132
		l-3.287,3.902l-3.276-3.91C59.079,12.724,50.375,8.479,41.406,8.479z"/>
</g>
</svg>
