<?xml version="1.0" encoding="utf-8"?>
<!-- Generator: Adobe Illustrator 16.0.0, SVG Export Plug-In . SVG Version: 6.00 Build 0)  -->
<!DOCTYPE svg PUBLIC "-//W3C//DTD SVG 1.1//EN" "http://www.w3.org/Graphics/SVG/1.1/DTD/svg11.dtd">
<svg version="1.1" id="Layer_1" xmlns="http://www.w3.org/2000/svg" xmlns:xlink="http://www.w3.org/1999/xlink" x="0px" y="0px"
	 width="17.134px" height="16px" viewBox="0 0 17.134 16" enable-background="new 0 0 17.134 16" xml:space="preserve">
<path fill="#515254" d="M8.556,16l-0.235-0.116c-0.254-0.125-6.235-3.107-7.975-8.1c-1.021-2.928,0.294-6.246,2.933-7.396
	C5.06-0.388,7.146,0.026,8.572,1.389C10,0.03,12.088-0.378,13.867,0.403c2.636,1.157,3.945,4.478,2.917,7.403
	c-1.751,4.988-7.738,7.955-7.992,8.079L8.556,16z M5.176,1.059c-0.501,0-0.996,0.104-1.469,0.311
	c-2.136,0.932-3.19,3.651-2.35,6.062c1.412,4.05,6.093,6.771,7.2,7.368c1.108-0.595,5.797-3.309,7.216-7.349
	c0.846-2.409-0.202-5.13-2.336-6.068c-1.531-0.671-3.332-0.202-4.456,1.133L8.57,3.003L8.161,2.515
	C7.385,1.59,6.297,1.059,5.176,1.059z"/>
</svg>
