<?xml version="1.0" encoding="utf-8"?>
<!-- Generator: Adobe Illustrator 16.0.0, SVG Export Plug-In . SVG Version: 6.00 Build 0)  -->
<!DOCTYPE svg PUBLIC "-//W3C//DTD SVG 1.1//EN" "http://www.w3.org/Graphics/SVG/1.1/DTD/svg11.dtd">
<svg version="1.1" id="Layer_1" xmlns="http://www.w3.org/2000/svg" xmlns:xlink="http://www.w3.org/1999/xlink" x="0px" y="0px"
	 width="23.711px" height="16px" viewBox="0 0 23.711 16" enable-background="new 0 0 23.711 16" xml:space="preserve">
<g>
	<path fill="#58595B" d="M13.718,16H2.15C0.965,16,0,15.035,0,13.85v-0.712c0-2.313,1.809-4.214,4.119-4.328L4.38,8.797l0.158,0.208
		c0.873,1.145,2.109,1.801,3.392,1.801s2.519-0.656,3.393-1.801l0.157-0.207l0.26,0.012c2.315,0.109,4.128,2.01,4.128,4.328v0.712
		C15.868,15.035,14.903,16,13.718,16z M3.921,9.822c-1.662,0.204-2.929,1.616-2.929,3.315v0.712c0,0.639,0.52,1.158,1.158,1.158
		h11.567c0.639,0,1.158-0.52,1.158-1.158v-0.712c0-1.704-1.271-3.116-2.937-3.316c-1.051,1.26-2.499,1.977-4.009,1.977
		S4.972,11.081,3.921,9.822z"/>
	<path fill="#58595B" d="M7.93,10.419c-2.326,0-4.218-2.31-4.218-5.148S5.604,0.122,7.93,0.122c2.325,0,4.217,2.31,4.217,5.148
		S10.255,10.419,7.93,10.419z M7.93,1.114c-1.779,0-3.225,1.864-3.225,4.156c0,2.292,1.446,4.156,3.225,4.156
		c1.778,0,3.225-1.865,3.225-4.156C11.155,2.979,9.708,1.114,7.93,1.114z"/>
	<path fill="#515254" d="M18.441,10.541c-2.906,0-5.271-2.364-5.271-5.27S15.535,0,18.441,0c2.906,0,5.27,2.364,5.27,5.271
		S21.347,10.541,18.441,10.541z M18.441,0.992c-2.359,0-4.278,1.919-4.278,4.278c0,2.358,1.918,4.277,4.278,4.277
		c2.358,0,4.277-1.919,4.277-4.277C22.719,2.912,20.8,0.992,18.441,0.992z"/>
	<path fill="#515254" d="M20.59,5.737h-2.148c-0.274,0-0.497-0.222-0.497-0.496V1.973c0-0.274,0.222-0.496,0.497-0.496
		c0.273,0,0.496,0.222,0.496,0.496v2.771h1.652c0.274,0,0.496,0.223,0.496,0.497S20.864,5.737,20.59,5.737z"/>
</g>
</svg>
