<?xml version="1.0" encoding="utf-8"?>
<!-- Generator: Adobe Illustrator 16.0.0, SVG Export Plug-In . SVG Version: 6.00 Build 0)  -->
<!DOCTYPE svg PUBLIC "-//W3C//DTD SVG 1.1//EN" "http://www.w3.org/Graphics/SVG/1.1/DTD/svg11.dtd">
<svg version="1.1" id="Layer_1" xmlns="http://www.w3.org/2000/svg" xmlns:xlink="http://www.w3.org/1999/xlink" x="0px" y="0px"
	 width="31.981px" height="32px" viewBox="0 0 31.981 32" enable-background="new 0 0 31.981 32" xml:space="preserve">
<g>
	<path fill="#FAA526" d="M23.613,18.508c-1.882,2.468-4.606,4.023-7.631,4.023c-3.025,0-5.749-1.555-7.632-4.023
		C4.274,18.709,1,22.107,1,26.232v1.434C1,29.5,2.501,31,4.335,31h23.313c1.834,0,3.334-1.5,3.334-3.334v-1.434
		C30.981,22.1,27.698,18.7,23.613,18.508"/>
	<path fill="#F7941E" d="M27.647,32H4.335C1.945,32,0,30.056,0,27.666v-1.434c0-4.662,3.646-8.493,8.302-8.723l0.525-0.026
		l0.318,0.418c1.76,2.307,4.252,3.629,6.837,3.629s5.076-1.323,6.835-3.629l0.318-0.417l0.524,0.024
		c4.666,0.219,8.321,4.051,8.321,8.723v1.434C31.981,30.056,30.037,32,27.647,32z M7.903,19.549C4.556,19.961,2,22.806,2,26.232
		v1.434C2,28.953,3.048,30,4.335,30h23.313c1.287,0,2.334-1.047,2.334-2.334v-1.434c0-3.435-2.563-6.28-5.919-6.684
		c-2.119,2.538-5.035,3.983-8.08,3.983S10.021,22.087,7.903,19.549z"/>
	<path fill="#FAA526" d="M23.481,10.376c0,5.178-3.358,9.376-7.499,9.376c-4.144,0-7.5-4.198-7.5-9.376
		c0-5.178,3.356-9.376,7.5-9.376C20.123,1,23.481,5.198,23.481,10.376"/>
	<path fill="#F7941E" d="M15.982,20.752c-4.688,0-8.5-4.655-8.5-10.376S11.295,0,15.982,0c4.687,0,8.499,4.655,8.499,10.376
		S20.669,20.752,15.982,20.752z M15.982,2c-3.584,0-6.5,3.757-6.5,8.376s2.916,8.376,6.5,8.376c3.583,0,6.499-3.757,6.499-8.376
		S19.565,2,15.982,2z"/>
</g>
</svg>
