<?xml version="1.0" encoding="utf-8"?>
<!-- Generator: Adobe Illustrator 16.0.0, SVG Export Plug-In . SVG Version: 6.00 Build 0)  -->
<!DOCTYPE svg PUBLIC "-//W3C//DTD SVG 1.1//EN" "http://www.w3.org/Graphics/SVG/1.1/DTD/svg11.dtd">
<svg version="1.1" id="Layer_1" xmlns="http://www.w3.org/2000/svg" xmlns:xlink="http://www.w3.org/1999/xlink" x="0px" y="0px"
	 width="42.872px" height="32px" viewBox="0 0 42.872 32" enable-background="new 0 0 42.872 32" xml:space="preserve">
<g>
	<path fill="#58595B" d="M26.112,32H4.094C1.837,32,0,30.164,0,27.907v-1.354c0-4.403,3.444-8.022,7.84-8.239l0.496-0.024
		l0.301,0.395c1.662,2.179,4.016,3.428,6.457,3.428c2.442,0,4.794-1.249,6.456-3.428l0.3-0.394l0.495,0.023
		c4.407,0.207,7.859,3.826,7.859,8.239v1.354C30.206,30.164,28.369,32,26.112,32z M7.464,20.24
		c-3.162,0.389-5.575,3.076-5.575,6.312v1.354c0,1.215,0.989,2.205,2.206,2.205h22.018c1.216,0,2.205-0.989,2.205-2.205v-1.354
		c0-3.245-2.42-5.932-5.59-6.313c-2.001,2.397-4.756,3.762-7.631,3.762S9.465,22.637,7.464,20.24z"/>
	<path fill="#58595B" d="M15.095,21.376c-4.427,0-8.028-4.396-8.028-9.8c0-5.403,3.602-9.8,8.028-9.8c4.426,0,8.027,4.396,8.027,9.8
		C23.122,16.98,19.521,21.376,15.095,21.376z M15.095,3.666c-3.385,0-6.139,3.548-6.139,7.911s2.754,7.911,6.139,7.911
		c3.384,0,6.138-3.549,6.138-7.911S18.479,3.666,15.095,3.666z"/>
	<path fill="#59595B" d="M34.945,7.926V1.038C34.945,0.464,34.48,0,33.907,0s-1.039,0.464-1.039,1.039l0.001,6.887h-6.888
		c-0.573,0-1.038,0.465-1.038,1.038s0.464,1.038,1.038,1.038h6.888v6.888c0,0.573,0.465,1.038,1.038,1.039
		c0.287-0.001,0.546-0.117,0.734-0.305c0.188-0.188,0.304-0.447,0.304-0.734v-6.888l6.888,0.001c0.287,0,0.546-0.117,0.734-0.305
		c0.188-0.188,0.304-0.447,0.304-0.733c0-0.574-0.465-1.039-1.038-1.039H34.945z"/>
</g>
</svg>
