<?xml version="1.0" encoding="utf-8"?>
<!-- Generator: Adobe Illustrator 16.0.0, SVG Export Plug-In . SVG Version: 6.00 Build 0)  -->
<!DOCTYPE svg PUBLIC "-//W3C//DTD SVG 1.1//EN" "http://www.w3.org/Graphics/SVG/1.1/DTD/svg11.dtd">
<svg version="1.1" id="Layer_1" xmlns="http://www.w3.org/2000/svg" xmlns:xlink="http://www.w3.org/1999/xlink" x="0px" y="0px"
	 width="189.692px" height="128px" viewBox="0 0 189.692 128" enable-background="new 0 0 189.692 128" xml:space="preserve">
<g>
	<path fill="#58595B" d="M109.746,128H17.208C7.72,128,0,120.282,0,110.796v-5.693C0,86.599,14.475,71.39,32.954,70.479l2.085-0.105
		l1.268,1.661c6.981,9.156,16.871,14.407,27.134,14.407c10.261,0,20.152-5.251,27.137-14.407l1.262-1.655l2.08,0.097
		c18.521,0.87,33.029,16.08,33.029,34.626v5.693C126.949,120.282,119.231,128,109.746,128z M31.373,78.577
		C18.082,80.211,7.939,91.503,7.939,105.104v5.693c0,5.109,4.158,9.265,9.269,9.265h92.538c5.109,0,9.265-4.155,9.265-9.265v-5.693
		c0-13.635-10.17-24.93-23.496-26.532c-8.41,10.075-19.987,15.81-32.074,15.81C51.356,94.381,39.78,88.65,31.373,78.577z"/>
	<path fill="#58595B" d="M63.443,83.351c-18.605,0-33.741-18.477-33.741-41.188S44.837,0.975,63.443,0.975
		c18.603,0,33.737,18.478,33.737,41.188S82.046,83.351,63.443,83.351z M63.443,8.914c-14.227,0-25.802,14.915-25.802,33.249
		s11.575,33.249,25.802,33.249c14.225,0,25.798-14.915,25.798-33.249S77.667,8.914,63.443,8.914z"/>
	<path fill="#515254" d="M147.532,84.324c-23.248,0-42.161-18.912-42.161-42.159C105.371,18.916,124.284,0,147.532,0
		c23.247,0,42.161,18.916,42.161,42.165C189.692,65.412,170.779,84.324,147.532,84.324z M147.532,7.939
		c-18.871,0-34.222,15.353-34.222,34.226c0,18.869,15.351,34.22,34.222,34.22s34.222-15.351,34.222-34.22
		C181.753,23.292,166.402,7.939,147.532,7.939z"/>
	<path fill="#515254" d="M164.72,45.894h-17.188c-2.192,0-3.97-1.777-3.97-3.969v-26.14c0-2.192,1.777-3.969,3.97-3.969
		c2.192,0,3.969,1.777,3.969,3.969v22.17h13.219c2.192,0,3.969,1.777,3.969,3.97C168.689,44.117,166.912,45.894,164.72,45.894z"/>
</g>
</svg>
