<?xml version="1.0" encoding="utf-8"?>
<!-- Generator: Adobe Illustrator 16.0.0, SVG Export Plug-In . SVG Version: 6.00 Build 0)  -->
<!DOCTYPE svg PUBLIC "-//W3C//DTD SVG 1.1//EN" "http://www.w3.org/Graphics/SVG/1.1/DTD/svg11.dtd">
<svg version="1.1" id="Layer_1" xmlns="http://www.w3.org/2000/svg" xmlns:xlink="http://www.w3.org/1999/xlink" x="0px" y="0px"
	 width="47.423px" height="32px" viewBox="0 0 47.423 32" enable-background="new 0 0 47.423 32" xml:space="preserve">
<g>
	<path fill="#58595B" d="M27.436,32H4.302C1.93,32,0,30.07,0,27.699v-1.423c0-4.626,3.619-8.428,8.238-8.656l0.521-0.026
		l0.317,0.415c1.745,2.289,4.218,3.602,6.783,3.602s5.038-1.313,6.785-3.602l0.315-0.414l0.52,0.024
		c4.63,0.218,8.257,4.02,8.257,8.657v1.423C31.737,30.07,29.808,32,27.436,32z M7.843,19.644c-3.323,0.409-5.858,3.232-5.858,6.632
		v1.423c0,1.277,1.039,2.316,2.317,2.316h23.134c1.277,0,2.316-1.039,2.316-2.316v-1.423c0-3.409-2.542-6.232-5.874-6.633
		c-2.103,2.519-4.997,3.953-8.019,3.953C12.839,23.595,9.945,22.163,7.843,19.644z"/>
	<path fill="#58595B" d="M15.861,20.838c-4.651,0-8.436-4.62-8.436-10.297c0-5.678,3.784-10.297,8.436-10.297
		c4.65,0,8.434,4.62,8.434,10.297C24.295,16.218,20.511,20.838,15.861,20.838z M15.861,2.229c-3.557,0-6.451,3.729-6.451,8.313
		c0,4.583,2.894,8.312,6.451,8.312c3.556,0,6.449-3.729,6.449-8.312C22.31,5.957,19.417,2.229,15.861,2.229z"/>
	<path fill="#515254" d="M36.883,21.081c-5.812,0-10.54-4.728-10.54-10.54S31.071,0,36.883,0s10.54,4.729,10.54,10.541
		S42.695,21.081,36.883,21.081z M36.883,1.985c-4.718,0-8.555,3.838-8.555,8.556c0,4.717,3.837,8.555,8.555,8.555
		s8.555-3.838,8.555-8.555C45.438,5.823,41.601,1.985,36.883,1.985z"/>
	<path fill="#515254" d="M41.18,11.474h-4.297c-0.548,0-0.993-0.444-0.993-0.992V3.946c0-0.548,0.444-0.992,0.993-0.992
		c0.548,0,0.992,0.444,0.992,0.992v5.542h3.305c0.548,0,0.992,0.444,0.992,0.993C42.172,11.029,41.728,11.474,41.18,11.474z"/>
</g>
</svg>
