<?xml version="1.0" encoding="utf-8"?>
<!-- Generator: Adobe Illustrator 16.0.0, SVG Export Plug-In . SVG Version: 6.00 Build 0)  -->
<!DOCTYPE svg PUBLIC "-//W3C//DTD SVG 1.1//EN" "http://www.w3.org/Graphics/SVG/1.1/DTD/svg11.dtd">
<svg version="1.1" id="Layer_1" xmlns="http://www.w3.org/2000/svg" xmlns:xlink="http://www.w3.org/1999/xlink" x="0px" y="0px"
	 width="127.924px" height="128px" viewBox="0 0 127.924 128" enable-background="new 0 0 127.924 128" xml:space="preserve">
<g>
	<path fill="#FAA526" d="M94.451,74.031c-7.527,9.871-18.424,16.092-30.523,16.092c-12.102,0-22.996-6.221-30.525-16.092
		C17.096,74.836,4,88.428,4,104.928v5.736C4,118,10.004,124,17.34,124h93.248c7.336,0,13.336-6,13.336-13.336v-5.736
		C123.924,88.398,110.791,74.799,94.451,74.031"/>
	<path fill="#F7941E" d="M110.588,128H17.34C7.779,128,0,120.223,0,110.664v-5.736c0-18.646,14.586-33.973,33.205-34.891
		l2.102-0.105l1.275,1.674c7.039,9.227,17.006,14.518,27.346,14.518c10.342,0,20.307-5.291,27.342-14.518l1.273-1.668l2.096,0.098
		c18.664,0.877,33.285,16.203,33.285,34.893v5.736C127.924,120.223,120.146,128,110.588,128z M31.611,78.197
		C18.221,79.844,8,91.223,8,104.928v5.736c0,5.148,4.189,9.336,9.34,9.336h93.248c5.148,0,9.336-4.188,9.336-9.336v-5.736
		c0-13.74-10.248-25.121-23.676-26.736c-8.475,10.152-20.141,15.932-32.32,15.932C51.75,94.123,40.086,88.348,31.611,78.197z"/>
	<path fill="#FAA526" d="M93.924,41.504c0,20.713-13.432,37.504-29.996,37.504c-16.572,0-30-16.791-30-37.504
		C33.928,20.793,47.355,4,63.928,4C80.492,4,93.924,20.793,93.924,41.504"/>
	<path fill="#F7941E" d="M63.928,83.008c-18.748,0-34-18.619-34-41.504S45.18,0,63.928,0c18.746,0,33.996,18.619,33.996,41.504
		S82.674,83.008,63.928,83.008z M63.928,8c-14.336,0-26,15.029-26,33.504s11.664,33.504,26,33.504
		c14.334,0,25.996-15.029,25.996-33.504S78.262,8,63.928,8z"/>
</g>
</svg>
