<?xml version="1.0" encoding="utf-8"?>
<!-- Generator: Adobe Illustrator 16.0.0, SVG Export Plug-In . SVG Version: 6.00 Build 0)  -->
<!DOCTYPE svg PUBLIC "-//W3C//DTD SVG 1.1//EN" "http://www.w3.org/Graphics/SVG/1.1/DTD/svg11.dtd">
<svg version="1.1" id="Layer_1" xmlns="http://www.w3.org/2000/svg" xmlns:xlink="http://www.w3.org/1999/xlink" x="0px" y="0px"
	 width="171.487px" height="128px" viewBox="0 0 171.487 128" enable-background="new 0 0 171.487 128" xml:space="preserve">
<g>
	<path fill="#58595B" d="M104.448,128H16.377C7.347,128,0,120.654,0,111.626v-5.418c0-17.611,13.776-32.086,31.361-32.954l1.985-0.1
		l1.205,1.581c6.648,8.714,16.062,13.711,25.828,13.711c9.768,0,19.179-4.997,25.824-13.711l1.203-1.576l1.979,0.092
		c17.628,0.828,31.438,15.304,31.438,32.956v5.418C120.822,120.654,113.477,128,104.448,128z M29.856,80.962
		C17.209,82.517,7.556,93.264,7.556,106.208v5.418c0,4.863,3.957,8.818,8.821,8.818h88.071c4.863,0,8.818-3.955,8.818-8.818v-5.418
		c0-12.978-9.679-23.727-22.361-25.252C82.9,90.545,71.882,96.004,60.378,96.004C48.877,96.004,37.86,90.549,29.856,80.962z"/>
	<path fill="#58595B" d="M60.378,85.505c-17.707,0-32.112-17.585-32.112-39.2s14.405-39.2,32.112-39.2
		c17.706,0,32.109,17.585,32.109,39.2S78.084,85.505,60.378,85.505z M60.378,14.662c-13.54,0-24.557,14.195-24.557,31.644
		S46.838,77.95,60.378,77.95c13.539,0,24.553-14.195,24.553-31.644S73.917,14.662,60.378,14.662z"/>
	<path fill="#59595B" d="M139.782,31.703V4.15c0-2.293-1.859-4.15-4.152-4.15s-4.156,1.857-4.156,4.154l0.004,27.549h-27.552
		c-2.293,0-4.151,1.859-4.151,4.152s1.858,4.152,4.151,4.152h27.552V67.56c0,2.293,1.859,4.153,4.152,4.156
		c1.146-0.003,2.184-0.468,2.937-1.221c0.75-0.751,1.215-1.788,1.215-2.935V40.008l27.552,0.004c1.146,0,2.185-0.469,2.935-1.218
		c0.753-0.754,1.218-1.789,1.218-2.935c0-2.296-1.86-4.156-4.153-4.156H139.782z"/>
</g>
</svg>
