<?xml version="1.0" encoding="utf-8"?>
<!-- Generator: Adobe Illustrator 16.0.0, SVG Export Plug-In . SVG Version: 6.00 Build 0)  -->
<!DOCTYPE svg PUBLIC "-//W3C//DTD SVG 1.1//EN" "http://www.w3.org/Graphics/SVG/1.1/DTD/svg11.dtd">
<svg version="1.1" id="Layer_1" xmlns="http://www.w3.org/2000/svg" xmlns:xlink="http://www.w3.org/1999/xlink" x="0px" y="0px"
	 width="21.436px" height="16px" viewBox="0 0 21.436 16" enable-background="new 0 0 21.436 16" xml:space="preserve">
<g>
	<path fill="#58595B" d="M13.056,16H2.047C0.918,16,0,15.082,0,13.953v-0.677c0-2.202,1.722-4.011,3.92-4.12l0.248-0.012l0.15,0.197
		c0.831,1.09,2.008,1.714,3.229,1.714c1.221,0,2.397-0.624,3.228-1.714l0.15-0.197l0.248,0.012c2.203,0.104,3.93,1.913,3.93,4.12
		v0.677C15.103,15.082,14.185,16,13.056,16z M3.732,10.12c-1.581,0.194-2.788,1.538-2.788,3.156v0.677
		c0,0.608,0.495,1.103,1.103,1.103h11.009c0.608,0,1.102-0.495,1.102-1.103v-0.677c0-1.623-1.21-2.966-2.795-3.157
		C10.363,11.318,8.985,12,7.547,12C6.11,12,4.732,11.318,3.732,10.12z"/>
	<path fill="#58595B" d="M7.547,10.688c-2.213,0-4.014-2.198-4.014-4.9c0-2.702,1.801-4.9,4.014-4.9s4.014,2.198,4.014,4.9
		C11.561,8.49,9.761,10.688,7.547,10.688z M7.547,1.833c-1.692,0-3.069,1.774-3.069,3.955s1.377,3.956,3.069,3.956
		s3.069-1.774,3.069-3.956S9.24,1.833,7.547,1.833z"/>
	<path fill="#59595B" d="M17.473,3.963V0.519C17.473,0.232,17.24,0,16.954,0s-0.52,0.232-0.52,0.52l0,3.443h-3.444
		c-0.287,0-0.519,0.232-0.519,0.519s0.232,0.519,0.519,0.519h3.444v3.444c0,0.286,0.232,0.519,0.519,0.52
		c0.144-0.001,0.273-0.059,0.367-0.153c0.094-0.094,0.152-0.224,0.152-0.367V5.001l3.444,0c0.143,0,0.273-0.059,0.367-0.152
		c0.094-0.094,0.152-0.224,0.152-0.367c0-0.287-0.232-0.52-0.519-0.52H17.473z"/>
</g>
</svg>
