<?xml version="1.0" encoding="utf-8"?>
<!-- Generator: Adobe Illustrator 16.0.0, SVG Export Plug-In . SVG Version: 6.00 Build 0)  -->
<!DOCTYPE svg PUBLIC "-//W3C//DTD SVG 1.1//EN" "http://www.w3.org/Graphics/SVG/1.1/DTD/svg11.dtd">
<svg version="1.1" id="Layer_1" xmlns="http://www.w3.org/2000/svg" xmlns:xlink="http://www.w3.org/1999/xlink" x="0px" y="0px"
	 width="15.991px" height="16px" viewBox="0 0 15.991 16" enable-background="new 0 0 15.991 16" xml:space="preserve">
<g>
	<path fill="#FAA526" d="M11.807,9.254c-0.94,1.234-2.303,2.012-3.815,2.012s-2.874-0.778-3.815-2.012
		C2.138,9.354,0.5,11.054,0.5,13.116v0.717c0,0.917,0.751,1.667,1.668,1.667h11.656c0.917,0,1.667-0.75,1.667-1.667v-0.717
		C15.491,11.05,13.85,9.35,11.807,9.254"/>
	<path fill="#F7941E" d="M13.824,16H2.168C0.973,16,0,15.028,0,13.833v-0.717c0-2.331,1.823-4.247,4.151-4.361l0.263-0.014
		l0.159,0.209c0.88,1.153,2.126,1.815,3.418,1.815c1.293,0,2.538-0.662,3.418-1.815l0.159-0.208l0.262,0.012
		c2.333,0.11,4.161,2.025,4.161,4.362v0.717C15.991,15.028,15.019,16,13.824,16z M3.952,9.774C2.278,9.98,1,11.403,1,13.116v0.717
		C1,14.477,1.524,15,2.168,15h11.656c0.644,0,1.167-0.523,1.167-1.167v-0.717c0-1.718-1.281-3.141-2.96-3.342
		c-1.06,1.269-2.518,1.992-4.04,1.992S5.011,11.043,3.952,9.774z"/>
	<path fill="#FAA526" d="M11.741,5.188c0,2.589-1.68,4.688-3.75,4.688c-2.071,0-3.75-2.099-3.75-4.688
		c0-2.589,1.679-4.688,3.75-4.688C10.062,0.5,11.741,2.599,11.741,5.188"/>
	<path fill="#F7941E" d="M7.991,10.376c-2.344,0-4.25-2.327-4.25-5.188S5.647,0,7.991,0s4.25,2.327,4.25,5.188
		S10.335,10.376,7.991,10.376z M7.991,1c-1.792,0-3.25,1.879-3.25,4.188s1.458,4.188,3.25,4.188s3.25-1.879,3.25-4.188
		S9.783,1,7.991,1z"/>
</g>
</svg>
