<?xml version="1.0" encoding="utf-8"?>
<!-- Generator: Adobe Illustrator 16.0.0, SVG Export Plug-In . SVG Version: 6.00 Build 0)  -->
<!DOCTYPE svg PUBLIC "-//W3C//DTD SVG 1.1//EN" "http://www.w3.org/Graphics/SVG/1.1/DTD/svg11.dtd">
<svg version="1.1" id="Layer_1" xmlns="http://www.w3.org/2000/svg" xmlns:xlink="http://www.w3.org/1999/xlink" x="0px" y="0px"
	 width="128.002px" height="128px" viewBox="0 0 128.002 128" enable-background="new 0 0 128.002 128" xml:space="preserve">
<g>
	<path fill="#507BBE" d="M5.412,128C2.428,128,0,125.564,0,122.57V56.129c0-6.137,4.939-11.131,11.012-11.131h60.98
		c6.072,0,11.012,4.994,11.012,11.131v41.992c0,6.139-4.939,11.133-11.012,11.133H24.621L9.369,126.25
		C8.227,127.424,6.863,128,5.412,128z M11.012,52.998C9.352,52.998,8,54.402,8,56.129v59.674l10.924-12.172
		c1.508-1.555,3.455-2.377,5.453-2.377h47.615c1.66,0,3.012-1.406,3.012-3.133V56.129c0-1.727-1.352-3.131-3.012-3.131H11.012z"/>
	<path fill="#507BBE" d="M122.592,83.004c-1.414,0-2.799-0.559-3.836-1.613L103.381,64.26h-9.387c-2.209,0-4-1.791-4-4s1.791-4,4-4
		h9.627c2.012,0,3.904,0.793,5.326,2.23l11.055,12.318V11.135c0-1.729-1.352-3.135-3.012-3.135H56.01
		c-1.66,0-3.012,1.406-3.012,3.135v22.873c0,2.209-1.791,4-4,4s-4-1.791-4-4V11.135C44.998,4.994,49.938,0,56.01,0h60.98
		c6.072,0,11.012,4.994,11.012,11.135v66.441c0,2.215-1.32,4.186-3.363,5.023C123.975,82.871,123.279,83.004,122.592,83.004z"/>
</g>
</svg>
