<?xml version="1.0" encoding="utf-8"?>
<!-- Generator: Adobe Illustrator 16.0.0, SVG Export Plug-In . SVG Version: 6.00 Build 0)  -->
<!DOCTYPE svg PUBLIC "-//W3C//DTD SVG 1.1//EN" "http://www.w3.org/Graphics/SVG/1.1/DTD/svg11.dtd">
<svg version="1.1" id="Layer_1" xmlns="http://www.w3.org/2000/svg" xmlns:xlink="http://www.w3.org/1999/xlink" x="0px" y="0px"
	 width="16px" height="16px" viewBox="0 0 16 16" enable-background="new 0 0 16 16" xml:space="preserve">
<g>
	<path fill="#507BBE" d="M0.676,16C0.303,16,0,15.695,0,15.321V7.016c0-0.767,0.617-1.391,1.376-1.391h7.623
		c0.759,0,1.376,0.624,1.376,1.391v5.249c0,0.767-0.618,1.392-1.376,1.392H3.078l-1.907,2.125C1.028,15.928,0.858,16,0.676,16z
		 M1.376,6.625C1.169,6.625,1,6.8,1,7.016v7.459l1.365-1.521c0.188-0.194,0.432-0.297,0.682-0.297h5.952
		c0.208,0,0.376-0.176,0.376-0.392V7.016c0-0.216-0.169-0.391-0.376-0.391H1.376z"/>
	<path fill="#507BBE" d="M15.324,10.375c-0.177,0-0.35-0.07-0.479-0.202l-1.922-2.142h-1.173c-0.276,0-0.5-0.224-0.5-0.5
		c0-0.276,0.224-0.5,0.5-0.5h1.204c0.251,0,0.488,0.1,0.666,0.279L15,8.851V1.392C15,1.176,14.831,1,14.624,1H7.001
		C6.793,1,6.625,1.176,6.625,1.392v2.859c0,0.276-0.224,0.5-0.5,0.5c-0.276,0-0.5-0.224-0.5-0.5V1.392C5.625,0.624,6.242,0,7.001,0
		h7.623C15.383,0,16,0.624,16,1.392v8.306c0,0.276-0.165,0.523-0.42,0.628C15.497,10.359,15.41,10.375,15.324,10.375z"/>
</g>
</svg>
