<?xml version="1.0" encoding="utf-8"?>
<!-- Generator: Adobe Illustrator 16.0.0, SVG Export Plug-In . SVG Version: 6.00 Build 0)  -->
<!DOCTYPE svg PUBLIC "-//W3C//DTD SVG 1.1//EN" "http://www.w3.org/Graphics/SVG/1.1/DTD/svg11.dtd">
<svg version="1.1" id="Layer_1" xmlns="http://www.w3.org/2000/svg" xmlns:xlink="http://www.w3.org/1999/xlink" x="0px" y="0px"
	 width="32px" height="32px" viewBox="0 0 32 32" enable-background="new 0 0 32 32" xml:space="preserve">
<g>
	<path fill="#A7A9AC" d="M1.353,32C0.606,32,0,31.391,0,30.643v-16.61c0-1.534,1.234-2.783,2.753-2.783h15.245
		c1.518,0,2.753,1.249,2.753,2.783V24.53c0,1.535-1.235,2.783-2.753,2.783H6.155l-3.813,4.249C2.057,31.856,1.716,32,1.353,32z
		 M2.753,13.25C2.338,13.25,2,13.601,2,14.032v14.918l2.73-3.043c0.377-0.389,0.864-0.594,1.363-0.594h11.904
		c0.415,0,0.753-0.352,0.753-0.783V14.032c0-0.432-0.338-0.783-0.753-0.783H2.753z"/>
	<path fill="#A7A9AC" d="M30.647,20.751c-0.354,0-0.699-0.14-0.959-0.403l-3.844-4.283h-2.347c-0.552,0-1-0.448-1-1s0.448-1,1-1
		h2.407c0.503,0,0.976,0.198,1.331,0.558L30,17.702V2.784C30,2.352,29.662,2,29.247,2H14.002c-0.415,0-0.753,0.352-0.753,0.784
		v5.718c0,0.552-0.447,1-1,1c-0.552,0-1-0.448-1-1V2.784C11.249,1.249,12.484,0,14.002,0h15.245C30.766,0,32,1.249,32,2.784v16.61
		c0,0.554-0.33,1.046-0.841,1.256C30.993,20.718,30.819,20.751,30.647,20.751z"/>
</g>
</svg>
