<?xml version="1.0" encoding="utf-8"?>
<!-- Generator: Adobe Illustrator 16.0.0, SVG Export Plug-In . SVG Version: 6.00 Build 0)  -->
<!DOCTYPE svg PUBLIC "-//W3C//DTD SVG 1.1//EN" "http://www.w3.org/Graphics/SVG/1.1/DTD/svg11.dtd">
<svg version="1.1" id="Layer_1" xmlns="http://www.w3.org/2000/svg" xmlns:xlink="http://www.w3.org/1999/xlink" x="0px" y="0px"
	 width="45.438px" height="32px" viewBox="0 0 45.438 32" enable-background="new 0 0 45.438 32" xml:space="preserve">
<g>
	<path fill="#515254" d="M41.178,32H4.26C1.911,32,0,30.089,0,27.74V4.26C0,1.911,1.911,0,4.26,0h36.918
		c2.349,0,4.26,1.911,4.26,4.26v23.48C45.438,30.089,43.527,32,41.178,32z M4.26,2.84c-0.783,0-1.42,0.637-1.42,1.42v23.48
		c0,0.783,0.637,1.42,1.42,1.42h36.918c0.783,0,1.42-0.637,1.42-1.42V4.26c0-0.783-0.637-1.42-1.42-1.42H4.26z"/>
	<path fill="#515254" d="M22.718,19.951c-1.341,0-2.681-0.504-3.726-1.512L3.094,3.104c-0.564-0.544-0.58-1.443-0.036-2.008
		c0.545-0.563,1.444-0.579,2.008-0.036l15.898,15.334c0.983,0.95,2.524,0.948,3.506,0.001L40.692,0.752
		c0.565-0.543,1.464-0.527,2.008,0.036c0.544,0.565,0.528,1.464-0.036,2.008L26.442,18.44
		C25.397,19.447,24.057,19.951,22.718,19.951z"/>
	<path fill="#515254" d="M1.421,26.742c-0.46,0-0.912-0.223-1.185-0.635c-0.433-0.653-0.254-1.535,0.399-1.968l15.201-10.076
		c0.655-0.436,1.536-0.254,1.968,0.399c0.433,0.654,0.254,1.535-0.399,1.968l-15.2,10.076C1.963,26.666,1.69,26.742,1.421,26.742z"
		/>
	<path fill="#515254" d="M44.017,26.809c-0.269,0-0.541-0.077-0.782-0.236l-15.087-9.978c-0.654-0.433-0.833-1.313-0.401-1.968
		c0.432-0.654,1.313-0.833,1.968-0.4l15.087,9.978c0.654,0.433,0.833,1.313,0.401,1.968C44.929,26.584,44.478,26.809,44.017,26.809z
		"/>
</g>
</svg>
