<?xml version="1.0" encoding="utf-8"?>
<!-- Generator: Adobe Illustrator 16.0.0, SVG Export Plug-In . SVG Version: 6.00 Build 0)  -->
<!DOCTYPE svg PUBLIC "-//W3C//DTD SVG 1.1//EN" "http://www.w3.org/Graphics/SVG/1.1/DTD/svg11.dtd">
<svg version="1.1" id="Layer_1" xmlns="http://www.w3.org/2000/svg" xmlns:xlink="http://www.w3.org/1999/xlink" x="0px" y="0px"
	 width="165.5px" height="128px" viewBox="0 0 165.5 128" enable-background="new 0 0 165.5 128" xml:space="preserve">
<g>
	<path fill="#515254" d="M126.492,128H13.085C5.87,128,0,122.13,0,114.915V42.79c0-7.216,5.87-13.085,13.085-13.085h113.407
		c7.216,0,13.085,5.87,13.085,13.085v72.125C139.578,122.13,133.708,128,126.492,128z M13.085,38.428
		c-2.404,0-4.361,1.957-4.361,4.362v72.125c0,2.405,1.957,4.362,4.361,4.362h113.407c2.405,0,4.362-1.957,4.362-4.362V42.79
		c0-2.405-1.957-4.362-4.362-4.362H13.085z"/>
	<path fill="#515254" d="M69.785,90.986c-4.119,0-8.236-1.548-11.445-4.643L9.503,39.239c-1.733-1.672-1.783-4.434-0.111-6.168
		c1.676-1.729,4.434-1.778,6.168-0.111l48.836,47.104c3.02,2.914,7.752,2.914,10.772,0.004L125,32.015
		c1.736-1.668,4.496-1.619,6.168,0.11c1.672,1.736,1.623,4.496-0.111,6.168L81.224,86.348C78.017,89.44,73.899,90.986,69.785,90.986
		z"/>
	<path fill="#515254" d="M4.366,111.848c-1.414,0-2.8-0.686-3.64-1.953c-1.331-2.006-0.782-4.713,1.225-6.044L48.647,72.9
		c2.01-1.335,4.715-0.784,6.044,1.227c1.331,2.006,0.782,4.713-1.225,6.044l-46.695,30.95C6.03,111.613,5.193,111.848,4.366,111.848
		z"/>
	<path fill="#515254" d="M135.212,112.054c-0.827,0-1.662-0.234-2.403-0.724L86.465,80.678c-2.008-1.329-2.56-4.034-1.231-6.044
		c1.327-2.01,4.032-2.56,6.044-1.231l46.344,30.652c2.008,1.329,2.56,4.034,1.231,6.044
		C138.015,111.366,136.626,112.054,135.212,112.054z"/>
	<path fill="#EF3C3A" d="M161.138,37.471c0,18.284-14.821,33.11-33.112,33.11c-18.284,0-33.105-14.826-33.105-33.11
		s14.821-33.109,33.105-33.109C146.316,4.362,161.138,19.187,161.138,37.471"/>
	<path fill="#BE1E2D" d="M128.026,74.943c-20.659,0-37.467-16.811-37.467-37.472C90.559,16.811,107.367,0,128.026,0
		C148.689,0,165.5,16.811,165.5,37.471C165.5,58.132,148.689,74.943,128.026,74.943z M128.026,8.724
		c-15.85,0-28.744,12.896-28.744,28.748c0,15.852,12.894,28.748,28.744,28.748c15.852,0,28.75-12.896,28.75-28.748
		C156.776,21.62,143.878,8.724,128.026,8.724z"/>
</g>
</svg>
