<?xml version="1.0" encoding="utf-8"?>
<!-- Generator: Adobe Illustrator 16.0.0, SVG Export Plug-In . SVG Version: 6.00 Build 0)  -->
<!DOCTYPE svg PUBLIC "-//W3C//DTD SVG 1.1//EN" "http://www.w3.org/Graphics/SVG/1.1/DTD/svg11.dtd">
<svg version="1.1" id="Layer_1" xmlns="http://www.w3.org/2000/svg" xmlns:xlink="http://www.w3.org/1999/xlink" x="0px" y="0px"
	 width="41.375px" height="32px" viewBox="0 0 41.375 32" enable-background="new 0 0 41.375 32" xml:space="preserve">
<g>
	<path fill="#515254" d="M31.623,32H3.271C1.467,32,0,30.533,0,28.729V10.697c0-1.804,1.467-3.271,3.271-3.271h28.352
		c1.804,0,3.271,1.467,3.271,3.271v18.031C34.894,30.533,33.427,32,31.623,32z M3.271,9.607c-0.601,0-1.09,0.489-1.09,1.09v18.031
		c0,0.601,0.489,1.09,1.09,1.09h28.352c0.601,0,1.09-0.489,1.09-1.09V10.697c0-0.601-0.489-1.09-1.09-1.09H3.271z"/>
	<path fill="#515254" d="M17.446,22.747c-1.03,0-2.059-0.387-2.861-1.161L2.375,9.81C1.942,9.392,1.93,8.701,2.348,8.268
		C2.767,7.835,3.457,7.823,3.89,8.24l12.209,11.776c0.755,0.729,1.938,0.729,2.693,0.001L31.25,8.004
		c0.434-0.417,1.124-0.405,1.542,0.027c0.418,0.434,0.406,1.124-0.027,1.542L20.306,21.587
		C19.504,22.36,18.475,22.747,17.446,22.747z"/>
	<path fill="#515254" d="M1.091,27.962c-0.354,0-0.7-0.171-0.91-0.488c-0.333-0.501-0.196-1.178,0.306-1.511l11.674-7.737
		c0.502-0.334,1.179-0.196,1.511,0.307c0.333,0.501,0.196,1.178-0.306,1.511L1.692,27.78C1.507,27.903,1.298,27.962,1.091,27.962z"
		/>
	<path fill="#515254" d="M33.803,28.014c-0.207,0-0.416-0.059-0.601-0.181l-11.586-7.663c-0.502-0.332-0.64-1.008-0.308-1.511
		c0.332-0.503,1.008-0.64,1.511-0.308l11.586,7.663c0.502,0.333,0.64,1.008,0.308,1.511C34.503,27.841,34.156,28.014,33.803,28.014z
		"/>
	<path fill="#EF3C3A" d="M40.284,9.368c0,4.571-3.705,8.277-8.278,8.277c-4.571,0-8.276-3.706-8.276-8.277
		c0-4.571,3.705-8.277,8.276-8.277C36.579,1.09,40.284,4.797,40.284,9.368"/>
	<path fill="#BE1E2D" d="M32.006,18.736c-5.165,0-9.367-4.203-9.367-9.368C22.64,4.203,26.841,0,32.006,0
		c5.166,0,9.368,4.203,9.368,9.368C41.375,14.533,37.172,18.736,32.006,18.736z M32.006,2.181c-3.962,0-7.186,3.224-7.186,7.187
		s3.224,7.187,7.186,7.187c3.963,0,7.188-3.224,7.188-7.187S35.969,2.181,32.006,2.181z"/>
</g>
</svg>
