<?xml version="1.0" encoding="utf-8"?>
<!-- Generator: Adobe Illustrator 16.0.0, SVG Export Plug-In . SVG Version: 6.00 Build 0)  -->
<!DOCTYPE svg PUBLIC "-//W3C//DTD SVG 1.1//EN" "http://www.w3.org/Graphics/SVG/1.1/DTD/svg11.dtd">
<svg version="1.1" id="Layer_1" xmlns="http://www.w3.org/2000/svg" xmlns:xlink="http://www.w3.org/1999/xlink" x="0px" y="0px"
	 width="20.687px" height="16px" viewBox="0 0 20.687 16" enable-background="new 0 0 20.687 16" xml:space="preserve">
<g>
	<path fill="#515254" d="M15.812,16H1.635C0.733,16,0,15.267,0,14.364V5.349c0-0.902,0.733-1.636,1.635-1.636h14.176
		c0.902,0,1.635,0.734,1.635,1.636v9.016C17.447,15.267,16.713,16,15.812,16z M1.635,4.804c-0.3,0-0.545,0.244-0.545,0.545v9.016
		c0,0.301,0.245,0.545,0.545,0.545h14.176c0.3,0,0.545-0.244,0.545-0.545V5.349c0-0.301-0.245-0.545-0.545-0.545H1.635z"/>
	<path fill="#515254" d="M8.723,11.373c-0.515,0-1.029-0.193-1.431-0.58L1.188,4.905C0.971,4.696,0.965,4.351,1.174,4.134
		C1.383,3.918,1.728,3.912,1.945,4.12l6.104,5.888c0.377,0.364,0.969,0.364,1.347,0.001l6.229-6.007
		c0.217-0.208,0.562-0.202,0.771,0.014c0.209,0.217,0.203,0.562-0.014,0.771l-6.229,6.007C9.752,11.18,9.237,11.373,8.723,11.373z"
		/>
	<path fill="#515254" d="M0.545,13.981c-0.177,0-0.35-0.085-0.455-0.244c-0.167-0.25-0.098-0.589,0.153-0.755l5.837-3.869
		C6.332,8.945,6.67,9.015,6.836,9.266c0.167,0.251,0.098,0.589-0.153,0.756L0.846,13.89C0.753,13.952,0.649,13.981,0.545,13.981z"/>
	<path fill="#515254" d="M16.901,14.007c-0.104,0-0.208-0.029-0.3-0.091l-5.793-3.831c-0.251-0.166-0.32-0.504-0.154-0.756
		c0.166-0.251,0.504-0.32,0.755-0.154l5.793,3.832c0.251,0.166,0.32,0.504,0.154,0.756C17.251,13.921,17.078,14.007,16.901,14.007z"
		/>
	<path fill="#EF3C3A" d="M20.142,4.684c0,2.286-1.853,4.139-4.139,4.139c-2.286,0-4.138-1.853-4.138-4.139
		c0-2.285,1.853-4.139,4.138-4.139C18.29,0.545,20.142,2.398,20.142,4.684"/>
	<path fill="#BE1E2D" d="M16.003,9.368c-2.583,0-4.683-2.102-4.683-4.685C11.32,2.102,13.42,0,16.003,0
		c2.583,0,4.684,2.102,4.684,4.684C20.687,7.267,18.586,9.368,16.003,9.368z M16.003,1.091c-1.981,0-3.593,1.611-3.593,3.593
		s1.612,3.594,3.593,3.594c1.981,0,3.594-1.612,3.594-3.594S17.984,1.091,16.003,1.091z"/>
</g>
</svg>
