<?xml version="1.0" encoding="utf-8"?>
<!-- Generator: Adobe Illustrator 16.0.0, SVG Export Plug-In . SVG Version: 6.00 Build 0)  -->
<!DOCTYPE svg PUBLIC "-//W3C//DTD SVG 1.1//EN" "http://www.w3.org/Graphics/SVG/1.1/DTD/svg11.dtd">
<svg version="1.1" id="Layer_1" xmlns="http://www.w3.org/2000/svg" xmlns:xlink="http://www.w3.org/1999/xlink" x="0px" y="0px"
	 width="181.753px" height="128px" viewBox="0 0 181.753 128" enable-background="new 0 0 181.753 128" xml:space="preserve">
<g>
	<path fill="#515254" d="M164.714,128H17.04C7.644,128,0,120.357,0,110.961V17.039C0,7.643,7.644,0,17.04,0h147.674
		c9.396,0,17.04,7.643,17.04,17.039v93.922C181.753,120.357,174.11,128,164.714,128z M17.04,11.359c-3.131,0-5.68,2.549-5.68,5.68
		v93.922c0,3.131,2.548,5.68,5.68,5.68h147.674c3.131,0,5.68-2.549,5.68-5.68V17.039c0-3.131-2.548-5.68-5.68-5.68H17.04z"/>
	<path fill="#515254" d="M90.872,79.802c-5.364,0-10.725-2.016-14.904-6.048L12.375,12.419c-2.258-2.177-2.321-5.774-0.145-8.032
		c2.18-2.252,5.774-2.315,8.032-0.144l63.592,61.335c3.933,3.799,10.098,3.794,14.024,0.005L162.77,3.009
		c2.26-2.172,5.854-2.108,8.031,0.144c2.177,2.26,2.113,5.854-0.144,8.031l-64.89,62.575C101.59,77.789,96.229,79.802,90.872,79.802
		z"/>
	<path fill="#515254" d="M5.686,106.967c-1.842,0-3.647-0.893-4.74-2.541c-1.733-2.615-1.018-6.14,1.595-7.874l60.802-40.305
		c2.621-1.745,6.143-1.018,7.874,1.595c1.733,2.615,1.018,6.14-1.595,7.874L8.82,106.021C7.852,106.662,6.762,106.967,5.686,106.967
		z"/>
	<path fill="#515254" d="M176.068,107.233c-1.076,0-2.163-0.305-3.128-0.943l-60.347-39.911c-2.615-1.73-3.334-5.252-1.603-7.871
		c1.728-2.618,5.25-3.333,7.871-1.603l60.348,39.911c2.615,1.73,3.333,5.252,1.603,7.871
		C179.718,106.337,177.91,107.233,176.068,107.233z"/>
</g>
</svg>
