<?xml version="1.0" encoding="utf-8"?>
<!-- Generator: Adobe Illustrator 16.0.0, SVG Export Plug-In . SVG Version: 6.00 Build 0)  -->
<!DOCTYPE svg PUBLIC "-//W3C//DTD SVG 1.1//EN" "http://www.w3.org/Graphics/SVG/1.1/DTD/svg11.dtd">
<svg version="1.1" id="Layer_1" xmlns="http://www.w3.org/2000/svg" xmlns:xlink="http://www.w3.org/1999/xlink" x="0px" y="0px"
	 width="158.73px" height="128px" viewBox="0 0 158.73 128" enable-background="new 0 0 158.73 128" xml:space="preserve">
<g>
	<path fill="#515254" d="M121.359,128H35.646c-8.792,0-15.943-7.149-15.943-15.938v-5.28c0-17.134,13.41-31.22,30.528-32.065
		l1.932-0.095l1.172,1.538c6.468,8.481,15.628,13.345,25.13,13.345c9.504,0,18.667-4.864,25.139-13.345l1.17-1.534l1.927,0.091
		c17.154,0.803,30.593,14.888,30.593,32.065v5.28C137.294,120.851,130.146,128,121.359,128z M48.765,82.22
		c-12.31,1.512-21.707,11.969-21.707,24.561v5.28c0,4.732,3.853,8.583,8.587,8.583h85.714c4.73,0,8.579-3.85,8.579-8.583v-5.28
		c0-12.626-9.419-23.086-21.758-24.567c-7.794,9.333-18.519,14.645-29.714,14.645C67.273,96.859,56.554,91.549,48.765,82.22z"/>
	<path fill="#515254" d="M78.47,86.636c-17.233,0-31.253-17.113-31.253-38.145c0-21.037,14.02-38.151,31.253-38.151
		c17.231,0,31.249,17.115,31.249,38.151C109.719,69.523,95.701,86.636,78.47,86.636z M78.47,17.696
		c-13.178,0-23.897,13.814-23.897,30.796c0,16.977,10.719,30.789,23.897,30.789c13.176,0,23.894-13.812,23.894-30.789
		C102.363,31.51,91.646,17.696,78.47,17.696z"/>
	<path fill="#515254" d="M155.053,93.44c-2.03,0-3.678-1.647-3.678-3.678v-4.628c0-10.776-7.978-19.719-18.472-21.103
		c-1.326,1.571-2.755,3.024-4.265,4.334c-1.538,1.332-3.858,1.164-5.188-0.365c-1.332-1.534-1.169-3.856,0.365-5.188
		c1.633-1.42,3.157-3.049,4.523-4.844l1.17-1.536l1.929,0.09c15.304,0.723,27.292,13.29,27.292,28.612v4.628
		C158.73,91.793,157.083,93.44,155.053,93.44z"/>
	<path fill="#515254" d="M125,57.339c-0.717,0-1.441-0.21-2.078-0.646c-1.675-1.15-2.099-3.44-0.95-5.113
		c3.346-4.874,5.189-11.136,5.189-17.634c0-14.663-9.209-26.591-20.531-26.591c-2.03,0-3.678-1.648-3.678-3.678S104.6,0,106.63,0
		c15.376,0,27.887,15.228,27.887,33.947c0,7.968-2.301,15.709-6.481,21.796C127.322,56.782,126.172,57.339,125,57.339z"/>
	<path fill="#515254" d="M3.678,93.44C1.647,93.44,0,91.793,0,89.763v-4.628c0-15.322,11.988-27.889,27.292-28.612l1.929-0.09
		l1.17,1.536c1.366,1.795,2.89,3.424,4.523,4.844c1.534,1.332,1.697,3.654,0.365,5.188c-1.331,1.529-3.652,1.697-5.188,0.365
		c-1.509-1.31-2.939-2.763-4.265-4.334C15.334,65.416,7.355,74.358,7.355,85.134v4.628C7.355,91.793,5.708,93.44,3.678,93.44z"/>
	<path fill="#515254" d="M33.734,57.339c-1.17,0-2.321-0.558-3.033-1.594c-4.185-6.085-6.488-13.826-6.488-21.798
		C24.213,15.228,36.724,0,52.1,0c2.03,0,3.678,1.647,3.678,3.678S54.13,7.356,52.1,7.356c-11.322,0-20.531,11.928-20.531,26.591
		c0,6.498,1.844,12.76,5.192,17.631c1.151,1.673,0.726,3.963-0.947,5.113C35.178,57.129,34.452,57.339,33.734,57.339z"/>
</g>
</svg>
