<?xml version="1.0" encoding="utf-8"?>
<!-- Generator: Adobe Illustrator 16.0.0, SVG Export Plug-In . SVG Version: 6.00 Build 0)  -->
<!DOCTYPE svg PUBLIC "-//W3C//DTD SVG 1.1//EN" "http://www.w3.org/Graphics/SVG/1.1/DTD/svg11.dtd">
<svg version="1.1" id="Layer_1" xmlns="http://www.w3.org/2000/svg" xmlns:xlink="http://www.w3.org/1999/xlink" x="0px" y="0px"
	 width="19.841px" height="16px" viewBox="0 0 19.841 16" enable-background="new 0 0 19.841 16" xml:space="preserve">
<g>
	<path fill="#FFFFFF" d="M15.17,16H4.455c-1.099,0-1.992-0.894-1.992-1.992v-0.66c0-2.142,1.676-3.903,3.815-4.009l0.242-0.012
		L6.667,9.52c0.809,1.06,1.953,1.668,3.142,1.668c1.188,0,2.333-0.608,3.142-1.668l0.146-0.191l0.241,0.011
		c2.144,0.101,3.824,1.861,3.824,4.009v0.66C17.161,15.106,16.268,16,15.17,16z M6.095,10.277c-1.539,0.189-2.713,1.497-2.713,3.071
		v0.66c0,0.591,0.481,1.073,1.073,1.073H15.17c0.591,0,1.072-0.481,1.072-1.073v-0.66c0-1.579-1.178-2.886-2.72-3.071
		c-0.975,1.167-2.315,1.831-3.714,1.831C8.409,12.107,7.069,11.443,6.095,10.277z"/>
	<path fill="#FFFFFF" d="M9.809,10.83c-2.154,0-3.907-2.139-3.907-4.768c0-2.63,1.752-4.769,3.907-4.769
		c2.154,0,3.906,2.139,3.906,4.769C13.715,8.69,11.962,10.83,9.809,10.83z M9.809,2.212c-1.647,0-2.987,1.727-2.987,3.85
		c0,2.122,1.34,3.849,2.987,3.849c1.646,0,2.986-1.727,2.986-3.849C12.795,3.938,11.455,2.212,9.809,2.212z"/>
	<path fill="#FFFFFF" d="M19.381,11.68c-0.253,0-0.459-0.206-0.459-0.46v-0.579c0-1.347-0.998-2.464-2.31-2.638
		C16.447,8.2,16.269,8.381,16.08,8.546c-0.192,0.167-0.483,0.146-0.648-0.046c-0.167-0.191-0.146-0.482,0.045-0.648
		c0.205-0.178,0.396-0.382,0.565-0.605l0.146-0.192l0.241,0.012c1.913,0.09,3.411,1.661,3.411,3.576v0.579
		C19.841,11.474,19.635,11.68,19.381,11.68z"/>
	<path fill="#FFFFFF" d="M15.625,7.167c-0.09,0-0.181-0.026-0.26-0.081c-0.21-0.144-0.263-0.43-0.119-0.639
		c0.418-0.609,0.649-1.392,0.649-2.204c0-1.833-1.151-3.324-2.566-3.324c-0.254,0-0.459-0.206-0.459-0.459
		c0-0.254,0.206-0.46,0.459-0.46c1.922,0,3.486,1.903,3.486,4.243c0,0.996-0.288,1.964-0.811,2.725
		C15.915,7.098,15.771,7.167,15.625,7.167z"/>
	<path fill="#FFFFFF" d="M0.459,11.68C0.206,11.68,0,11.474,0,11.22v-0.579c0-1.915,1.498-3.486,3.411-3.576l0.241-0.012
		l0.146,0.192c0.17,0.224,0.36,0.427,0.565,0.605C4.556,8.018,4.576,8.309,4.41,8.5C4.244,8.691,3.953,8.712,3.761,8.546
		C3.572,8.381,3.394,8.2,3.229,8.004c-1.312,0.173-2.31,1.291-2.31,2.638v0.579C0.919,11.474,0.713,11.68,0.459,11.68z"/>
	<path fill="#FFFFFF" d="M4.217,7.167c-0.146,0-0.29-0.069-0.379-0.199C3.314,6.207,3.026,5.24,3.026,4.243
		C3.026,1.903,4.59,0,6.512,0c0.254,0,0.459,0.206,0.459,0.46c0,0.253-0.206,0.459-0.459,0.459c-1.416,0-2.566,1.491-2.566,3.324
		c0,0.813,0.23,1.595,0.649,2.204c0.144,0.209,0.091,0.495-0.118,0.639C4.397,7.141,4.306,7.167,4.217,7.167z"/>
</g>
</svg>
