<?xml version="1.0" encoding="utf-8"?>
<!-- Generator: Adobe Illustrator 16.0.0, SVG Export Plug-In . SVG Version: 6.00 Build 0)  -->
<!DOCTYPE svg PUBLIC "-//W3C//DTD SVG 1.1//EN" "http://www.w3.org/Graphics/SVG/1.1/DTD/svg11.dtd">
<svg version="1.1" id="Layer_1" xmlns="http://www.w3.org/2000/svg" xmlns:xlink="http://www.w3.org/1999/xlink" x="0px" y="0px"
	 width="19.842px" height="16px" viewBox="0 0 19.842 16" enable-background="new 0 0 19.842 16" xml:space="preserve">
<g>
	<path fill="#515254" d="M15.17,16H4.456c-1.099,0-1.993-0.894-1.993-1.992v-0.66c0-2.142,1.676-3.902,3.816-4.008l0.241-0.012
		L6.667,9.52c0.809,1.061,1.954,1.668,3.142,1.668s2.333-0.608,3.142-1.668l0.146-0.191l0.241,0.011
		c2.145,0.101,3.824,1.861,3.824,4.008v0.66C17.162,15.106,16.269,16,15.17,16z M6.096,10.277c-1.539,0.189-2.713,1.496-2.713,3.07
		v0.66c0,0.591,0.481,1.073,1.073,1.073H15.17c0.592,0,1.072-0.481,1.072-1.073v-0.66c0-1.578-1.177-2.886-2.72-3.071
		c-0.974,1.167-2.314,1.831-3.714,1.831S7.069,11.443,6.096,10.277z"/>
	<path fill="#515254" d="M9.809,10.83c-2.154,0-3.907-2.139-3.907-4.768c0-2.63,1.752-4.769,3.907-4.769
		c2.154,0,3.906,2.139,3.906,4.769C13.715,8.69,11.963,10.83,9.809,10.83z M9.809,2.212c-1.647,0-2.987,1.727-2.987,3.85
		c0,2.122,1.34,3.849,2.987,3.849c1.647,0,2.987-1.727,2.987-3.849C12.796,3.938,11.456,2.212,9.809,2.212z"/>
	<path fill="#515254" d="M19.382,11.68c-0.254,0-0.46-0.206-0.46-0.46v-0.579c0-1.347-0.997-2.465-2.309-2.638
		C16.447,8.2,16.269,8.382,16.08,8.546c-0.192,0.166-0.482,0.146-0.648-0.046c-0.167-0.191-0.146-0.482,0.046-0.648
		c0.204-0.178,0.395-0.381,0.565-0.605l0.146-0.192l0.241,0.012c1.913,0.09,3.412,1.661,3.412,3.576v0.579
		C19.842,11.474,19.636,11.68,19.382,11.68z"/>
	<path fill="#515254" d="M15.625,7.167c-0.089,0-0.18-0.026-0.26-0.081c-0.209-0.144-0.262-0.43-0.118-0.64
		c0.418-0.609,0.648-1.392,0.648-2.204c0-1.833-1.151-3.324-2.566-3.324c-0.254,0-0.46-0.206-0.46-0.459
		c0-0.254,0.206-0.46,0.46-0.46c1.922,0,3.486,1.903,3.486,4.243c0,0.996-0.288,1.964-0.81,2.725
		C15.916,7.098,15.771,7.167,15.625,7.167z"/>
	<path fill="#515254" d="M0.46,11.68C0.206,11.68,0,11.474,0,11.22v-0.579c0-1.915,1.499-3.486,3.412-3.576l0.241-0.012l0.146,0.192
		C3.97,7.47,4.16,7.674,4.364,7.852C4.557,8.018,4.577,8.309,4.41,8.5C4.244,8.691,3.954,8.712,3.762,8.546
		C3.573,8.382,3.395,8.2,3.229,8.004C1.917,8.177,0.92,9.295,0.92,10.642v0.579C0.92,11.474,0.714,11.68,0.46,11.68z"/>
	<path fill="#515254" d="M4.217,7.167c-0.146,0-0.29-0.07-0.379-0.199C3.314,6.208,3.027,5.24,3.027,4.243
		C3.027,1.903,4.591,0,6.513,0c0.254,0,0.46,0.206,0.46,0.46c0,0.253-0.206,0.459-0.46,0.459c-1.415,0-2.566,1.491-2.566,3.324
		c0,0.813,0.23,1.595,0.649,2.204c0.144,0.209,0.091,0.495-0.118,0.639C4.397,7.141,4.307,7.167,4.217,7.167z"/>
</g>
</svg>
