<?xml version="1.0" encoding="utf-8"?>
<!-- Generator: Adobe Illustrator 16.0.0, SVG Export Plug-In . SVG Version: 6.00 Build 0)  -->
<!DOCTYPE svg PUBLIC "-//W3C//DTD SVG 1.1//EN" "http://www.w3.org/Graphics/SVG/1.1/DTD/svg11.dtd">
<svg version="1.1" id="Layer_1" xmlns="http://www.w3.org/2000/svg" xmlns:xlink="http://www.w3.org/1999/xlink" x="0px" y="0px"
	 width="39.683px" height="32px" viewBox="0 0 39.683 32" enable-background="new 0 0 39.683 32" xml:space="preserve">
<g>
	<path fill="#515254" d="M30.34,32H8.912c-2.198,0-3.986-1.787-3.986-3.984v-1.32c0-4.284,3.352-7.805,7.632-8.017l0.483-0.023
		l0.293,0.384c1.617,2.121,3.907,3.336,6.283,3.336s4.667-1.216,6.284-3.336l0.293-0.383l0.481,0.022
		c4.289,0.201,7.648,3.722,7.648,8.017v1.32C34.324,30.213,32.537,32,30.34,32z M12.191,20.555c-3.077,0.378-5.426,2.992-5.426,6.14
		v1.32c0,1.183,0.963,2.146,2.147,2.146H30.34c1.183,0,2.145-0.963,2.145-2.146v-1.32c0-3.157-2.355-5.771-5.439-6.142
		c-1.949,2.333-4.63,3.661-7.428,3.661S14.138,22.887,12.191,20.555z"/>
	<path fill="#515254" d="M19.618,21.659c-4.309,0-7.813-4.278-7.813-9.536c0-5.259,3.505-9.538,7.813-9.538
		c4.308,0,7.812,4.279,7.812,9.538C27.43,17.381,23.925,21.659,19.618,21.659z M19.618,4.424c-3.295,0-5.975,3.454-5.975,7.699
		c0,4.244,2.68,7.697,5.975,7.697c3.294,0,5.973-3.453,5.973-7.697C25.591,7.877,22.912,4.424,19.618,4.424z"/>
	<path fill="#515254" d="M38.763,23.36c-0.508,0-0.919-0.412-0.919-0.92v-1.157c0-2.694-1.995-4.93-4.618-5.276
		c-0.332,0.393-0.689,0.756-1.066,1.083c-0.385,0.333-0.965,0.291-1.297-0.091c-0.333-0.383-0.292-0.964,0.091-1.297
		c0.408-0.355,0.789-0.763,1.131-1.211l0.292-0.384l0.482,0.023c3.826,0.181,6.823,3.322,6.823,7.153v1.157
		C39.683,22.948,39.271,23.36,38.763,23.36z"/>
	<path fill="#515254" d="M31.25,14.335c-0.179,0-0.36-0.053-0.52-0.162c-0.418-0.288-0.525-0.86-0.237-1.278
		c0.836-1.218,1.297-2.784,1.297-4.408c0-3.666-2.303-6.648-5.133-6.648c-0.508,0-0.92-0.412-0.92-0.919S26.15,0,26.658,0
		c3.844,0,6.972,3.807,6.972,8.487c0,1.992-0.575,3.927-1.621,5.449C31.831,14.195,31.543,14.335,31.25,14.335z"/>
	<path fill="#515254" d="M0.919,23.36C0.412,23.36,0,22.948,0,22.44v-1.157c0-3.831,2.997-6.972,6.823-7.153l0.482-0.023
		l0.292,0.384c0.341,0.448,0.723,0.856,1.131,1.211C9.112,16.036,9.153,16.617,8.82,17c-0.333,0.382-0.913,0.424-1.297,0.091
		c-0.377-0.328-0.735-0.691-1.066-1.083c-2.623,0.346-4.618,2.582-4.618,5.276v1.157C1.839,22.948,1.427,23.36,0.919,23.36z"/>
	<path fill="#515254" d="M8.434,14.335c-0.292,0-0.58-0.14-0.758-0.398c-1.046-1.521-1.622-3.457-1.622-5.45
		C6.053,3.807,9.181,0,13.025,0c0.508,0,0.92,0.412,0.92,0.919s-0.412,0.919-0.92,0.919c-2.831,0-5.133,2.982-5.133,6.648
		c0,1.625,0.461,3.19,1.298,4.408c0.288,0.418,0.182,0.991-0.236,1.278C8.794,14.282,8.613,14.335,8.434,14.335z"/>
</g>
</svg>
