<?xml version="1.0" encoding="utf-8"?>
<!-- Generator: Adobe Illustrator 16.0.0, SVG Export Plug-In . SVG Version: 6.00 Build 0)  -->
<!DOCTYPE svg PUBLIC "-//W3C//DTD SVG 1.1//EN" "http://www.w3.org/Graphics/SVG/1.1/DTD/svg11.dtd">
<svg version="1.1" xmlns="http://www.w3.org/2000/svg" xmlns:xlink="http://www.w3.org/1999/xlink" x="0px" y="0px"
	 width="74.879" height="128" viewBox="0 0 74.879 128" enable-background="new 0 0 74.879 128" class="iconic iconic-action" xml:space="preserve">
<g class="iconic-container iconic-lg" data-width="74.879" data-height="128" display="inline">
	<path fill="#3399FF" d="M74.879,128H0V0h74.879V128z M3.371,124.628h68.137V3.371H3.371V124.628z"/>
	<path fill="#3399FF" d="M36.119,48.656c-0.517-0.21-1.118-0.094-1.518,0.307l-8.417,8.465h-6.48c-0.767,0-1.391,0.624-1.391,1.397
		v10.049c0,0.767,0.624,1.39,1.391,1.39h6.454l8.449,8.467c0.267,0.271,0.622,0.411,0.984,0.411c0.177,0,0.361-0.034,0.533-0.106
		c0.522-0.217,0.861-0.723,0.861-1.284V49.946C36.981,49.38,36.642,48.872,36.119,48.656"/>
	<path fill="#3399FF" d="M50.611,63.812c0-5.22-3.101-9.918-7.904-11.976c-0.706-0.306-1.525,0.023-1.825,0.728
		c-0.304,0.706,0.024,1.529,0.73,1.829c3.779,1.618,6.214,5.317,6.214,9.419c0,4.081-2.43,7.766-6.186,9.389
		c-0.703,0.305-1.03,1.123-0.73,1.829c0.227,0.524,0.745,0.839,1.284,0.839c0.185,0,0.373-0.039,0.552-0.116
		C47.526,73.695,50.611,69.002,50.611,63.812"/>
	<g>
		<defs>
			<rect id="SVGID_3_" x="18.314" y="46.209" width="38.252" height="35.577"/>
		</defs>
		<clipPath id="SVGID_2_">
			<use xlink:href="#SVGID_3_"  overflow="visible"/>
		</clipPath>
		<path clip-path="url(#SVGID_2_)" fill="#3399FF" d="M44.453,63.806c0-2.753-1.641-5.232-4.18-6.311
			c-0.707-0.293-1.524,0.034-1.824,0.74c-0.306,0.713,0.028,1.528,0.732,1.829c1.508,0.634,2.479,2.107,2.479,3.743
			c0,1.616-0.96,3.083-2.443,3.73c-0.712,0.304-1.036,1.123-0.73,1.829c0.229,0.527,0.74,0.839,1.279,0.839
			c0.184,0,0.378-0.04,0.557-0.117C42.829,68.997,44.453,66.534,44.453,63.806"/>
		<path clip-path="url(#SVGID_2_)" fill="#3399FF" d="M45.076,46.327c-0.706-0.305-1.531,0.022-1.829,0.728
			c-0.305,0.706,0.021,1.524,0.727,1.829c5.981,2.563,9.852,8.423,9.852,14.927c0,6.481-3.854,12.331-9.816,14.897
			c-0.707,0.306-1.035,1.125-0.73,1.829c0.229,0.529,0.74,0.84,1.279,0.84c0.183,0,0.373-0.032,0.556-0.11
			c6.982-3.014,11.495-9.862,11.495-17.456C56.609,56.194,52.084,49.329,45.076,46.327"/>
	</g>
</g>
<g class="iconic-container iconic-md" data-width="18.72" data-height="32" display="none" transform="scale(4)">
	<path fill="#3399FF" d="M18.72,32H0V0h18.72V32z M0.843,31.157h17.034V0.843H0.843V31.157z"/>
	<path fill="#3399FF" d="M9.03,12.164c-0.129-0.053-0.279-0.023-0.379,0.077l-2.104,2.116h-1.62c-0.192,0-0.348,0.156-0.348,0.35
		v2.512c0,0.192,0.156,0.348,0.348,0.348H6.54l2.112,2.117c0.066,0.068,0.155,0.103,0.246,0.103c0.044,0,0.09-0.008,0.133-0.026
		c0.13-0.054,0.215-0.181,0.215-0.321v-6.952C9.245,12.345,9.161,12.218,9.03,12.164"/>
	<path fill="#3399FF" d="M12.653,15.953c0-1.305-0.775-2.479-1.976-2.994c-0.176-0.076-0.381,0.006-0.456,0.182
		c-0.076,0.177,0.006,0.383,0.182,0.458c0.945,0.404,1.554,1.329,1.554,2.355c0,1.02-0.607,1.941-1.546,2.347
		c-0.176,0.077-0.257,0.281-0.182,0.458c0.057,0.131,0.186,0.209,0.321,0.209c0.046,0,0.093-0.009,0.138-0.029
		C11.881,18.424,12.653,17.25,12.653,15.953"/>
	<g>
		<defs>
			<rect id="SVGID_5_" x="4.579" y="11.552" width="9.563" height="8.895"/>
		</defs>
		<clipPath id="SVGID_2_">
			<use xlink:href="#SVGID_5_"  overflow="visible"/>
		</clipPath>
		<path clip-path="url(#SVGID_2_)" fill="#3399FF" d="M11.113,15.952c0-0.688-0.41-1.308-1.045-1.578
			c-0.177-0.073-0.381,0.008-0.456,0.185c-0.077,0.178,0.007,0.382,0.183,0.457c0.377,0.159,0.62,0.527,0.62,0.936
			c0,0.404-0.24,0.771-0.611,0.932c-0.178,0.076-0.259,0.281-0.183,0.458c0.058,0.132,0.185,0.209,0.32,0.209
			c0.046,0,0.095-0.01,0.139-0.029C10.707,17.249,11.113,16.634,11.113,15.952"/>
		<path clip-path="url(#SVGID_2_)" fill="#3399FF" d="M11.269,11.582c-0.177-0.076-0.383,0.005-0.458,0.182
			c-0.076,0.177,0.005,0.381,0.182,0.457c1.495,0.641,2.463,2.106,2.463,3.732c0,1.621-0.964,3.083-2.454,3.725
			c-0.177,0.077-0.259,0.281-0.183,0.457c0.057,0.132,0.185,0.21,0.32,0.21c0.045,0,0.093-0.008,0.139-0.027
			c1.745-0.753,2.874-2.466,2.874-4.364C14.152,14.049,13.021,12.332,11.269,11.582"/>
	</g>
</g>
<g class="iconic-container iconic-sm" data-width="9.359" data-height="16" display="none" transform="scale(8)">
	<path fill="#3399FF" d="M9.359,16H0V0h9.359V16z M0.421,15.579h8.518V0.421H0.421V15.579z"/>
	<path fill="#3399FF" d="M4.515,6.082C4.45,6.056,4.375,6.07,4.325,6.121L3.273,7.178h-0.81c-0.096,0-0.174,0.078-0.174,0.175v1.256
		c0,0.096,0.078,0.174,0.174,0.174H3.27l1.056,1.058c0.033,0.034,0.078,0.052,0.123,0.052c0.022,0,0.045-0.004,0.067-0.014
		c0.065-0.027,0.107-0.09,0.107-0.16V6.243C4.622,6.172,4.58,6.109,4.515,6.082"/>
	<path fill="#3399FF" d="M6.326,7.977c0-0.653-0.388-1.24-0.988-1.497C5.25,6.441,5.147,6.482,5.11,6.57
		C5.072,6.659,5.113,6.762,5.201,6.799c0.473,0.202,0.777,0.664,0.777,1.177c0,0.51-0.304,0.971-0.773,1.173
		C5.117,9.188,5.076,9.291,5.114,9.378c0.028,0.065,0.093,0.105,0.161,0.105c0.022,0,0.046-0.004,0.068-0.014
		C5.94,9.212,6.326,8.625,6.326,7.977"/>
	<g>
		<defs>
			<rect id="SVGID_7_" x="2.289" y="5.776" width="4.781" height="4.447"/>
		</defs>
		<clipPath id="SVGID_2_">
			<use xlink:href="#SVGID_7_"  overflow="visible"/>
		</clipPath>
		<path clip-path="url(#SVGID_2_)" fill="#3399FF" d="M5.557,7.976c0-0.345-0.205-0.654-0.523-0.789
			C4.945,7.15,4.843,7.191,4.806,7.279C4.768,7.369,4.81,7.47,4.897,7.508c0.188,0.08,0.31,0.263,0.31,0.468
			c0,0.202-0.12,0.385-0.305,0.466C4.813,8.48,4.772,8.583,4.811,8.67c0.029,0.066,0.093,0.105,0.16,0.105
			c0.022,0,0.047-0.005,0.069-0.014C5.354,8.625,5.557,8.317,5.557,7.976"/>
		<path clip-path="url(#SVGID_2_)" fill="#3399FF" d="M5.634,5.791C5.546,5.752,5.443,5.793,5.405,5.882
			C5.367,5.97,5.408,6.072,5.497,6.11c0.748,0.321,1.231,1.053,1.231,1.866c0,0.811-0.482,1.542-1.227,1.862
			C5.413,9.877,5.372,9.979,5.41,10.067c0.029,0.066,0.092,0.105,0.16,0.105c0.023,0,0.047-0.004,0.07-0.014
			c0.873-0.377,1.437-1.233,1.437-2.183C7.076,7.024,6.51,6.166,5.634,5.791"/>
	</g>
</g>
</svg>
