<?xml version="1.0" standalone="no"?>
<!DOCTYPE svg PUBLIC "-//W3C//DTD SVG 20010904//EN"
 "http://www.w3.org/TR/2001/REC-SVG-20010904/DTD/svg10.dtd">
<svg version="1.0" xmlns="http://www.w3.org/2000/svg" width="128" height="128" viewBox="0 0 128 128" class="iconic iconic-action" preserveAspectRatio="xMidYMid meet">

  <g class="iconic-ban-lg iconic-container iconic-lg" data-width="128" data-height="128" transform="translate(0.000000,128.000000) scale(0.100000,-0.100000)" fill="#000000" stroke="none">
    <path fill="#515254" d="M106.225,128H21.783C9.772,128,0,118.229,0,106.217V21.777C0,9.77,9.772,0,21.783,0h84.442
		C118.232,0,128,9.77,128,21.777v84.439C128,118.229,118.232,128,106.225,128z M21.783,8C14.184,8,8,14.18,8,21.777v84.439
		C8,113.816,14.184,120,21.783,120h84.442c7.596,0,13.775-6.184,13.775-13.783V21.777C120,14.18,113.821,8,106.225,8H21.783z"/>
    <rect x="2.051" y="30.008" fill="#515254" width="122.488" height="8"/>
    <rect x="41.113" y="49.328" fill="#515254" width="19.739" height="14.672"/>
    <rect x="67.148" y="49.328" fill="#515254" width="19.741" height="14.672"/>
    <rect x="93.184" y="49.328" fill="#515254" width="19.741" height="14.672"/>
    <rect x="15.08" y="69.328" fill="#515254" width="19.741" height="14.672"/>
    <rect x="41.113" y="69.328" fill="#515254" width="19.739" height="14.672"/>
    <rect x="67.148" y="69.328" fill="#515254" width="19.741" height="14.672"/>
    <rect x="93.184" y="69.328" fill="#515254" width="19.741" height="14.672"/>
    <rect x="15.08" y="89.328" fill="#515254" width="19.741" height="14.672"/>
    <rect x="41.113" y="89.328" fill="#515254" width="19.739" height="14.672"/>
    <rect x="67.148" y="89.328" fill="#515254" width="19.741" height="14.672"/>
    <rect x="93.184" y="89.328" fill="#515254" width="19.741" height="14.672"/>
    <path fill="#5C5C5C" d="M123.295,21.777c0-9.775-8-17.775-17.775-17.775H21.076c-9.777,0-17.781,8-17.781,17.775v14.225h120V21.777
		z"/>
    <path fill="#515254" d="M128,40.002H0V21.777C0,9.77,9.772,0.002,21.781,0.002h84.444C118.232,0.002,128,9.77,128,21.777V40.002z
		 M8,32.002h112V21.777c0-7.596-6.179-13.775-13.775-13.775H21.781C14.182,8.002,8,14.182,8,21.777V32.002z"/>
  </g>
  
  <g class="iconic-ban-md iconic-container iconic-md" data-width="32" data-height="32" transform="translate(0.000000,32.000000) scale(0.100000,-0.100000)" fill="#000000" stroke="none">
    <path fill="#515254" d="M26.556,32H5.446C2.443,32,0,29.557,0,26.554V5.444C0,2.442,2.443,0,5.446,0h21.11
		C29.558,0,32,2.442,32,5.444v21.11C32,29.557,29.558,32,26.556,32z M5.446,2C3.546,2,2,3.545,2,5.444v21.11
		C2,28.454,3.546,30,5.446,30h21.11C28.455,30,30,28.454,30,26.554V5.444C30,3.545,28.455,2,26.556,2H5.446z"/>
    <rect x="0.513" y="7.502" fill="#515254" width="30.622" height="2"/>
    <rect x="10.278" y="12.332" fill="#515254" width="4.935" height="3.668"/>
    <rect x="16.787" y="12.332" fill="#515254" width="4.935" height="3.668"/>
    <rect x="23.296" y="12.332" fill="#515254" width="4.935" height="3.668"/>
    <rect x="3.77" y="17.332" fill="#515254" width="4.935" height="3.668"/>
    <rect x="10.278" y="17.332" fill="#515254" width="4.935" height="3.668"/>
    <rect x="16.787" y="17.332" fill="#515254" width="4.935" height="3.668"/>
    <rect x="23.296" y="17.332" fill="#515254" width="4.935" height="3.668"/>
    <rect x="3.77" y="22.332" fill="#515254" width="4.935" height="3.668"/>
    <rect x="10.278" y="22.332" fill="#515254" width="4.935" height="3.668"/>
    <rect x="16.787" y="22.332" fill="#515254" width="4.935" height="3.668"/>
    <rect x="23.296" y="22.332" fill="#515254" width="4.935" height="3.668"/>
    <path fill="#5C5C5C" d="M30.824,5.444C30.824,3,28.824,1,26.38,1H5.269C2.825,1,0.824,3,0.824,5.444V9h30V5.444z"/>
    <path fill="#515254" d="M32,10H0V5.444C0,2.442,2.443,0,5.445,0h21.111C29.558,0,32,2.442,32,5.444V10z M2,8h28V5.444
		C30,3.545,28.455,2,26.556,2H5.445C3.545,2,2,3.545,2,5.444V8z"/>
  </g>
  <g class="iconic-ban-sm iconic-container iconic-sm" data-width="16" data-height="16" transform="translate(0.000000,16.000000) scale(0.100000,-0.100000)" fill="#000000" stroke="none">
    <path fill="#515254" d="M13.278,16H2.723C1.222,16,0,14.778,0,13.277V2.722C0,1.221,1.222,0,2.723,0h10.556
		C14.779,0,16,1.221,16,2.722v10.555C16,14.778,14.779,16,13.278,16z M2.723,1C1.773,1,1,1.772,1,2.722v10.555
		C1,14.227,1.773,15,2.723,15h10.556C14.228,15,15,14.227,15,13.277V2.722C15,1.772,14.228,1,13.278,1H2.723z"/>
    <rect x="0.256" y="3.751" fill="#515254" width="15.311" height="1"/>
    <rect x="5.139" y="6.166" fill="#515254" width="2.467" height="1.834"/>
    <rect x="8.394" y="6.166" fill="#515254" width="2.468" height="1.834"/>
    <rect x="11.648" y="6.166" fill="#515254" width="2.467" height="1.834"/>
    <rect x="1.885" y="8.666" fill="#515254" width="2.468" height="1.834"/>
    <rect x="5.139" y="8.666" fill="#515254" width="2.467" height="1.834"/>
    <rect x="8.394" y="8.666" fill="#515254" width="2.468" height="1.834"/>
    <rect x="11.648" y="8.666" fill="#515254" width="2.467" height="1.834"/>
    <rect x="1.885" y="11.166" fill="#515254" width="2.468" height="1.834"/>
    <rect x="5.139" y="11.166" fill="#515254" width="2.467" height="1.834"/>
    <rect x="8.394" y="11.166" fill="#515254" width="2.468" height="1.834"/>
    <rect x="11.648" y="11.166" fill="#515254" width="2.467" height="1.834"/>
    <path fill="#5C5C5C" d="M15.412,2.722c0-1.222-1-2.222-2.222-2.222H2.635c-1.223,0-2.223,1-2.223,2.222V4.5h15V2.722z"/>
    <path fill="#515254" d="M16,5H0V2.722C0,1.221,1.222,0,2.723,0h10.556C14.779,0,16,1.221,16,2.722V5z M1,4h14V2.722
		C15,1.772,14.228,1,13.278,1H2.723C1.772,1,1,1.772,1,2.722V4z"/>
  </g>
</svg>
