<?xml version="1.0" encoding="utf-8"?>
<!-- Generator: Adobe Illustrator 16.0.0, SVG Export Plug-In . SVG Version: 6.00 Build 0)  -->
<!DOCTYPE svg PUBLIC "-//W3C//DTD SVG 1.1//EN" "http://www.w3.org/Graphics/SVG/1.1/DTD/svg11.dtd">
<svg version="1.1" xmlns="http://www.w3.org/2000/svg" xmlns:xlink="http://www.w3.org/1999/xlink" x="0px" y="0px"
	 width="158.73" height="128" viewBox="0 0 158.73 128" enable-background="new 0 0 158.73 128" class="iconic iconic-action" xml:space="preserve">
<g class="iconic-container iconic-lg" data-width="158.73" data-height="128" display="inline">
	<path fill="#515254" d="M121.359,128H35.646c-8.792,0-15.943-7.149-15.943-15.938v-5.28c0-17.134,13.41-31.22,30.528-32.065
		l1.932-0.095l1.172,1.538c6.468,8.481,15.628,13.345,25.13,13.345c9.504,0,18.667-4.864,25.139-13.345l1.17-1.534l1.927,0.091
		c17.154,0.803,30.593,14.888,30.593,32.065v5.28C137.294,120.851,130.146,128,121.359,128z M48.765,82.22
		c-12.31,1.512-21.707,11.969-21.707,24.561v5.28c0,4.732,3.853,8.583,8.587,8.583h85.714c4.73,0,8.579-3.85,8.579-8.583v-5.28
		c0-12.626-9.419-23.086-21.758-24.567c-7.794,9.333-18.519,14.645-29.714,14.645C67.273,96.859,56.554,91.549,48.765,82.22z"/>
	<path fill="#515254" d="M78.47,86.636c-17.233,0-31.253-17.113-31.253-38.145c0-21.037,14.02-38.151,31.253-38.151
		c17.231,0,31.249,17.115,31.249,38.151C109.719,69.523,95.701,86.636,78.47,86.636z M78.47,17.696
		c-13.178,0-23.897,13.814-23.897,30.796c0,16.977,10.719,30.789,23.897,30.789c13.176,0,23.894-13.812,23.894-30.789
		C102.363,31.51,91.646,17.696,78.47,17.696z"/>
	<path fill="#515254" d="M155.053,93.44c-2.03,0-3.678-1.647-3.678-3.678v-4.628c0-10.776-7.978-19.719-18.472-21.103
		c-1.326,1.571-2.755,3.024-4.265,4.334c-1.538,1.332-3.858,1.164-5.188-0.365c-1.332-1.534-1.169-3.856,0.365-5.188
		c1.633-1.42,3.157-3.049,4.523-4.844l1.17-1.536l1.929,0.09c15.304,0.723,27.292,13.29,27.292,28.612v4.628
		C158.73,91.793,157.083,93.44,155.053,93.44z"/>
	<path fill="#515254" d="M125,57.339c-0.717,0-1.441-0.21-2.078-0.646c-1.675-1.15-2.099-3.44-0.95-5.113
		c3.346-4.874,5.189-11.136,5.189-17.634c0-14.663-9.209-26.591-20.531-26.591c-2.03,0-3.678-1.648-3.678-3.678S104.6,0,106.63,0
		c15.376,0,27.887,15.228,27.887,33.947c0,7.968-2.301,15.709-6.481,21.796C127.322,56.782,126.172,57.339,125,57.339z"/>
	<path fill="#515254" d="M3.678,93.44C1.647,93.44,0,91.793,0,89.763v-4.628c0-15.322,11.988-27.889,27.292-28.612l1.929-0.09
		l1.17,1.536c1.366,1.795,2.89,3.424,4.523,4.844c1.534,1.332,1.697,3.654,0.365,5.188c-1.331,1.529-3.652,1.697-5.188,0.365
		c-1.509-1.31-2.939-2.763-4.265-4.334C15.334,65.416,7.355,74.358,7.355,85.134v4.628C7.355,91.793,5.708,93.44,3.678,93.44z"/>
	<path fill="#515254" d="M33.734,57.339c-1.17,0-2.321-0.558-3.033-1.594c-4.185-6.085-6.488-13.826-6.488-21.798
		C24.213,15.228,36.724,0,52.1,0c2.03,0,3.678,1.647,3.678,3.678S54.13,7.356,52.1,7.356c-11.322,0-20.531,11.928-20.531,26.591
		c0,6.498,1.844,12.76,5.192,17.631c1.151,1.673,0.726,3.963-0.947,5.113C35.178,57.129,34.452,57.339,33.734,57.339z"/>
</g>
<g class="iconic-container iconic-md" data-width="39.683" data-height="32" display="none" transform="scale(4)">
	<path fill="#515254" d="M30.34,32H8.912c-2.198,0-3.986-1.787-3.986-3.984v-1.32c0-4.284,3.352-7.805,7.632-8.017l0.483-0.023
		l0.293,0.384c1.617,2.121,3.907,3.336,6.283,3.336s4.667-1.216,6.284-3.336l0.293-0.383l0.481,0.022
		c4.289,0.201,7.648,3.722,7.648,8.017v1.32C34.324,30.213,32.537,32,30.34,32z M12.191,20.555c-3.077,0.378-5.426,2.992-5.426,6.14
		v1.32c0,1.183,0.963,2.146,2.147,2.146H30.34c1.183,0,2.145-0.963,2.145-2.146v-1.32c0-3.157-2.355-5.771-5.439-6.142
		c-1.949,2.333-4.63,3.661-7.428,3.661S14.138,22.887,12.191,20.555z"/>
	<path fill="#515254" d="M19.618,21.659c-4.309,0-7.813-4.278-7.813-9.536c0-5.259,3.505-9.538,7.813-9.538
		c4.308,0,7.812,4.279,7.812,9.538C27.43,17.381,23.925,21.659,19.618,21.659z M19.618,4.424c-3.295,0-5.975,3.454-5.975,7.699
		c0,4.244,2.68,7.697,5.975,7.697c3.294,0,5.973-3.453,5.973-7.697C25.591,7.877,22.912,4.424,19.618,4.424z"/>
	<path fill="#515254" d="M38.763,23.36c-0.508,0-0.919-0.412-0.919-0.92v-1.157c0-2.694-1.995-4.93-4.618-5.276
		c-0.332,0.393-0.689,0.756-1.066,1.083c-0.385,0.333-0.965,0.291-1.297-0.091c-0.333-0.383-0.292-0.964,0.091-1.297
		c0.408-0.355,0.789-0.763,1.131-1.211l0.292-0.384l0.482,0.023c3.826,0.181,6.823,3.322,6.823,7.153v1.157
		C39.683,22.948,39.271,23.36,38.763,23.36z"/>
	<path fill="#515254" d="M31.25,14.335c-0.179,0-0.36-0.053-0.52-0.162c-0.418-0.288-0.525-0.86-0.237-1.278
		c0.836-1.218,1.297-2.784,1.297-4.408c0-3.666-2.303-6.648-5.133-6.648c-0.508,0-0.92-0.412-0.92-0.919S26.15,0,26.658,0
		c3.844,0,6.972,3.807,6.972,8.487c0,1.992-0.575,3.927-1.621,5.449C31.831,14.195,31.543,14.335,31.25,14.335z"/>
	<path fill="#515254" d="M0.919,23.36C0.412,23.36,0,22.948,0,22.44v-1.157c0-3.831,2.997-6.972,6.823-7.153l0.482-0.023
		l0.292,0.384c0.341,0.448,0.723,0.856,1.131,1.211C9.112,16.036,9.153,16.617,8.82,17c-0.333,0.382-0.913,0.424-1.297,0.091
		c-0.377-0.328-0.735-0.691-1.066-1.083c-2.623,0.346-4.618,2.582-4.618,5.276v1.157C1.839,22.948,1.427,23.36,0.919,23.36z"/>
	<path fill="#515254" d="M8.434,14.335c-0.292,0-0.58-0.14-0.758-0.398c-1.046-1.521-1.622-3.457-1.622-5.45
		C6.053,3.807,9.181,0,13.025,0c0.508,0,0.92,0.412,0.92,0.919s-0.412,0.919-0.92,0.919c-2.831,0-5.133,2.982-5.133,6.648
		c0,1.625,0.461,3.19,1.298,4.408c0.288,0.418,0.182,0.991-0.236,1.278C8.794,14.282,8.613,14.335,8.434,14.335z"/>
</g>
<g class="iconic-container iconic-sm" data-width="19.842" data-height="16" display="none" transform="scale(8)">
	<path fill="#515254" d="M15.17,16H4.456c-1.099,0-1.993-0.894-1.993-1.992v-0.66c0-2.142,1.676-3.902,3.816-4.008l0.241-0.012
		L6.667,9.52c0.809,1.061,1.954,1.668,3.142,1.668s2.333-0.608,3.142-1.668l0.146-0.191l0.241,0.011
		c2.145,0.101,3.824,1.861,3.824,4.008v0.66C17.162,15.106,16.269,16,15.17,16z M6.096,10.277c-1.539,0.189-2.713,1.496-2.713,3.07
		v0.66c0,0.591,0.481,1.073,1.073,1.073H15.17c0.592,0,1.072-0.481,1.072-1.073v-0.66c0-1.578-1.177-2.886-2.72-3.071
		c-0.974,1.167-2.314,1.831-3.714,1.831S7.069,11.443,6.096,10.277z"/>
	<path fill="#515254" d="M9.809,10.83c-2.154,0-3.907-2.139-3.907-4.768c0-2.63,1.752-4.769,3.907-4.769
		c2.154,0,3.906,2.139,3.906,4.769C13.715,8.69,11.963,10.83,9.809,10.83z M9.809,2.212c-1.647,0-2.987,1.727-2.987,3.85
		c0,2.122,1.34,3.849,2.987,3.849c1.647,0,2.987-1.727,2.987-3.849C12.796,3.938,11.456,2.212,9.809,2.212z"/>
	<path fill="#515254" d="M19.382,11.68c-0.254,0-0.46-0.206-0.46-0.46v-0.579c0-1.347-0.997-2.465-2.309-2.638
		C16.447,8.2,16.269,8.382,16.08,8.546c-0.192,0.166-0.482,0.146-0.648-0.046c-0.167-0.191-0.146-0.482,0.046-0.648
		c0.204-0.178,0.395-0.381,0.565-0.605l0.146-0.192l0.241,0.012c1.913,0.09,3.412,1.661,3.412,3.576v0.579
		C19.842,11.474,19.636,11.68,19.382,11.68z"/>
	<path fill="#515254" d="M15.625,7.167c-0.089,0-0.18-0.026-0.26-0.081c-0.209-0.144-0.262-0.43-0.118-0.64
		c0.418-0.609,0.648-1.392,0.648-2.204c0-1.833-1.151-3.324-2.566-3.324c-0.254,0-0.46-0.206-0.46-0.459
		c0-0.254,0.206-0.46,0.46-0.46c1.922,0,3.486,1.903,3.486,4.243c0,0.996-0.288,1.964-0.81,2.725
		C15.916,7.098,15.771,7.167,15.625,7.167z"/>
	<path fill="#515254" d="M0.46,11.68C0.206,11.68,0,11.474,0,11.22v-0.579c0-1.915,1.499-3.486,3.412-3.576l0.241-0.012l0.146,0.192
		C3.97,7.47,4.16,7.674,4.364,7.852C4.557,8.018,4.577,8.309,4.41,8.5C4.244,8.691,3.954,8.712,3.762,8.546
		C3.573,8.382,3.395,8.2,3.229,8.004C1.917,8.177,0.92,9.295,0.92,10.642v0.579C0.92,11.474,0.714,11.68,0.46,11.68z"/>
	<path fill="#515254" d="M4.217,7.167c-0.146,0-0.29-0.07-0.379-0.199C3.314,6.208,3.027,5.24,3.027,4.243
		C3.027,1.903,4.591,0,6.513,0c0.254,0,0.46,0.206,0.46,0.46c0,0.253-0.206,0.459-0.46,0.459c-1.415,0-2.566,1.491-2.566,3.324
		c0,0.813,0.23,1.595,0.649,2.204c0.144,0.209,0.091,0.495-0.118,0.639C4.397,7.141,4.307,7.167,4.217,7.167z"/>
</g>
</svg>
