<?xml version="1.0" encoding="utf-8"?>
<!-- Generator: Adobe Illustrator 16.0.0, SVG Export Plug-In . SVG Version: 6.00 Build 0)  -->
<!DOCTYPE svg PUBLIC "-//W3C//DTD SVG 1.1//EN" "http://www.w3.org/Graphics/SVG/1.1/DTD/svg11.dtd">
<svg version="1.1" xmlns="http://www.w3.org/2000/svg" xmlns:xlink="http://www.w3.org/1999/xlink" x="0px" y="0px"
	 width="127.983" height="128" viewBox="0 0 127.983 128" enable-background="new 0 0 127.983 128" class="iconic iconic-action" xml:space="preserve">
<g class="iconic-container iconic-lg" data-width="127.983" data-height="128" display="inline">
	<path fill="#515254" d="M4,128c-0.611,0-1.224-0.137-1.79-0.421C0.855,126.903,0,125.518,0,124.001V34.005
		c0-1.26,0.593-2.443,1.599-3.2L41.591,0.801c1.421-1.064,3.373-1.066,4.8-0.002l37.603,28.193l37.591-28.191
		c1.214-0.912,2.831-1.057,4.189-0.377c1.355,0.675,2.208,2.061,2.208,3.577v90.008c0,1.26-0.593,2.446-1.597,3.202l-40,29.99
		c-1.419,1.063-3.377,1.064-4.798,0l-37.597-28.2l-37.591,28.2C5.694,127.729,4.849,128,4,128z M43.99,90.001
		c0.843,0,1.689,0.268,2.401,0.8l37.595,28.2l35.998-26.992V12.001L86.394,37.192c-1.422,1.067-3.373,1.069-4.801,0.002L43.99,9.001
		L8,36.005V116l33.591-25.198C42.301,90.27,43.147,90.001,43.99,90.001z"/>
	<path fill="#515254" d="M43.99,98.001c-2.208,0-3.998-1.791-3.998-4v-90c0-2.21,1.791-3.998,3.998-3.998c2.209,0,4,1.788,4,3.998
		v90C47.99,96.211,46.2,98.001,43.99,98.001z"/>
	<path fill="#515254" d="M83.991,128c-2.21,0-4-1.788-4-3.998V33.993c0-2.21,1.79-4,4-4c2.208,0,3.998,1.791,3.998,4v90.008
		C87.989,126.211,86.198,128,83.991,128z"/>
</g>
<g class="iconic-container iconic-md" data-width="31.996" data-height="32" display="none" transform="scale(4)">
	<path fill="#515254" d="M1,32c-0.153,0-0.306-0.035-0.448-0.105C0.213,31.726,0,31.379,0,31V8.501c0-0.315,0.148-0.611,0.4-0.8
		L10.398,0.2c0.355-0.266,0.843-0.267,1.2,0l9.401,7.048L30.396,0.2c0.303-0.228,0.708-0.264,1.047-0.094
		C31.783,0.274,31.996,0.621,31.996,1v22.502c0,0.315-0.148,0.612-0.399,0.801l-10,7.498c-0.354,0.266-0.844,0.266-1.199,0
		l-9.399-7.05L1.6,31.8C1.423,31.932,1.212,32,1,32z M10.998,22.5c0.21,0,0.422,0.067,0.6,0.2l9.399,7.05l9-6.748V3l-8.397,6.298
		c-0.355,0.267-0.843,0.267-1.2,0L10.998,2.25L2,9.001V29l8.398-6.299C10.575,22.567,10.787,22.5,10.998,22.5z"/>
	<path fill="#515254" d="M10.998,24.5c-0.552,0-1-0.447-1-1V1c0-0.553,0.448-1,1-1c0.552,0,1,0.447,1,1v22.5
		C11.998,24.053,11.55,24.5,10.998,24.5z"/>
	<path fill="#515254" d="M20.998,32c-0.552,0-1-0.447-1-1V8.498c0-0.552,0.448-1,1-1c0.552,0,1,0.448,1,1V31
		C21.997,31.553,21.549,32,20.998,32z"/>
</g>
<g class="iconic-container iconic-sm" data-width="15.998" data-height="16" display="none" transform="scale(8)">
	<path fill="#515254" d="M0.5,16c-0.077,0-0.153-0.018-0.224-0.053C0.106,15.863,0,15.689,0,15.5V4.25c0-0.158,0.074-0.306,0.2-0.4
		L5.199,0.1c0.178-0.133,0.422-0.133,0.6,0l4.7,3.524L15.198,0.1c0.151-0.114,0.354-0.132,0.523-0.047
		c0.169,0.084,0.276,0.258,0.276,0.447v11.251c0,0.158-0.074,0.306-0.199,0.4l-5,3.749c-0.177,0.133-0.422,0.133-0.6,0l-4.7-3.525
		L0.8,15.9C0.711,15.966,0.606,16,0.5,16z M5.499,11.25c0.105,0,0.211,0.034,0.3,0.1l4.699,3.525l4.5-3.374V1.5l-4.199,3.149
		c-0.178,0.133-0.422,0.133-0.6,0L5.499,1.125L1,4.5V14.5l4.199-3.149C5.288,11.284,5.393,11.25,5.499,11.25z"/>
	<path fill="#515254" d="M5.499,12.25c-0.276,0-0.5-0.224-0.5-0.5V0.5c0-0.276,0.224-0.5,0.5-0.5c0.276,0,0.5,0.224,0.5,0.5v11.25
		C5.999,12.026,5.775,12.25,5.499,12.25z"/>
	<path fill="#515254" d="M10.499,16c-0.276,0-0.5-0.224-0.5-0.5V4.249c0-0.276,0.224-0.5,0.5-0.5s0.5,0.224,0.5,0.5V15.5
		C10.999,15.776,10.774,16,10.499,16z"/>
</g>
</svg>
