<?xml version="1.0" encoding="utf-8"?>
<!-- Generator: Adobe Illustrator 16.0.0, SVG Export Plug-In . SVG Version: 6.00 Build 0)  -->
<!DOCTYPE svg PUBLIC "-//W3C//DTD SVG 1.1//EN" "http://www.w3.org/Graphics/SVG/1.1/DTD/svg11.dtd">
<svg version="1.1" xmlns="http://www.w3.org/2000/svg" xmlns:xlink="http://www.w3.org/1999/xlink" x="0px" y="0px"
	 width="127.924" height="128" viewBox="0 0 158.73 128" enable-background="new 0 0 158.73 128" class="iconic iconic-action" xml:space="preserve">
<g class="iconic-container iconic-lg" data-width="127.924" data-height="128" display="inline">
	<path fill="#FAA526" d="M94.451,74.031c-7.527,9.871-18.424,16.092-30.523,16.092c-12.102,0-22.996-6.221-30.525-16.092
		C17.096,74.836,4,88.428,4,104.928v5.736C4,118,10.004,124,17.34,124h93.248c7.336,0,13.336-6,13.336-13.336v-5.736
		C123.924,88.398,110.791,74.799,94.451,74.031"/>
	<path fill="#F7941E" d="M110.588,128H17.34C7.779,128,0,120.223,0,110.664v-5.736c0-18.646,14.586-33.973,33.205-34.891
		l2.102-0.105l1.275,1.674c7.039,9.227,17.006,14.518,27.346,14.518c10.342,0,20.307-5.291,27.342-14.518l1.273-1.668l2.096,0.098
		c18.664,0.877,33.285,16.203,33.285,34.893v5.736C127.924,120.223,120.146,128,110.588,128z M31.611,78.197
		C18.221,79.844,8,91.223,8,104.928v5.736c0,5.148,4.189,9.336,9.34,9.336h93.248c5.148,0,9.336-4.188,9.336-9.336v-5.736
		c0-13.74-10.248-25.121-23.676-26.736c-8.475,10.152-20.141,15.932-32.32,15.932C51.75,94.123,40.086,88.348,31.611,78.197z"/>
	<path fill="#FAA526" d="M93.924,41.504c0,20.713-13.432,37.504-29.996,37.504c-16.572,0-30-16.791-30-37.504
		C33.928,20.793,47.355,4,63.928,4C80.492,4,93.924,20.793,93.924,41.504"/>
	<path fill="#F7941E" d="M63.928,83.008c-18.748,0-34-18.619-34-41.504S45.18,0,63.928,0c18.746,0,33.996,18.619,33.996,41.504
		S82.674,83.008,63.928,83.008z M63.928,8c-14.336,0-26,15.029-26,33.504s11.664,33.504,26,33.504
		c14.334,0,25.996-15.029,25.996-33.504S78.262,8,63.928,8z"/>
</g>
<g class="iconic-container iconic-md" data-width="31.981" data-height="32" display="none" transform="scale(4)">
	<path fill="#FAA526" d="M23.613,18.508c-1.882,2.468-4.606,4.023-7.631,4.023c-3.025,0-5.749-1.555-7.632-4.023
		C4.274,18.709,1,22.107,1,26.232v1.434C1,29.5,2.501,31,4.335,31h23.313c1.834,0,3.334-1.5,3.334-3.334v-1.434
		C30.981,22.1,27.698,18.7,23.613,18.508"/>
	<path fill="#F7941E" d="M27.647,32H4.335C1.945,32,0,30.056,0,27.666v-1.434c0-4.662,3.646-8.493,8.302-8.723l0.525-0.026
		l0.318,0.418c1.76,2.307,4.252,3.629,6.837,3.629s5.076-1.323,6.835-3.629l0.318-0.417l0.524,0.024
		c4.666,0.219,8.321,4.051,8.321,8.723v1.434C31.981,30.056,30.037,32,27.647,32z M7.903,19.549C4.556,19.961,2,22.806,2,26.232
		v1.434C2,28.953,3.048,30,4.335,30h23.313c1.287,0,2.334-1.047,2.334-2.334v-1.434c0-3.435-2.563-6.28-5.919-6.684
		c-2.119,2.538-5.035,3.983-8.08,3.983S10.021,22.087,7.903,19.549z"/>
	<path fill="#FAA526" d="M23.481,10.376c0,5.178-3.358,9.376-7.499,9.376c-4.144,0-7.5-4.198-7.5-9.376
		c0-5.178,3.356-9.376,7.5-9.376C20.123,1,23.481,5.198,23.481,10.376"/>
	<path fill="#F7941E" d="M15.982,20.752c-4.688,0-8.5-4.655-8.5-10.376S11.295,0,15.982,0c4.687,0,8.499,4.655,8.499,10.376
		S20.669,20.752,15.982,20.752z M15.982,2c-3.584,0-6.5,3.757-6.5,8.376s2.916,8.376,6.5,8.376c3.583,0,6.499-3.757,6.499-8.376
		S19.565,2,15.982,2z"/>
</g>
<g class="iconic-container iconic-sm" data-width="15.991" data-height="16" display="none" transform="scale(8)">
	<path fill="#FAA526" d="M11.807,9.254c-0.94,1.234-2.303,2.012-3.815,2.012s-2.874-0.778-3.815-2.012
		C2.138,9.354,0.5,11.054,0.5,13.116v0.717c0,0.917,0.751,1.667,1.668,1.667h11.656c0.917,0,1.667-0.75,1.667-1.667v-0.717
		C15.491,11.05,13.85,9.35,11.807,9.254"/>
	<path fill="#F7941E" d="M13.824,16H2.168C0.973,16,0,15.028,0,13.833v-0.717c0-2.331,1.823-4.247,4.151-4.361l0.263-0.014
		l0.159,0.209c0.88,1.153,2.126,1.815,3.418,1.815c1.293,0,2.538-0.662,3.418-1.815l0.159-0.208l0.262,0.012
		c2.333,0.11,4.161,2.025,4.161,4.362v0.717C15.991,15.028,15.019,16,13.824,16z M3.952,9.774C2.278,9.98,1,11.403,1,13.116v0.717
		C1,14.477,1.524,15,2.168,15h11.656c0.644,0,1.167-0.523,1.167-1.167v-0.717c0-1.718-1.281-3.141-2.96-3.342
		c-1.06,1.269-2.518,1.992-4.04,1.992S5.011,11.043,3.952,9.774z"/>
	<path fill="#FAA526" d="M11.741,5.188c0,2.589-1.68,4.688-3.75,4.688c-2.071,0-3.75-2.099-3.75-4.688
		c0-2.589,1.679-4.688,3.75-4.688C10.062,0.5,11.741,2.599,11.741,5.188"/>
	<path fill="#F7941E" d="M7.991,10.376c-2.344,0-4.25-2.327-4.25-5.188S5.647,0,7.991,0s4.25,2.327,4.25,5.188
		S10.335,10.376,7.991,10.376z M7.991,1c-1.792,0-3.25,1.879-3.25,4.188s1.458,4.188,3.25,4.188s3.25-1.879,3.25-4.188
		S9.783,1,7.991,1z"/>
</g>
</svg>
