<?xml version="1.0" encoding="utf-8"?>
<!-- Generator: Adobe Illustrator 16.0.0, SVG Export Plug-In . SVG Version: 6.00 Build 0)  -->
<!DOCTYPE svg PUBLIC "-//W3C//DTD SVG 1.1//EN" "http://www.w3.org/Graphics/SVG/1.1/DTD/svg11.dtd">
<svg version="1.1" xmlns="http://www.w3.org/2000/svg" xmlns:xlink="http://www.w3.org/1999/xlink" x="0px" y="0px"
	 width="171.487" height="128" viewBox="0 0 171.487 128" enable-background="new 0 0 171.487 128" class="iconic iconic-action" xml:space="preserve">
<g class="iconic-container iconic-lg" data-width="171.487" data-height="128" display="inline">
	<path fill="#58595B" d="M104.448,128H16.377C7.347,128,0,120.654,0,111.626v-5.418c0-17.611,13.776-32.086,31.361-32.954l1.985-0.1
		l1.205,1.581c6.648,8.714,16.062,13.711,25.828,13.711c9.768,0,19.179-4.997,25.824-13.711l1.203-1.576l1.979,0.092
		c17.628,0.828,31.438,15.304,31.438,32.956v5.418C120.822,120.654,113.477,128,104.448,128z M29.856,80.962
		C17.209,82.517,7.556,93.264,7.556,106.208v5.418c0,4.863,3.957,8.818,8.821,8.818h88.071c4.863,0,8.818-3.955,8.818-8.818v-5.418
		c0-12.978-9.679-23.727-22.361-25.252C82.9,90.545,71.882,96.004,60.378,96.004C48.877,96.004,37.86,90.549,29.856,80.962z"/>
	<path fill="#58595B" d="M60.378,85.505c-17.707,0-32.112-17.585-32.112-39.2s14.405-39.2,32.112-39.2
		c17.706,0,32.109,17.585,32.109,39.2S78.084,85.505,60.378,85.505z M60.378,14.662c-13.54,0-24.557,14.195-24.557,31.644
		S46.838,77.95,60.378,77.95c13.539,0,24.553-14.195,24.553-31.644S73.917,14.662,60.378,14.662z"/>
	<path fill="#59595B" d="M139.782,31.703V4.15c0-2.293-1.859-4.15-4.152-4.15s-4.156,1.857-4.156,4.154l0.004,27.549h-27.552
		c-2.293,0-4.151,1.859-4.151,4.152s1.858,4.152,4.151,4.152h27.552V67.56c0,2.293,1.859,4.153,4.152,4.156
		c1.146-0.003,2.184-0.468,2.937-1.221c0.75-0.751,1.215-1.788,1.215-2.935V40.008l27.552,0.004c1.146,0,2.185-0.469,2.935-1.218
		c0.753-0.754,1.218-1.789,1.218-2.935c0-2.296-1.86-4.156-4.153-4.156H139.782z"/>
</g>
<g class="iconic-container iconic-md" data-width="42.872" data-height="32" display="none" transform="scale(4)">
	<path fill="#58595B" d="M26.112,32H4.094C1.837,32,0,30.164,0,27.907v-1.354c0-4.403,3.444-8.022,7.84-8.239l0.496-0.024
		l0.301,0.395c1.662,2.179,4.016,3.428,6.457,3.428c2.442,0,4.794-1.249,6.456-3.428l0.3-0.394l0.495,0.023
		c4.407,0.207,7.859,3.826,7.859,8.239v1.354C30.206,30.164,28.369,32,26.112,32z M7.464,20.24
		c-3.162,0.389-5.575,3.076-5.575,6.312v1.354c0,1.215,0.989,2.205,2.206,2.205h22.018c1.216,0,2.205-0.989,2.205-2.205v-1.354
		c0-3.245-2.42-5.932-5.59-6.313c-2.001,2.397-4.756,3.762-7.631,3.762S9.465,22.637,7.464,20.24z"/>
	<path fill="#58595B" d="M15.095,21.376c-4.427,0-8.028-4.396-8.028-9.8c0-5.403,3.602-9.8,8.028-9.8c4.426,0,8.027,4.396,8.027,9.8
		C23.122,16.98,19.521,21.376,15.095,21.376z M15.095,3.666c-3.385,0-6.139,3.548-6.139,7.911s2.754,7.911,6.139,7.911
		c3.384,0,6.138-3.549,6.138-7.911S18.479,3.666,15.095,3.666z"/>
	<path fill="#59595B" d="M34.945,7.926V1.038C34.945,0.464,34.48,0,33.907,0s-1.039,0.464-1.039,1.039l0.001,6.887h-6.888
		c-0.573,0-1.038,0.465-1.038,1.038s0.464,1.038,1.038,1.038h6.888v6.888c0,0.573,0.465,1.038,1.038,1.039
		c0.287-0.001,0.546-0.117,0.734-0.305c0.188-0.188,0.304-0.447,0.304-0.734v-6.888l6.888,0.001c0.287,0,0.546-0.117,0.734-0.305
		c0.188-0.188,0.304-0.447,0.304-0.733c0-0.574-0.465-1.039-1.038-1.039H34.945z"/>
</g>
<g class="iconic-container iconic-sm" data-width="21.436" data-height="16" display="none" transform="scale(8)">
	<path fill="#58595B" d="M13.056,16H2.047C0.918,16,0,15.082,0,13.953v-0.677c0-2.202,1.722-4.011,3.92-4.12l0.248-0.012l0.15,0.197
		c0.831,1.09,2.008,1.714,3.229,1.714c1.221,0,2.397-0.624,3.228-1.714l0.15-0.197l0.248,0.012c2.203,0.104,3.93,1.913,3.93,4.12
		v0.677C15.103,15.082,14.185,16,13.056,16z M3.732,10.12c-1.581,0.194-2.788,1.538-2.788,3.156v0.677
		c0,0.608,0.495,1.103,1.103,1.103h11.009c0.608,0,1.102-0.495,1.102-1.103v-0.677c0-1.623-1.21-2.966-2.795-3.157
		C10.363,11.318,8.985,12,7.547,12C6.11,12,4.732,11.318,3.732,10.12z"/>
	<path fill="#58595B" d="M7.547,10.688c-2.213,0-4.014-2.198-4.014-4.9c0-2.702,1.801-4.9,4.014-4.9s4.014,2.198,4.014,4.9
		C11.561,8.49,9.761,10.688,7.547,10.688z M7.547,1.833c-1.692,0-3.069,1.774-3.069,3.955s1.377,3.956,3.069,3.956
		s3.069-1.774,3.069-3.956S9.24,1.833,7.547,1.833z"/>
	<path fill="#59595B" d="M17.473,3.963V0.519C17.473,0.232,17.24,0,16.954,0s-0.52,0.232-0.52,0.52l0,3.443h-3.444
		c-0.287,0-0.519,0.232-0.519,0.519s0.232,0.519,0.519,0.519h3.444v3.444c0,0.286,0.232,0.519,0.519,0.52
		c0.144-0.001,0.273-0.059,0.367-0.153c0.094-0.094,0.152-0.224,0.152-0.367V5.001l3.444,0c0.143,0,0.273-0.059,0.367-0.152
		c0.094-0.094,0.152-0.224,0.152-0.367c0-0.287-0.232-0.52-0.519-0.52H17.473z"/>
</g>
</svg>
