<?xml version="1.0" encoding="utf-8"?>
<!-- Generator: Adobe Illustrator 16.0.0, SVG Export Plug-In . SVG Version: 6.00 Build 0)  -->
<!DOCTYPE svg PUBLIC "-//W3C//DTD SVG 1.1//EN" "http://www.w3.org/Graphics/SVG/1.1/DTD/svg11.dtd">
<svg version="1.1" xmlns="http://www.w3.org/2000/svg" xmlns:xlink="http://www.w3.org/1999/xlink" x="0px" y="0px"
	 width="189.692" height="128" viewBox="0 0 189.692 128" enable-background="new 0 0 189.692 128" class="iconic iconic-action" xml:space="preserve">
<g class="iconic-container iconic-lg" data-width="189.692" data-height="128" display="inline">
	<path fill="#58595B" d="M109.746,128H17.208C7.72,128,0,120.282,0,110.796v-5.693C0,86.599,14.475,71.39,32.954,70.479l2.085-0.105
		l1.268,1.661c6.981,9.156,16.871,14.407,27.134,14.407c10.261,0,20.152-5.251,27.137-14.407l1.262-1.655l2.08,0.097
		c18.521,0.87,33.029,16.08,33.029,34.626v5.693C126.949,120.282,119.231,128,109.746,128z M31.373,78.577
		C18.082,80.211,7.939,91.503,7.939,105.104v5.693c0,5.109,4.158,9.265,9.269,9.265h92.538c5.109,0,9.265-4.155,9.265-9.265v-5.693
		c0-13.635-10.17-24.93-23.496-26.532c-8.41,10.075-19.987,15.81-32.074,15.81C51.356,94.381,39.78,88.65,31.373,78.577z"/>
	<path fill="#58595B" d="M63.443,83.351c-18.605,0-33.741-18.477-33.741-41.188S44.837,0.975,63.443,0.975
		c18.603,0,33.737,18.478,33.737,41.188S82.046,83.351,63.443,83.351z M63.443,8.914c-14.227,0-25.802,14.915-25.802,33.249
		s11.575,33.249,25.802,33.249c14.225,0,25.798-14.915,25.798-33.249S77.667,8.914,63.443,8.914z"/>
	<path fill="#515254" d="M147.532,84.324c-23.248,0-42.161-18.912-42.161-42.159C105.371,18.916,124.284,0,147.532,0
		c23.247,0,42.161,18.916,42.161,42.165C189.692,65.412,170.779,84.324,147.532,84.324z M147.532,7.939
		c-18.871,0-34.222,15.353-34.222,34.226c0,18.869,15.351,34.22,34.222,34.22s34.222-15.351,34.222-34.22
		C181.753,23.292,166.402,7.939,147.532,7.939z"/>
	<path fill="#515254" d="M164.72,45.894h-17.188c-2.192,0-3.97-1.777-3.97-3.969v-26.14c0-2.192,1.777-3.969,3.97-3.969
		c2.192,0,3.969,1.777,3.969,3.969v22.17h13.219c2.192,0,3.969,1.777,3.969,3.97C168.689,44.117,166.912,45.894,164.72,45.894z"/>
</g>
<g class="iconic-container iconic-md" data-width="47.423" data-height="32" display="none" transform="scale(4)">
	<path fill="#58595B" d="M27.436,32H4.302C1.93,32,0,30.07,0,27.699v-1.423c0-4.626,3.619-8.428,8.238-8.656l0.521-0.026
		l0.317,0.415c1.745,2.289,4.218,3.602,6.783,3.602s5.038-1.313,6.785-3.602l0.315-0.414l0.52,0.024
		c4.63,0.218,8.257,4.02,8.257,8.657v1.423C31.737,30.07,29.808,32,27.436,32z M7.843,19.644c-3.323,0.409-5.858,3.232-5.858,6.632
		v1.423c0,1.277,1.039,2.316,2.317,2.316h23.134c1.277,0,2.316-1.039,2.316-2.316v-1.423c0-3.409-2.542-6.232-5.874-6.633
		c-2.103,2.519-4.997,3.953-8.019,3.953C12.839,23.595,9.945,22.163,7.843,19.644z"/>
	<path fill="#58595B" d="M15.861,20.838c-4.651,0-8.436-4.62-8.436-10.297c0-5.678,3.784-10.297,8.436-10.297
		c4.65,0,8.434,4.62,8.434,10.297C24.295,16.218,20.511,20.838,15.861,20.838z M15.861,2.229c-3.557,0-6.451,3.729-6.451,8.313
		c0,4.583,2.894,8.312,6.451,8.312c3.556,0,6.449-3.729,6.449-8.312C22.31,5.957,19.417,2.229,15.861,2.229z"/>
	<path fill="#515254" d="M36.883,21.081c-5.812,0-10.54-4.728-10.54-10.54S31.071,0,36.883,0s10.54,4.729,10.54,10.541
		S42.695,21.081,36.883,21.081z M36.883,1.985c-4.718,0-8.555,3.838-8.555,8.556c0,4.717,3.837,8.555,8.555,8.555
		s8.555-3.838,8.555-8.555C45.438,5.823,41.601,1.985,36.883,1.985z"/>
	<path fill="#515254" d="M41.18,11.474h-4.297c-0.548,0-0.993-0.444-0.993-0.992V3.946c0-0.548,0.444-0.992,0.993-0.992
		c0.548,0,0.992,0.444,0.992,0.992v5.542h3.305c0.548,0,0.992,0.444,0.992,0.993C42.172,11.029,41.728,11.474,41.18,11.474z"/>
</g>
<g class="iconic-container iconic-sm" data-width="23.711" data-height="16" display="none" transform="scale(8)">
	<path fill="#58595B" d="M13.718,16H2.15C0.965,16,0,15.035,0,13.85v-0.712c0-2.313,1.809-4.214,4.119-4.328L4.38,8.797l0.158,0.208
		c0.873,1.145,2.109,1.801,3.392,1.801s2.519-0.656,3.393-1.801l0.157-0.207l0.26,0.012c2.315,0.109,4.128,2.01,4.128,4.328v0.712
		C15.868,15.035,14.903,16,13.718,16z M3.921,9.822c-1.662,0.204-2.929,1.616-2.929,3.315v0.712c0,0.639,0.52,1.158,1.158,1.158
		h11.567c0.639,0,1.158-0.52,1.158-1.158v-0.712c0-1.704-1.271-3.116-2.937-3.316c-1.051,1.26-2.499,1.977-4.009,1.977
		S4.972,11.081,3.921,9.822z"/>
	<path fill="#58595B" d="M7.93,10.419c-2.326,0-4.218-2.31-4.218-5.148S5.604,0.122,7.93,0.122c2.325,0,4.217,2.31,4.217,5.148
		S10.255,10.419,7.93,10.419z M7.93,1.114c-1.779,0-3.225,1.864-3.225,4.156c0,2.292,1.446,4.156,3.225,4.156
		c1.778,0,3.225-1.865,3.225-4.156C11.155,2.979,9.708,1.114,7.93,1.114z"/>
	<path fill="#515254" d="M18.441,10.541c-2.906,0-5.271-2.364-5.271-5.27S15.535,0,18.441,0c2.906,0,5.27,2.364,5.27,5.271
		S21.347,10.541,18.441,10.541z M18.441,0.992c-2.359,0-4.278,1.919-4.278,4.278c0,2.358,1.918,4.277,4.278,4.277
		c2.358,0,4.277-1.919,4.277-4.277C22.719,2.912,20.8,0.992,18.441,0.992z"/>
	<path fill="#515254" d="M20.59,5.737h-2.148c-0.274,0-0.497-0.222-0.497-0.496V1.973c0-0.274,0.222-0.496,0.497-0.496
		c0.273,0,0.496,0.222,0.496,0.496v2.771h1.652c0.274,0,0.496,0.223,0.496,0.497S20.864,5.737,20.59,5.737z"/>
</g>
</svg>
