<?xml version="1.0" encoding="utf-8"?>
<!-- Generator: Adobe Illustrator 16.0.0, SVG Export Plug-In . SVG Version: 6.00 Build 0)  -->
<!DOCTYPE svg PUBLIC "-//W3C//DTD SVG 1.1//EN" "http://www.w3.org/Graphics/SVG/1.1/DTD/svg11.dtd">
<svg version="1.1" xmlns="http://www.w3.org/2000/svg" xmlns:xlink="http://www.w3.org/1999/xlink" x="0px" y="0px"
	 width="113.992" height="128" viewBox="0 0 113.992 128" enable-background="new 0 0 113.992 128" class="iconic iconic-action" xml:space="preserve">
<g class="iconic-container iconic-lg" data-width="113.992" data-height="128" display="inline">
	<path fill="#515254" d="M97.168,128H16.832c-4.412,0-8-3.588-8-8V57.336c0-4.412,3.588-8,8-8h80.336c4.412,0,8,3.588,8,8V120
		C105.168,124.412,101.58,128,97.168,128z M97.168,120v4l0.004-4C97.17,120,97.17,120,97.168,120z M16.832,57.336V120h80.33
		l0.006-62.664H16.832z"/>
	<path fill="#515254" d="M3.998,67.939c-0.902,0-1.811-0.305-2.559-0.926c-1.697-1.414-1.926-3.938-0.514-5.635L48.898,3.795
		C50.912,1.383,53.863,0,57.002,0s6.09,1.383,8.102,3.793l47.963,57.574c1.412,1.697,1.184,4.221-0.514,5.635
		c-1.701,1.408-4.219,1.184-5.635-0.514L58.957,8.916C58.293,8.119,57.447,8,57.002,8s-1.291,0.119-1.957,0.918L7.074,66.5
		C6.281,67.449,5.145,67.939,3.998,67.939z"/>
</g>
<g class="iconic-container iconic-md" data-width="28.498" data-height="32" display="none" transform="scale(4)">
	<path fill="#515254" d="M24.292,32H4.208c-1.103,0-2-0.897-2-2V14.334c0-1.103,0.897-2,2-2h20.084c1.103,0,2,0.897,2,2V30
		C26.292,31.103,25.395,32,24.292,32z M24.292,30v1V30C24.292,30,24.292,30,24.292,30z M4.208,14.334V30h20.083l0.001-15.666H4.208z
		"/>
	<path fill="#515254" d="M1,16.985c-0.226,0-0.453-0.076-0.64-0.231c-0.424-0.354-0.481-0.984-0.128-1.409L12.225,0.949
		C12.728,0.346,13.466,0,14.25,0s1.522,0.346,2.025,0.948l11.991,14.394c0.353,0.424,0.296,1.055-0.128,1.409
		c-0.425,0.352-1.055,0.296-1.409-0.128L14.739,2.229C14.573,2.03,14.362,2,14.25,2s-0.323,0.03-0.489,0.229L1.769,16.625
		C1.57,16.862,1.286,16.985,1,16.985z"/>
</g>
<g class="iconic-container iconic-sm" data-width="14.249" data-height="16" display="none" transform="scale(8)">
	<path fill="#515254" d="M12.146,16H2.104c-0.552,0-1-0.449-1-1V7.167c0-0.551,0.448-1,1-1h10.042c0.552,0,1,0.449,1,1V15
		C13.146,15.551,12.698,16,12.146,16z M12.146,15v0.5V15C12.146,15,12.146,15,12.146,15z M2.104,7.167V15h10.041l0.001-7.833H2.104z
		"/>
	<path fill="#515254" d="M0.5,8.493c-0.112,0-0.226-0.038-0.319-0.116C-0.032,8.2-0.061,7.884,0.116,7.672l5.997-7.198
		C6.364,0.173,6.733,0,7.125,0c0.392,0,0.761,0.173,1.013,0.474l5.995,7.197c0.177,0.212,0.148,0.528-0.064,0.705
		c-0.212,0.176-0.527,0.147-0.704-0.064L7.37,1.115C7.287,1.015,7.181,1,7.125,1S6.964,1.015,6.88,1.115L0.884,8.313
		C0.785,8.431,0.643,8.493,0.5,8.493z"/>
</g>
</svg>
