<?xml version="1.0" encoding="utf-8"?>
<!-- Generator: Adobe Illustrator 16.0.0, SVG Export Plug-In . SVG Version: 6.00 Build 0)  -->
<!DOCTYPE svg PUBLIC "-//W3C//DTD SVG 1.1//EN" "http://www.w3.org/Graphics/SVG/1.1/DTD/svg11.dtd">
<svg version="1.1" xmlns="http://www.w3.org/2000/svg" xmlns:xlink="http://www.w3.org/1999/xlink" x="0px" y="0px"
	 width="105.804" height="128" viewBox="0 0 105.804 128" enable-background="new 0 0 105.804 128" class="iconic iconic-action" xml:space="preserve">
<g class="iconic-container iconic-lg" data-width="105.804" data-height="128" display="inline">
	<path fill="#515254" d="M65.778,95.395H7.42c-4.091,0-7.42-3.328-7.42-7.417V7.42C0,3.329,3.329,0,7.42,0h40.216
		c1.826,0,3.306,1.48,3.306,3.307v18.087c0,0.45,0.349,0.804,0.796,0.806l18.161,0.06c1.821,0.007,3.295,1.485,3.295,3.307v62.412
		C73.195,92.067,69.868,95.395,65.778,95.395z M7.42,6.613c-0.446,0-0.808,0.361-0.808,0.807v80.557
		c0,0.444,0.362,0.804,0.808,0.804h58.358c0.444,0,0.804-0.36,0.804-0.804V28.86l-14.865-0.048c-4.073-0.011-7.388-3.34-7.388-7.418
		V6.613H7.42z"/>
	<path fill="#515254" d="M82.084,111.694H23.716c-1.826,0-3.306-1.48-3.306-3.307s1.48-3.307,3.306-3.307h58.368
		c0.444,0,0.804-0.358,0.804-0.801V41.868c0-1.826,1.48-3.306,3.306-3.306c1.826,0,3.307,1.48,3.307,3.306v62.412
		C89.501,108.368,86.174,111.694,82.084,111.694z"/>
	<path fill="#515254" d="M98.387,128H40.023c-1.826,0-3.307-1.48-3.307-3.306c0-1.826,1.48-3.307,3.307-3.307h58.364
		c0.444,0,0.804-0.36,0.804-0.804V58.171c0-1.826,1.48-3.307,3.306-3.307c1.826,0,3.307,1.48,3.307,3.307v62.412
		C105.804,124.673,102.477,128,98.387,128z"/>
</g>
<g class="iconic-container iconic-md" data-width="26.451" data-height="32" display="none" transform="scale(4)">
	<path fill="#515254" d="M16.444,23.849H1.855C0.832,23.849,0,23.017,0,21.995V1.855C0,0.833,0.832,0,1.855,0h10.054
		c0.456,0,0.826,0.37,0.826,0.827v4.521c0,0.113,0.087,0.201,0.199,0.202l4.54,0.015c0.456,0.001,0.824,0.371,0.824,0.826v15.604
		C18.299,23.017,17.467,23.849,16.444,23.849z M1.855,1.653c-0.111,0-0.202,0.09-0.202,0.202v20.14c0,0.111,0.091,0.201,0.202,0.201
		h14.589c0.111,0,0.201-0.09,0.201-0.201V7.215l-3.716-0.012c-1.018-0.003-1.847-0.835-1.847-1.855V1.653H1.855z"/>
	<path fill="#515254" d="M20.521,27.923H5.929c-0.456,0-0.826-0.37-0.826-0.826c0-0.457,0.37-0.827,0.826-0.827h14.592
		c0.111,0,0.201-0.089,0.201-0.2V10.467c0-0.457,0.37-0.827,0.826-0.827c0.457,0,0.827,0.37,0.827,0.827V26.07
		C22.375,27.092,21.543,27.923,20.521,27.923z"/>
	<path fill="#515254" d="M24.597,32H10.005c-0.457,0-0.827-0.37-0.827-0.827s0.37-0.827,0.827-0.827h14.591
		c0.111,0,0.201-0.09,0.201-0.201V14.543c0-0.457,0.37-0.827,0.826-0.827c0.457,0,0.827,0.37,0.827,0.827v15.603
		C26.451,31.168,25.619,32,24.597,32z"/>
</g>
<g class="iconic-container iconic-sm" data-width="13.225" data-height="16" display="none" transform="scale(8)">
	<path fill="#515254" d="M8.222,11.924H0.927C0.416,11.924,0,11.508,0,10.998V0.927C0,0.417,0.416,0,0.927,0h5.027
		c0.228,0,0.413,0.185,0.413,0.414v2.261c0,0.056,0.043,0.101,0.1,0.101l2.27,0.008c0.228,0,0.412,0.186,0.412,0.413v7.802
		C9.149,11.508,8.733,11.924,8.222,11.924z M0.927,0.827c-0.056,0-0.101,0.045-0.101,0.101v10.07c0,0.055,0.045,0.1,0.101,0.1h7.295
		c0.055,0,0.101-0.045,0.101-0.1v-7.39L6.464,3.602C5.956,3.6,5.541,3.184,5.541,2.674V0.827H0.927z"/>
	<path fill="#515254" d="M10.26,13.961H2.964c-0.228,0-0.413-0.185-0.413-0.413s0.185-0.413,0.413-0.413h7.296
		c0.056,0,0.101-0.045,0.101-0.101V5.234c0-0.229,0.185-0.414,0.413-0.414c0.229,0,0.414,0.185,0.414,0.414v7.801
		C11.188,13.546,10.771,13.961,10.26,13.961z"/>
	<path fill="#515254" d="M12.298,16H5.002c-0.228,0-0.413-0.185-0.413-0.414c0-0.228,0.185-0.413,0.413-0.413h7.296
		c0.055,0,0.101-0.045,0.101-0.101V7.271c0-0.228,0.185-0.414,0.413-0.414s0.413,0.186,0.413,0.414v7.801
		C13.225,15.584,12.81,16,12.298,16z"/>
</g>
</svg>
