<?xml version="1.0" encoding="utf-8"?>
<!-- Generator: Adobe Illustrator 16.0.0, SVG Export Plug-In . SVG Version: 6.00 Build 0)  -->
<!DOCTYPE svg PUBLIC "-//W3C//DTD SVG 1.1//EN" "http://www.w3.org/Graphics/SVG/1.1/DTD/svg11.dtd">
<svg version="1.1" xmlns="http://www.w3.org/2000/svg" xmlns:xlink="http://www.w3.org/1999/xlink" x="0px" y="0px"
	 width="137.069" height="128" viewBox="0 0 137.069 128" enable-background="new 0 0 137.069 128" class="iconic iconic-action" xml:space="preserve">
<g class="iconic-container iconic-lg" data-width="137.069" data-height="128" display="inline">
	<path fill="#EF3B39" d="M109.21,7.151C94.647,0.757,78.673,5.368,68.564,17.373C58.482,5.341,42.519,0.684,27.941,7.038
		C8.815,15.377-0.646,39.479,6.815,60.868c13.5,38.736,61.634,62.362,61.634,62.362s48.186-23.497,61.772-62.197
		C137.728,39.667,128.32,15.54,109.21,7.151"/>
	<path fill="#BE1E2D" d="M68.443,128l-1.881-0.925c-2.031-0.996-49.874-24.861-63.793-64.797
		c-8.17-23.423,2.354-49.966,23.459-59.167c14.241-6.216,30.932-2.9,42.345,8.011C80.006,0.249,96.714-3.013,110.932,3.228
		c21.086,9.255,31.553,35.826,23.331,59.226c-14.007,39.901-61.904,63.636-63.936,64.628L68.443,128z M41.406,8.479
		c-4.013,0-7.967,0.837-11.753,2.486c-17.089,7.452-25.52,29.206-18.792,48.493c11.293,32.403,48.74,54.172,57.592,58.942
		c8.862-4.755,46.381-26.47,57.726-58.785c6.768-19.271-1.615-41.046-18.691-48.542C95.247,5.701,80.836,9.45,71.843,20.132
		l-3.287,3.902l-3.276-3.91C59.079,12.724,50.375,8.479,41.406,8.479z"/>
</g>
<g class="iconic-container iconic-md" data-width="34.267" data-height="32" display="none" transform="scale(4)">
	<path fill="#EF3B39" d="M27.302,1.788c-3.641-1.599-7.634-0.446-10.161,2.556C14.621,1.335,10.63,0.171,6.985,1.759
		C2.204,3.844-0.162,9.87,1.704,15.217c3.375,9.684,15.409,15.59,15.409,15.59s12.046-5.874,15.443-15.549
		C34.432,9.917,32.08,3.885,27.302,1.788"/>
	<path fill="#BE1E2D" d="M17.111,32l-0.47-0.231C16.133,31.52,4.172,25.553,0.692,15.569C-1.35,9.713,1.281,3.078,6.557,0.777
		c3.56-1.554,7.733-0.725,10.586,2.003c2.858-2.718,7.035-3.534,10.59-1.974c5.271,2.314,7.888,8.957,5.833,14.807
		C30.064,25.588,18.09,31.522,17.582,31.77L17.111,32z M10.352,2.12c-1.003,0-1.992,0.209-2.938,0.622
		c-4.272,1.863-6.38,7.301-4.698,12.123C5.539,22.965,14.9,28.407,17.113,29.6c2.215-1.189,11.595-6.617,14.432-14.696
		c1.692-4.818-0.404-10.262-4.673-12.136c-3.061-1.343-6.663-0.406-8.912,2.265l-0.822,0.976L16.32,5.031
		C14.77,3.181,12.594,2.12,10.352,2.12z"/>
</g>
<g class="iconic-container iconic-sm" data-width="17.134" data-height="16" display="none" transform="scale(8)">
	<path fill="#EF3B39" d="M13.651,0.894c-1.82-0.8-3.817-0.223-5.081,1.277c-1.26-1.504-3.255-2.086-5.078-1.292
		C1.102,1.922-0.081,4.935,0.852,7.608c1.688,4.842,7.705,7.795,7.705,7.795s6.023-2.937,7.721-7.774
		C17.216,4.958,16.041,1.942,13.651,0.894"/>
	<path fill="#BE1E2D" d="M8.556,16l-0.235-0.116c-0.254-0.125-6.234-3.108-7.974-8.1c-1.021-2.928,0.294-6.246,2.932-7.396
		c1.78-0.777,3.867-0.362,5.293,1.001c1.429-1.359,3.518-1.767,5.295-0.987c2.636,1.157,3.944,4.478,2.917,7.403
		c-1.751,4.987-7.738,7.955-7.992,8.078L8.556,16z M5.176,1.06c-0.502,0-0.996,0.104-1.469,0.311
		c-2.136,0.932-3.19,3.65-2.349,6.062c1.412,4.05,6.093,6.771,7.199,7.368c1.107-0.595,5.797-3.309,7.216-7.348
		c0.846-2.409-0.202-5.131-2.336-6.067c-1.53-0.672-3.332-0.203-4.456,1.132L8.57,3.004L8.16,2.515
		C7.385,1.59,6.297,1.06,5.176,1.06z"/>
</g>
</svg>
