<?xml version="1.0" encoding="utf-8"?>
<!-- Generator: Adobe Illustrator 16.0.0, SVG Export Plug-In . SVG Version: 6.00 Build 0)  -->
<!DOCTYPE svg PUBLIC "-//W3C//DTD SVG 1.1//EN" "http://www.w3.org/Graphics/SVG/1.1/DTD/svg11.dtd">
<svg version="1.1" xmlns="http://www.w3.org/2000/svg" xmlns:xlink="http://www.w3.org/1999/xlink" x="0px" y="0px"
	 width="137.074" height="128" viewBox="0 0 137.074 128" enable-background="new 0 0 137.074 128" class="iconic iconic-action" xml:space="preserve">
<g class="iconic-container iconic-lg" data-width="137.074" data-height="128" display="inline">
  <path fill="#515254" d="M68.446,128l-1.881-0.925c-2.031-0.996-49.878-24.859-63.797-64.799C-5.4,38.851,5.125,12.308,26.229,3.106
	c14.246-6.208,30.939-2.896,42.346,8.009C80.001,0.242,96.705-3.026,110.934,3.223c21.087,9.258,31.557,35.827,23.334,59.228
	c-14.009,39.902-61.906,63.638-63.937,64.63L68.446,128z M41.406,8.475c-4.011,0-7.965,0.837-11.751,2.486
	C12.565,18.413,4.134,40.167,10.86,59.455c11.293,32.404,48.744,54.173,57.596,58.943c8.862-4.755,46.379-26.47,57.728-58.786
	c6.768-19.269-1.617-41.045-18.694-48.543c-12.246-5.373-26.652-1.621-35.645,9.06l-3.287,3.902l-3.276-3.91
	C59.081,12.72,50.378,8.475,41.406,8.475z"/>
</g>
<g class="iconic-container iconic-md" data-width="34.269" data-height="32" display="none" transform="scale(4)">
  <path fill="#515254" d="M17.111,32l-0.47-0.231c-0.508-0.249-12.47-6.215-15.949-16.2C-1.35,9.712,1.281,3.077,6.557,0.776
	c3.562-1.552,7.735-0.724,10.587,2.002C20,0.061,24.176-0.757,27.733,0.806c5.272,2.314,7.889,8.957,5.833,14.807
	c-3.502,9.976-15.477,15.91-15.984,16.157L17.111,32z M10.352,2.119c-1.003,0-1.991,0.209-2.938,0.621
	c-4.272,1.863-6.38,7.302-4.699,12.124C5.538,22.964,14.901,28.407,17.114,29.6c2.215-1.189,11.595-6.618,14.432-14.697
	c1.692-4.817-0.404-10.261-4.673-12.136c-3.062-1.343-6.663-0.405-8.911,2.265L17.14,6.007L16.321,5.03
	C14.77,3.18,12.594,2.119,10.352,2.119z"/>
</g>
<g class="iconic-container iconic-sm" data-width="17.134" data-height="16" display="none" transform="scale(8)">
  <path fill="#515254" d="M8.556,16l-0.235-0.116c-0.254-0.125-6.235-3.107-7.975-8.1c-1.021-2.928,0.294-6.246,2.933-7.396
	C5.06-0.388,7.146,0.026,8.572,1.389C10,0.03,12.088-0.378,13.867,0.403c2.636,1.157,3.945,4.478,2.917,7.403
	c-1.751,4.988-7.738,7.955-7.992,8.079L8.556,16z M5.176,1.059c-0.501,0-0.996,0.104-1.469,0.311
	c-2.136,0.932-3.19,3.651-2.35,6.062c1.412,4.05,6.093,6.771,7.2,7.368c1.108-0.595,5.797-3.309,7.216-7.349
	c0.846-2.409-0.202-5.13-2.336-6.068c-1.531-0.671-3.332-0.202-4.456,1.133L8.57,3.003L8.161,2.515
	C7.385,1.59,6.297,1.059,5.176,1.059z"/>
</g>
</svg>
