<?xml version="1.0" encoding="utf-8"?>
<!-- Generator: Adobe Illustrator 16.0.0, SVG Export Plug-In . SVG Version: 6.00 Build 0)  -->
<!DOCTYPE svg PUBLIC "-//W3C//DTD SVG 1.1//EN" "http://www.w3.org/Graphics/SVG/1.1/DTD/svg11.dtd">
<svg version="1.1" xmlns="http://www.w3.org/2000/svg" xmlns:xlink="http://www.w3.org/1999/xlink" x="0px" y="0px"
	 width="181.753" height="128" viewBox="0 0 181.753 128" enable-background="new 0 0 181.753 128" class="iconic iconic-action" xml:space="preserve">
<g class="iconic-container iconic-lg" data-width="181.753" data-height="128" display="inline">
	<path fill="#515254" d="M164.714,128H17.04C7.644,128,0,120.357,0,110.961V17.039C0,7.643,7.644,0,17.04,0h147.674
		c9.396,0,17.04,7.643,17.04,17.039v93.922C181.753,120.357,174.11,128,164.714,128z M17.04,11.359c-3.131,0-5.68,2.549-5.68,5.68
		v93.922c0,3.131,2.548,5.68,5.68,5.68h147.674c3.131,0,5.68-2.549,5.68-5.68V17.039c0-3.131-2.548-5.68-5.68-5.68H17.04z"/>
	<path fill="#515254" d="M90.872,79.802c-5.364,0-10.725-2.016-14.904-6.048L12.375,12.419c-2.258-2.177-2.321-5.774-0.145-8.032
		c2.18-2.252,5.774-2.315,8.032-0.144l63.592,61.335c3.933,3.799,10.098,3.794,14.024,0.005L162.77,3.009
		c2.26-2.172,5.854-2.108,8.031,0.144c2.177,2.26,2.113,5.854-0.144,8.031l-64.89,62.575C101.59,77.789,96.229,79.802,90.872,79.802
		z"/>
	<path fill="#515254" d="M5.686,106.967c-1.842,0-3.647-0.893-4.74-2.541c-1.733-2.615-1.018-6.14,1.595-7.874l60.802-40.305
		c2.621-1.745,6.143-1.018,7.874,1.595c1.733,2.615,1.018,6.14-1.595,7.874L8.82,106.021C7.852,106.662,6.762,106.967,5.686,106.967
		z"/>
	<path fill="#515254" d="M176.068,107.233c-1.076,0-2.163-0.305-3.128-0.943l-60.347-39.911c-2.615-1.73-3.334-5.252-1.603-7.871
		c1.728-2.618,5.25-3.333,7.871-1.603l60.348,39.911c2.615,1.73,3.333,5.252,1.603,7.871
		C179.718,106.337,177.91,107.233,176.068,107.233z"/>
</g>
<g class="iconic-container iconic-md" data-width="45.438" data-height="32" display="none" transform="scale(4)">
	<path fill="#515254" d="M41.178,32H4.26C1.911,32,0,30.089,0,27.74V4.26C0,1.911,1.911,0,4.26,0h36.918
		c2.349,0,4.26,1.911,4.26,4.26v23.48C45.438,30.089,43.527,32,41.178,32z M4.26,2.84c-0.783,0-1.42,0.637-1.42,1.42v23.48
		c0,0.783,0.637,1.42,1.42,1.42h36.918c0.783,0,1.42-0.637,1.42-1.42V4.26c0-0.783-0.637-1.42-1.42-1.42H4.26z"/>
	<path fill="#515254" d="M22.718,19.951c-1.341,0-2.681-0.504-3.726-1.512L3.094,3.104c-0.564-0.544-0.58-1.443-0.036-2.008
		c0.545-0.563,1.444-0.579,2.008-0.036l15.898,15.334c0.983,0.95,2.524,0.948,3.506,0.001L40.692,0.752
		c0.565-0.543,1.464-0.527,2.008,0.036c0.544,0.565,0.528,1.464-0.036,2.008L26.442,18.44
		C25.397,19.447,24.057,19.951,22.718,19.951z"/>
	<path fill="#515254" d="M1.421,26.742c-0.46,0-0.912-0.223-1.185-0.635c-0.433-0.653-0.254-1.535,0.399-1.968l15.201-10.076
		c0.655-0.436,1.536-0.254,1.968,0.399c0.433,0.654,0.254,1.535-0.399,1.968l-15.2,10.076C1.963,26.666,1.69,26.742,1.421,26.742z"
		/>
	<path fill="#515254" d="M44.017,26.809c-0.269,0-0.541-0.077-0.782-0.236l-15.087-9.978c-0.654-0.433-0.833-1.313-0.401-1.968
		c0.432-0.654,1.313-0.833,1.968-0.4l15.087,9.978c0.654,0.433,0.833,1.313,0.401,1.968C44.929,26.584,44.478,26.809,44.017,26.809z
		"/>
</g>
<g class="iconic-container iconic-sm" data-width="22.719" data-height="16" display="none" transform="scale(8)">
	<path fill="#515254" d="M20.589,16H2.13C0.956,16,0,15.044,0,13.87V2.13C0,0.956,0.956,0,2.13,0h18.459
		c1.174,0,2.13,0.956,2.13,2.13v11.74C22.719,15.044,21.764,16,20.589,16z M2.13,1.42c-0.391,0-0.71,0.319-0.71,0.71v11.74
		c0,0.391,0.319,0.71,0.71,0.71h18.459c0.392,0,0.71-0.319,0.71-0.71V2.13c0-0.391-0.318-0.71-0.71-0.71H2.13z"/>
	<path fill="#515254" d="M11.359,9.975c-0.67,0-1.34-0.252-1.863-0.756L1.547,1.552C1.265,1.28,1.257,0.831,1.529,0.548
		C1.801,0.267,2.251,0.259,2.533,0.53l7.949,7.667c0.492,0.475,1.262,0.474,1.753,0l8.111-7.821
		c0.283-0.271,0.732-0.264,1.004,0.018c0.272,0.283,0.264,0.732-0.018,1.004L13.221,9.22C12.699,9.724,12.029,9.975,11.359,9.975z"
		/>
	<path fill="#515254" d="M0.711,13.371c-0.23,0-0.456-0.111-0.593-0.317c-0.216-0.327-0.127-0.768,0.2-0.984l7.6-5.038
		c0.328-0.218,0.768-0.127,0.984,0.2s0.127,0.768-0.2,0.984l-7.6,5.038C0.981,13.333,0.845,13.371,0.711,13.371z"/>
	<path fill="#515254" d="M22.009,13.404c-0.135,0-0.271-0.039-0.391-0.118l-7.543-4.989c-0.327-0.216-0.417-0.656-0.201-0.984
		c0.216-0.327,0.656-0.417,0.984-0.2l7.543,4.989c0.327,0.216,0.417,0.657,0.201,0.984C22.465,13.292,22.239,13.404,22.009,13.404z"
		/>
</g>
</svg>
