<?xml version="1.0" encoding="utf-8"?>
<!DOCTYPE svg PUBLIC "-//W3C//DTD SVG 1.1//EN" "http://www.w3.org/Graphics/SVG/1.1/DTD/svg11.dtd">
<svg version="1.1" xmlns="http://www.w3.org/2000/svg" xmlns:xlink="http://www.w3.org/1999/xlink" x="0px" y="0px"
	 width="127.998" height="128" viewBox="0 0 127.998 128" enable-background="new 0 0 127.998 128" class="iconic iconic-action" xml:space="preserve">

  <g class="iconic-ban-lg iconic-container iconic-lg" data-width="127.998" data-height="128" display="inline">
    <path fill="#515254" d="M63.999,128C28.71,128,0,99.289,0,63.999C0,28.71,28.71,0,63.999,0s63.999,28.71,63.999,63.999
		C127.998,99.289,99.288,128,63.999,128z M63.999,8C33.121,8,8,33.12,8,63.999C8,94.877,33.121,120,63.999,120
		s55.999-25.123,55.999-56.001C119.998,33.12,94.877,8,63.999,8z"/>
    <path fill="#515254" d="M91.002,67.624H63.999c-2.209,0-4-1.791-4-4V22.56c0-2.209,1.791-4,4-4s4,1.791,4,4v37.064h23.003
		c2.209,0,4,1.791,4,4C95.002,65.833,93.211,67.624,91.002,67.624z"/>
  </g>
  
  <g class="iconic-ban-md iconic-container iconic-md" data-width="32" data-height="32" display="none" transform="scale(4)">
    <path fill="#515254" d="M16,32C7.178,32,0,24.822,0,16C0,7.177,7.178,0,16,0s16,7.177,16,16C32,24.822,24.822,32,16,32z M16,2
		C8.28,2,2,8.28,2,16s6.28,14,14,14s14-6.281,14-14S23.72,2,16,2z"/>
    <path fill="#515254" d="M22.751,16.906H16c-0.552,0-1-0.448-1-1V5.64c0-0.552,0.448-1,1-1s1,0.448,1,1v9.266h5.751
		c0.552,0,1,0.448,1,1C23.751,16.458,23.303,16.906,22.751,16.906z"/>
  </g>
  <g class="iconic-ban-sm iconic-container iconic-sm" data-width="16" data-height="16" display="none" transform="scale(8)">
    <path fill="#515254" d="M8,16c-4.411,0-8-3.589-8-8s3.589-8,8-8s8,3.589,8,8S12.411,16,8,16z M8,1C4.14,1,1,4.14,1,8s3.14,7,7,7
		s7-3.14,7-7S11.86,1,8,1z"/>
    <path fill="#515254" d="M11.375,8.453H8c-0.276,0-0.5-0.224-0.5-0.5V2.82c0-0.276,0.224-0.5,0.5-0.5s0.5,0.224,0.5,0.5v4.633h2.875
		c0.276,0,0.5,0.224,0.5,0.5C11.875,8.229,11.651,8.453,11.375,8.453z"/>
  </g>
</svg>
