<?xml version="1.0" encoding="utf-8"?>
<!-- Generator: Adobe Illustrator 16.0.0, SVG Export Plug-In . SVG Version: 6.00 Build 0)  -->
<!DOCTYPE svg PUBLIC "-//W3C//DTD SVG 1.1//EN" "http://www.w3.org/Graphics/SVG/1.1/DTD/svg11.dtd">
<svg version="1.1" xmlns="http://www.w3.org/2000/svg" xmlns:xlink="http://www.w3.org/1999/xlink" x="0px" y="0px"
	 width="74.105" height="128" viewBox="0 0 74.105 128" enable-background="new 0 0 74.105 128" class="iconic iconic-action" xml:space="preserve">
<g class="iconic-container iconic-lg" data-width="74.105" data-height="128" display="inline">
	<polygon fill="#FFFFFF" points="1.685,1.684 1.685,126.316 72.421,126.316 72.421,16.842 48.985,1.684 	"/>
	<path fill="#3399FF" d="M74.105,128H0V0h49.483l24.623,15.926V128z M3.369,124.631h67.368V17.758L48.488,3.369H3.369V124.631z"/>
	<rect x="47.3" y="1.684" fill="#3399FF" width="3.368" height="18.535"/>
	<rect x="48.842" y="16.842" fill="#3399FF" width="23.579" height="3.368"/>
	<rect x="11.79" y="33.684" fill="#3399FF" width="52.21" height="3.369"/>
	<rect x="11.79" y="43.79" fill="#3399FF" width="52.21" height="3.368"/>
	<rect x="11.79" y="55.579" fill="#3399FF" width="52.21" height="3.368"/>
</g>
<g class="iconic-container iconic-md" data-width="18.526" data-height="32" display="none" transform="scale(4)">
	<polygon fill="#FFFFFF" points="0.421,0.421 0.421,31.579 18.105,31.579 18.105,4.21 12.246,0.421 	"/>
	<path fill="#3399FF" d="M18.526,32H0V0h12.371l6.156,3.981V32z M0.842,31.158h16.842V4.439l-5.562-3.597H0.842V31.158z"/>
	<rect x="11.825" y="0.421" fill="#3399FF" width="0.842" height="4.634"/>
	<rect x="12.21" y="4.21" fill="#3399FF" width="5.895" height="0.842"/>
	<rect x="2.947" y="8.421" fill="#3399FF" width="13.053" height="0.842"/>
	<rect x="2.947" y="10.947" fill="#3399FF" width="13.053" height="0.842"/>
	<rect x="2.947" y="13.895" fill="#3399FF" width="13.053" height="0.842"/>
</g>
<g class="iconic-container iconic-sm" data-width="8.938" data-height="16" display="none" transform="scale(8)">
	<polygon fill="#FFFFFF" points="0.21,0.21 0.21,15.79 9.053,15.79 9.053,2.105 6.123,0.21 	"/>
	<path fill="#3399FF" d="M9.263,16H0V0h6.185l3.078,1.991V16z M0.421,15.579h8.421V2.22L6.061,0.421h-5.64V15.579z"/>
	<rect x="5.912" y="0.21" fill="#3399FF" width="0.421" height="2.317"/>
	<rect x="6.105" y="2.105" fill="#3399FF" width="2.948" height="0.421"/>
	<rect x="1.474" y="4.21" fill="#3399FF" width="6.526" height="0.421"/>
	<rect x="1.474" y="5.474" fill="#3399FF" width="6.526" height="0.421"/>
	<rect x="1.474" y="6.947" fill="#3399FF" width="6.526" height="0.421"/>
</g>
</svg>
