<?xml version="1.0" standalone="no"?>
<!DOCTYPE svg PUBLIC "-//W3C//DTD SVG 20010904//EN"
 "http://www.w3.org/TR/2001/REC-SVG-20010904/DTD/svg10.dtd">
<svg version="1.1" id="Layer_1" xmlns=" http://www.w3.org/2000/svg" xmlns:xlink=" http://www.w3.org/1999/xlink" x="0px" y="0px"
  width="127.998" height="128" viewBox="0 0 127.998 128" enable-background="new 0 0 127.998 128" class="iconic iconic-action" xml:space="preserve">

  <g class="iconic-ban-lg iconic-container iconic-lg" data-width="127.998" data-height="128" transform="translate(0.000000,128.000000) scale(0.100000,-0.100000)"
fill="#000000" stroke="none">
    <path fill="#F89939" d="M6.262,128C2.809,128,0,125.18,0,121.711V15.412C0,6.914,6.824,0,15.211,0h97.572
		c8.389,0,15.215,6.914,15.215,15.412v67.186c0,8.498-6.826,15.41-15.215,15.41h-76.18c-0.414,0-0.811,0.172-1.119,0.482L10.809,126
		C9.496,127.338,7.928,128,6.262,128z M15.211,8C11.234,8,8,11.324,8,15.412v101.744l21.662-24.148c1.951-1.984,4.371-3,6.941-3
		h76.18c3.979,0,7.215-3.324,7.215-7.41V15.412c0-4.088-3.236-7.412-7.215-7.412H15.211z"/>
    <path fill="#F89939" d="M41.502,48.994c0,4.145-3.359,7.504-7.504,7.504s-7.504-3.359-7.504-7.504s3.359-7.504,7.504-7.504
		S41.502,44.85,41.502,48.994"/>
    <path fill="#F89939" d="M71.502,48.994c0,4.141-3.355,7.496-7.496,7.496c-4.137,0-7.496-3.355-7.496-7.496s3.359-7.496,7.496-7.496
		C68.146,41.498,71.502,44.854,71.502,48.994"/>
    <path fill="#F89939" d="M101.506,48.994c0,4.141-3.355,7.496-7.496,7.496s-7.496-3.355-7.496-7.496s3.355-7.496,7.496-7.496
		S101.506,44.854,101.506,48.994"/>
  </g>
  
  <g class="iconic-ban-md iconic-container iconic-md" data-width="32" data-height="32" transform="translate(0.000000,32.000000) scale(0.100000,-0.100000)"
fill="#000000" stroke="none">
    <path fill="#F89939" d="M1.565,32C0.702,32,0,31.295,0,30.428V3.853C0,1.729,1.706,0,3.803,0h24.394C30.293,0,32,1.729,32,3.853
		v16.796c0,2.125-1.707,3.853-3.804,3.853H9.151c-0.104,0-0.203,0.043-0.28,0.121L2.702,31.5C2.374,31.834,1.982,32,1.565,32z
		 M3.803,2C2.809,2,2,2.831,2,3.853v25.436l5.416-6.037c0.487-0.496,1.093-0.75,1.735-0.75h19.045c0.994,0,1.804-0.831,1.804-1.853
		V3.853C30,2.831,29.19,2,28.196,2H3.803z"/>
    <path fill="#F89939" d="M10.376,12.249c0,1.036-0.84,1.876-1.876,1.876s-1.876-0.84-1.876-1.876s0.84-1.876,1.876-1.876
		S10.376,11.212,10.376,12.249"/>
    <path fill="#F89939" d="M17.876,12.249c0,1.035-0.839,1.874-1.874,1.874c-1.034,0-1.874-0.839-1.874-1.874s0.84-1.874,1.874-1.874
		C17.037,10.375,17.876,11.213,17.876,12.249"/>
    <path fill="#F89939" d="M25.377,12.249c0,1.035-0.839,1.874-1.874,1.874s-1.874-0.839-1.874-1.874s0.839-1.874,1.874-1.874
		S25.377,11.213,25.377,12.249"/>
  </g>
  <g class="iconic-ban-sm iconic-container iconic-sm" data-width="16" data-height="16" transform="translate(0.000000,16.000000) scale(0.100000,-0.100000)"
fill="#000000" stroke="none">
    <path fill="#F89939" d="M0.783,16C0.351,16,0,15.647,0,15.214V1.926C0,0.864,0.853,0,1.901,0h12.197C15.146,0,16,0.864,16,1.926
		v8.398c0,1.063-0.854,1.927-1.902,1.927H4.576c-0.052,0-0.102,0.021-0.14,0.06L1.351,15.75C1.187,15.917,0.991,16,0.783,16z
		 M1.901,1C1.404,1,1,1.415,1,1.926v12.719l2.708-3.019c0.244-0.248,0.546-0.375,0.868-0.375h9.522c0.497,0,0.902-0.416,0.902-0.927
		V1.926C15,1.415,14.595,1,14.098,1H1.901z"/>
    <path fill="#F89939" d="M5.188,6.124c0,0.518-0.42,0.938-0.938,0.938s-0.938-0.42-0.938-0.938c0-0.519,0.42-0.938,0.938-0.938
		S5.188,5.605,5.188,6.124"/>
    <path fill="#F89939" d="M8.938,6.124c0,0.518-0.419,0.937-0.937,0.937c-0.517,0-0.937-0.419-0.937-0.937s0.42-0.938,0.937-0.938
		C8.519,5.187,8.938,5.606,8.938,6.124"/>
    <path fill="#F89939" d="M12.688,6.124c0,0.518-0.419,0.937-0.937,0.937s-0.937-0.419-0.937-0.937s0.419-0.938,0.937-0.938
		S12.688,5.606,12.688,6.124"/>
  </g>
</svg>
