<?xml version="1.0" standalone="no"?>
<!DOCTYPE svg PUBLIC "-//W3C//DTD SVG 20010904//EN"
 "http://www.w3.org/TR/2001/REC-SVG-20010904/DTD/svg10.dtd">
  <svg version="1.1" id="Layer_1" xmlns=" http://www.w3.org/2000/svg" xmlns:xlink=" http://www.w3.org/1999/xlink" x="0px" y="0px"
  width="109.625" height="128" viewBox="0 0 109.625 128" enable-background="new 0 0 109.625 128" class="iconic iconic-action" xml:space="preserve">

  <g class="iconic-ban-lg iconic-container iconic-lg" data-width="109.625" data-height="128" transform="translate(0.000000,128.000000) scale(0.100000,-0.100000)"
fill="#000000" stroke="none">
    <path fill="#515254" d="M94.148,43.299H15.477C6.943,43.299,0,36.355,0,27.822s6.943-15.475,15.477-15.475h78.672
		c8.533,0,15.477,6.941,15.477,15.475S102.682,43.299,94.148,43.299z M15.477,20.348C11.354,20.348,8,23.701,8,27.822
		c0,4.123,3.354,7.477,7.477,7.477h78.672c4.123,0,7.477-3.354,7.477-7.477c0-4.121-3.354-7.475-7.477-7.475H15.477z"/>
    <path fill="#515254" d="M82.281,128H27.346c-5.721,0-10.467-4.293-11.037-9.984L8.48,39.697l7.961-0.797l7.828,78.318
		c0.158,1.586,1.48,2.781,3.076,2.781h54.936c1.592,0,2.912-1.195,3.07-2.781L93.18,38.9l7.961,0.797l-7.828,78.318
		C92.742,123.707,88,128,82.281,128z"/>
    <path fill="#515254" d="M71.754,16.107c-2.209,0-4-1.791-4-4C67.754,9.842,65.91,8,63.645,8H45.979
		c-2.268,0-4.113,1.842-4.113,4.107c0,2.209-1.791,4-4,4s-4-1.791-4-4C33.865,5.432,39.299,0,45.979,0h17.666
		c6.678,0,12.109,5.432,12.109,12.107C75.754,14.316,73.963,16.107,71.754,16.107z"/>
  </g>

  <g class="iconic-ban-md iconic-container iconic-md" data-width="27.406" data-height="32" transform="translate(0.000000,32.000000) scale(0.100000,-0.100000)"
fill="#000000" stroke="none">
    <path fill="#515254" d="M23.537,10.824H3.869C1.736,10.824,0,9.089,0,6.955c0-2.133,1.736-3.868,3.869-3.868h19.668
		c2.133,0,3.869,1.735,3.869,3.868C27.406,9.089,25.67,10.824,23.537,10.824z M3.869,5.087C2.838,5.087,2,5.926,2,6.955
		c0,1.031,0.838,1.869,1.869,1.869h19.668c1.031,0,1.869-0.838,1.869-1.869c0-1.029-0.838-1.868-1.869-1.868H3.869z"/>
    <path fill="#515254" d="M20.57,32H6.836c-1.43,0-2.617-1.073-2.759-2.496L2.12,9.924l1.99-0.199l1.957,19.58
		C6.107,29.701,6.438,30,6.836,30H20.57c0.398,0,0.728-0.299,0.768-0.695l1.957-19.58l1.99,0.199l-1.957,19.58
		C23.186,30.927,22,32,20.57,32z"/>
    <path fill="#515254" d="M17.938,4.027c-0.552,0-1-0.448-1-1C16.938,2.461,16.478,2,15.911,2h-4.417
		c-0.567,0-1.028,0.461-1.028,1.027c0,0.552-0.448,1-1,1s-1-0.448-1-1C8.466,1.357,9.825,0,11.495,0h4.417
		c1.669,0,3.027,1.357,3.027,3.027C18.938,3.579,18.491,4.027,17.938,4.027z"/>
  </g>
  <g class="iconic-ban-sm iconic-container iconic-sm" data-width="13.703" data-height="16" transform="translate(0.000000,16.000000) scale(0.100000,-0.100000)"
fill="#000000" stroke="none">
    <path fill="#515254" d="M11.769,5.412H1.935C0.868,5.412,0,4.545,0,3.478c0-1.066,0.868-1.935,1.935-1.935h9.834
		c1.066,0,1.935,0.868,1.935,1.935C13.703,4.545,12.835,5.412,11.769,5.412z M1.935,2.543C1.419,2.543,1,2.963,1,3.478
		c0,0.516,0.419,0.935,0.935,0.935h9.834c0.516,0,0.935-0.419,0.935-0.935c0-0.515-0.419-0.935-0.935-0.935H1.935z"/>
    <path fill="#515254" d="M10.285,16H3.418c-0.715,0-1.308-0.537-1.379-1.248L1.06,4.962l0.995-0.1l0.979,9.79
		C3.054,14.851,3.219,15,3.418,15h6.867c0.199,0,0.364-0.149,0.384-0.348l0.979-9.79l0.995,0.1l-0.979,9.79
		C11.593,15.463,11,16,10.285,16z"/>
    <path fill="#515254" d="M8.969,2.014c-0.276,0-0.5-0.225-0.5-0.5C8.469,1.23,8.239,1,7.956,1H5.747C5.464,1,5.233,1.23,5.233,1.514
		c0,0.275-0.224,0.5-0.5,0.5c-0.276,0-0.5-0.225-0.5-0.5C4.233,0.679,4.912,0,5.747,0h2.208C8.79,0,9.469,0.679,9.469,1.514
		C9.469,1.789,9.245,2.014,8.969,2.014z"/>
  </g>
</svg>
