<?xml version="1.0" encoding="utf-8"?>
<!-- Generator: Adobe Illustrator 16.0.0, SVG Export Plug-In . SVG Version: 6.00 Build 0)  -->
<!DOCTYPE svg PUBLIC "-//W3C//DTD SVG 1.1//EN" "http://www.w3.org/Graphics/SVG/1.1/DTD/svg11.dtd">
<svg version="1.1" xmlns="http://www.w3.org/2000/svg" xmlns:xlink="http://www.w3.org/1999/xlink" x="0px" y="0px"
	 width="218.806" height="128" viewBox="0 0 218.806 128" enable-background="new 0 0 218.806 128" class="iconic iconic-action" xml:space="preserve">
<g class="iconic-container iconic-lg" data-width="74.105" data-height="128" display="inline">
	<path fill="#3399FF" d="M218.806,128H0V0h218.806V128z M5.763,122.237h207.281V5.763H5.763V122.237z"/>
	<path fill="#3399FF" d="M104.267,49.652l21.91,12.648c1.306,0.756,1.306,2.64,0,3.392l-21.91,12.652
		c-1.306,0.754-2.939-0.19-2.939-1.698V51.349C101.328,49.839,102.961,48.897,104.267,49.652"/>
	<path fill="#3399FF" d="M103.291,81.491c-2.67,0-4.844-2.172-4.844-4.844V51.349c0-2.672,2.172-4.844,4.843-4.844
		c0.845,0,1.683,0.225,2.421,0.652l21.907,12.647c1.518,0.879,2.421,2.447,2.42,4.197c-0.001,1.749-0.906,3.314-2.421,4.187
		l-21.908,12.652C104.971,81.266,104.135,81.491,103.291,81.491z M104.209,52.946v22.105l19.143-11.054L104.209,52.946z"/>
	<path fill="#3399FF" d="M109.401,100.055c-19.881,0-36.056-16.175-36.056-36.056c0-19.882,16.175-36.058,36.056-36.058
		c19.882,0,36.058,16.175,36.058,36.058C145.458,83.879,129.283,100.055,109.401,100.055z M109.401,33.704
		c-16.704,0-30.293,13.591-30.293,30.295s13.589,30.293,30.293,30.293s30.295-13.589,30.295-30.293S126.105,33.704,109.401,33.704z"
		/>
</g>
<g class="iconic-container iconic-md" data-width="54.702" data-height="32" display="none" transform="scale(4)">
	<path fill="#3399FF" d="M54.702,32H0V0h54.702V32z M1.441,30.559h51.82V1.441H1.441V30.559z"/>
	<path fill="#3399FF" d="M26.067,12.413l5.478,3.162c0.326,0.189,0.326,0.66,0,0.848l-5.478,3.163
		c-0.327,0.188-0.735-0.048-0.735-0.425v-6.324C25.332,12.46,25.74,12.224,26.067,12.413"/>
	<path fill="#3399FF" d="M25.823,20.373c-0.667,0-1.211-0.543-1.211-1.211v-6.324c0-0.668,0.543-1.211,1.21-1.211
		c0.211,0,0.421,0.056,0.605,0.163l5.477,3.162c0.38,0.22,0.605,0.612,0.605,1.049c0,0.437-0.227,0.829-0.605,1.047l-5.477,3.163
		C26.243,20.316,26.034,20.373,25.823,20.373z M26.052,13.236v5.526L30.838,16L26.052,13.236z"/>
	<path fill="#3399FF" d="M27.35,25.014c-4.97,0-9.014-4.044-9.014-9.014c0-4.971,4.043-9.014,9.014-9.014
		c4.971,0,9.015,4.043,9.015,9.014C36.365,20.97,32.321,25.014,27.35,25.014z M27.35,8.426c-4.176,0-7.573,3.398-7.573,7.574
		c0,4.176,3.397,7.573,7.573,7.573c4.176,0,7.574-3.397,7.574-7.573C34.924,11.824,31.526,8.426,27.35,8.426z"/>
</g>
<g class="iconic-container iconic-sm" data-width="27.351" data-height="16" display="none" transform="scale(8)">
	<path fill="#3399FF" d="M27.351,16H0V0h27.351V16z M0.721,15.279h25.91V0.721H0.721V15.279z"/>
	<path fill="#3399FF" d="M13.034,6.207l2.739,1.581c0.163,0.094,0.163,0.33,0,0.424l-2.739,1.581
		c-0.164,0.095-0.368-0.023-0.368-0.212V6.419C12.666,6.23,12.87,6.112,13.034,6.207"/>
	<path fill="#3399FF" d="M12.912,10.187c-0.334,0-0.605-0.271-0.605-0.605V6.419c0-0.334,0.271-0.605,0.605-0.605
		c0.106,0,0.21,0.028,0.303,0.081l2.738,1.581c0.19,0.11,0.303,0.306,0.303,0.524s-0.113,0.415-0.303,0.523l-2.738,1.582
		C13.122,10.158,13.017,10.187,12.912,10.187z M13.026,6.618v2.763L15.419,8L13.026,6.618z"/>
	<path fill="#3399FF" d="M13.675,12.507c-2.485,0-4.507-2.022-4.507-4.507c0-2.485,2.021-4.507,4.507-4.507S18.183,5.515,18.183,8
		C18.183,10.485,16.161,12.507,13.675,12.507z M13.675,4.213c-2.088,0-3.787,1.699-3.787,3.787s1.699,3.786,3.787,3.786
		S17.462,10.088,17.462,8S15.763,4.213,13.675,4.213z"/>
</g>
</svg>
