<?xml version="1.0" encoding="utf-8"?>
<!-- Generator: Adobe Illustrator 16.0.0, SVG Export Plug-In . SVG Version: 6.00 Build 0)  -->
<!DOCTYPE svg PUBLIC "-//W3C//DTD SVG 1.1//EN" "http://www.w3.org/Graphics/SVG/1.1/DTD/svg11.dtd">
<svg version="1.1" id="Layer_1" xmlns="http://www.w3.org/2000/svg" xmlns:xlink="http://www.w3.org/1999/xlink" x="0px" y="0px"
	 width="109.625px" height="128px" viewBox="0 0 109.625 128" enable-background="new 0 0 109.625 128" xml:space="preserve">
<g>
	<path fill="#515254" d="M94.148,43.299H15.477C6.943,43.299,0,36.355,0,27.822s6.943-15.475,15.477-15.475h78.672
		c8.533,0,15.477,6.941,15.477,15.475S102.682,43.299,94.148,43.299z M15.477,20.348C11.354,20.348,8,23.701,8,27.822
		c0,4.123,3.354,7.477,7.477,7.477h78.672c4.123,0,7.477-3.354,7.477-7.477c0-4.121-3.354-7.475-7.477-7.475H15.477z"/>
	<path fill="#515254" d="M82.281,128H27.346c-5.721,0-10.467-4.293-11.037-9.984L8.48,39.697l7.961-0.797l7.828,78.318
		c0.158,1.586,1.48,2.781,3.076,2.781h54.936c1.592,0,2.912-1.195,3.07-2.781L93.18,38.9l7.961,0.797l-7.828,78.318
		C92.742,123.707,88,128,82.281,128z"/>
	<path fill="#515254" d="M71.754,16.107c-2.209,0-4-1.791-4-4C67.754,9.842,65.91,8,63.645,8H45.979
		c-2.268,0-4.113,1.842-4.113,4.107c0,2.209-1.791,4-4,4s-4-1.791-4-4C33.865,5.432,39.299,0,45.979,0h17.666
		c6.678,0,12.109,5.432,12.109,12.107C75.754,14.316,73.963,16.107,71.754,16.107z"/>
</g>
</svg>
