<?xml version="1.0" encoding="utf-8"?>
<!-- Generator: Adobe Illustrator 16.0.0, SVG Export Plug-In . SVG Version: 6.00 Build 0)  -->
<!DOCTYPE svg PUBLIC "-//W3C//DTD SVG 1.1//EN" "http://www.w3.org/Graphics/SVG/1.1/DTD/svg11.dtd">
<svg version="1.1" id="Layer_1" xmlns="http://www.w3.org/2000/svg" xmlns:xlink="http://www.w3.org/1999/xlink" x="0px" y="0px"
	 width="27.406px" height="32px" viewBox="0 0 27.406 32" enable-background="new 0 0 27.406 32" xml:space="preserve">
<g>
	<path fill="#515254" d="M23.537,10.824H3.869C1.736,10.824,0,9.089,0,6.955c0-2.133,1.736-3.868,3.869-3.868h19.668
		c2.133,0,3.869,1.735,3.869,3.868C27.406,9.089,25.67,10.824,23.537,10.824z M3.869,5.087C2.838,5.087,2,5.926,2,6.955
		c0,1.031,0.838,1.869,1.869,1.869h19.668c1.031,0,1.869-0.838,1.869-1.869c0-1.029-0.838-1.868-1.869-1.868H3.869z"/>
	<path fill="#515254" d="M20.57,32H6.836c-1.43,0-2.617-1.073-2.759-2.496L2.12,9.924l1.99-0.199l1.957,19.58
		C6.107,29.701,6.438,30,6.836,30H20.57c0.398,0,0.728-0.299,0.768-0.695l1.957-19.58l1.99,0.199l-1.957,19.58
		C23.186,30.927,22,32,20.57,32z"/>
	<path fill="#515254" d="M17.938,4.027c-0.552,0-1-0.448-1-1C16.938,2.461,16.478,2,15.911,2h-4.417
		c-0.567,0-1.028,0.461-1.028,1.027c0,0.552-0.448,1-1,1s-1-0.448-1-1C8.466,1.357,9.825,0,11.495,0h4.417
		c1.669,0,3.027,1.357,3.027,3.027C18.938,3.579,18.491,4.027,17.938,4.027z"/>
</g>
</svg>
