<?xml version="1.0" encoding="utf-8"?>
<!-- Generator: Adobe Illustrator 16.0.0, SVG Export Plug-In . SVG Version: 6.00 Build 0)  -->
<!DOCTYPE svg PUBLIC "-//W3C//DTD SVG 1.1//EN" "http://www.w3.org/Graphics/SVG/1.1/DTD/svg11.dtd">
<svg version="1.1" id="Layer_1" xmlns="http://www.w3.org/2000/svg" xmlns:xlink="http://www.w3.org/1999/xlink" x="0px" y="0px"
	 width="13.703px" height="16px" viewBox="0 0 13.703 16" enable-background="new 0 0 13.703 16" xml:space="preserve">
<g>
	<path fill="#515254" d="M11.769,5.412H1.935C0.868,5.412,0,4.545,0,3.478c0-1.066,0.868-1.935,1.935-1.935h9.834
		c1.066,0,1.935,0.868,1.935,1.935C13.703,4.545,12.835,5.412,11.769,5.412z M1.935,2.543C1.419,2.543,1,2.963,1,3.478
		c0,0.516,0.419,0.935,0.935,0.935h9.834c0.516,0,0.935-0.419,0.935-0.935c0-0.515-0.419-0.935-0.935-0.935H1.935z"/>
	<path fill="#515254" d="M10.285,16H3.418c-0.715,0-1.308-0.537-1.379-1.248L1.06,4.962l0.995-0.1l0.979,9.79
		C3.054,14.851,3.219,15,3.418,15h6.867c0.199,0,0.364-0.149,0.384-0.348l0.979-9.79l0.995,0.1l-0.979,9.79
		C11.593,15.463,11,16,10.285,16z"/>
	<path fill="#515254" d="M8.969,2.014c-0.276,0-0.5-0.225-0.5-0.5C8.469,1.23,8.239,1,7.956,1H5.747C5.464,1,5.233,1.23,5.233,1.514
		c0,0.275-0.224,0.5-0.5,0.5c-0.276,0-0.5-0.225-0.5-0.5C4.233,0.679,4.912,0,5.747,0h2.208C8.79,0,9.469,0.679,9.469,1.514
		C9.469,1.789,9.245,2.014,8.969,2.014z"/>
</g>
</svg>
