<?xml version="1.0" encoding="utf-8"?>
<!-- Generator: Adobe Illustrator 16.0.0, SVG Export Plug-In . SVG Version: 6.00 Build 0)  -->
<!DOCTYPE svg PUBLIC "-//W3C//DTD SVG 1.1//EN" "http://www.w3.org/Graphics/SVG/1.1/DTD/svg11.dtd">
<svg version="1.1" id="Layer_1" xmlns="http://www.w3.org/2000/svg" xmlns:xlink="http://www.w3.org/1999/xlink" x="0px" y="0px"
	 width="127.998px" height="128px" viewBox="0 0 127.998 128" enable-background="new 0 0 127.998 128" xml:space="preserve">
<g>
	<path fill="#515254" d="M63.999,128C28.71,128,0,99.289,0,63.999C0,28.71,28.71,0,63.999,0s63.999,28.71,63.999,63.999
		C127.998,99.289,99.288,128,63.999,128z M63.999,8C33.121,8,8,33.12,8,63.999C8,94.877,33.121,120,63.999,120
		s55.999-25.123,55.999-56.001C119.998,33.12,94.877,8,63.999,8z"/>
	<path fill="#515254" d="M91.002,67.624H63.999c-2.209,0-4-1.791-4-4V22.56c0-2.209,1.791-4,4-4s4,1.791,4,4v37.064h23.003
		c2.209,0,4,1.791,4,4C95.002,65.833,93.211,67.624,91.002,67.624z"/>
</g>
</svg>
