<?xml version="1.0" encoding="utf-8"?>
<!-- Generator: Adobe Illustrator 16.0.0, SVG Export Plug-In . SVG Version: 6.00 Build 0)  -->
<!DOCTYPE svg PUBLIC "-//W3C//DTD SVG 1.1//EN" "http://www.w3.org/Graphics/SVG/1.1/DTD/svg11.dtd">
<svg version="1.1" id="Layer_1" xmlns="http://www.w3.org/2000/svg" xmlns:xlink="http://www.w3.org/1999/xlink" x="0px" y="0px"
	 width="16px" height="16px" viewBox="0 0 16 16" enable-background="new 0 0 16 16" xml:space="preserve">
<g>
	<path fill="#F7941E" d="M8,16c-4.411,0-8-3.589-8-8s3.589-8,8-8s8,3.589,8,8S12.411,16,8,16z M8,1C4.14,1,1,4.14,1,8s3.14,7,7,7
		s7-3.14,7-7S11.86,1,8,1z"/>
	<path fill="#F7941E" d="M11.375,8.453H8c-0.276,0-0.5-0.224-0.5-0.5V2.82c0-0.276,0.224-0.5,0.5-0.5s0.5,0.224,0.5,0.5v4.633h2.875
		c0.276,0,0.5,0.224,0.5,0.5S11.651,8.453,11.375,8.453z"/>
</g>
</svg>
