<?xml version="1.0" encoding="utf-8"?>
<!-- Generator: Adobe Illustrator 16.0.0, SVG Export Plug-In . SVG Version: 6.00 Build 0)  -->
<!DOCTYPE svg PUBLIC "-//W3C//DTD SVG 1.1//EN" "http://www.w3.org/Graphics/SVG/1.1/DTD/svg11.dtd">
<svg version="1.1" id="Layer_1" xmlns="http://www.w3.org/2000/svg" xmlns:xlink="http://www.w3.org/1999/xlink" x="0px" y="0px"
	 width="32px" height="32px" viewBox="0 0 32 32" enable-background="new 0 0 32 32" xml:space="preserve">
<g>
	<path fill="#F7941E" d="M16,32C7.178,32,0,24.822,0,16S7.178,0,16,0s16,7.178,16,16S24.822,32,16,32z M16,2C8.28,2,2,8.28,2,16
		s6.28,14,14,14s14-6.28,14-14S23.72,2,16,2z"/>
	<path fill="#F7941E" d="M22.751,16.906H16c-0.552,0-1-0.448-1-1V5.64c0-0.552,0.448-1,1-1s1,0.448,1,1v9.266h5.751
		c0.552,0,1,0.448,1,1S23.303,16.906,22.751,16.906z"/>
</g>
</svg>
