<?xml version="1.0" encoding="utf-8"?>
<!-- Generator: Adobe Illustrator 16.0.0, SVG Export Plug-In . SVG Version: 6.00 Build 0)  -->
<!DOCTYPE svg PUBLIC "-//W3C//DTD SVG 1.1//EN" "http://www.w3.org/Graphics/SVG/1.1/DTD/svg11.dtd">
<svg version="1.1" id="Layer_1" xmlns="http://www.w3.org/2000/svg" xmlns:xlink="http://www.w3.org/1999/xlink" x="0px" y="0px"
	 width="128px" height="128px" viewBox="0 0 128 128" enable-background="new 0 0 128 128" xml:space="preserve">
<g>
	<path fill="#F7941E" d="M64,128C28.711,128,0,99.289,0,64S28.711,0,64,0s64,28.711,64,64S99.289,128,64,128z M64,8
		C33.121,8,8,33.121,8,64s25.121,56,56,56s56-25.121,56-56S94.879,8,64,8z"/>
	<path fill="#F7941E" d="M91.004,67.625H64c-2.209,0-4-1.791-4-4V22.561c0-2.209,1.791-4,4-4s4,1.791,4,4v37.064h23.004
		c2.209,0,4,1.791,4,4S93.213,67.625,91.004,67.625z"/>
</g>
</svg>
