<?xml version="1.0" encoding="utf-8"?>
<!-- Generator: Adobe Illustrator 16.0.0, SVG Export Plug-In . SVG Version: 6.00 Build 0)  -->
<!DOCTYPE svg PUBLIC "-//W3C//DTD SVG 1.1//EN" "http://www.w3.org/Graphics/SVG/1.1/DTD/svg11.dtd">
<svg version="1.1" id="Layer_1" xmlns="http://www.w3.org/2000/svg" xmlns:xlink="http://www.w3.org/1999/xlink" x="0px" y="0px"
	 width="110.151px" height="128px" viewBox="0 0 110.151 128" enable-background="new 0 0 110.151 128" xml:space="preserve">
<g>
	<g>
		<defs>
			<polygon id="SVGID_10_" points="110.151,22.388 40.106,105.717 13.874,83.666 83.919,0.338 96.053,0 108.397,10.381 			"/>
		</defs>
		<clipPath id="SVGID_2_">
			<use xlink:href="#SVGID_10_"  overflow="visible"/>
		</clipPath>
		
			<linearGradient id="SVGID_3_" gradientUnits="userSpaceOnUse" x1="287.0688" y1="587.5967" x2="290.7776" y2="587.5967" gradientTransform="matrix(9.0935 7.6439 7.6439 -9.0935 -7056.9355 3187.6284)">
			<stop  offset="0" style="stop-color:#F38020"/>
			<stop  offset="1" style="stop-color:#FFCA0A"/>
		</linearGradient>
		<polygon clip-path="url(#SVGID_2_)" fill="url(#SVGID_3_)" points="53.736,-47.422 162.223,43.771 70.29,153.138 -38.198,61.945 
					"/>
	</g>
	<g>
		<defs>
			<polygon id="SVGID_13_" points="108.397,10.381 33.166,99.879 20.82,89.503 96.053,0 			"/>
		</defs>
		<clipPath id="SVGID_5_">
			<use xlink:href="#SVGID_13_"  overflow="visible"/>
		</clipPath>
		
			<linearGradient id="SVGID_6_" gradientUnits="userSpaceOnUse" x1="318.6836" y1="601.1494" x2="322.3927" y2="601.1494" gradientTransform="matrix(-19.1325 -0.0167 -0.0167 19.1325 6207.4004 -11446.2041)">
			<stop  offset="0" style="stop-color:#FFCA0A"/>
			<stop  offset="1" style="stop-color:#FFCA0A"/>
		</linearGradient>
		<polygon clip-path="url(#SVGID_5_)" fill="url(#SVGID_6_)" points="108.397,99.955 20.733,99.879 20.82,-0.076 108.485,0 		"/>
	</g>
	<g>
		<defs>
			<path id="SVGID_16_" d="M0,128l17.626-9.787c-1.193-2.146-2.769-4.063-4.65-5.645c-2.042-1.716-4.409-3.007-6.953-3.808L0,128z"
				/>
		</defs>
		<clipPath id="SVGID_8_">
			<use xlink:href="#SVGID_16_"  overflow="visible"/>
		</clipPath>
		
			<linearGradient id="SVGID_9_" gradientUnits="userSpaceOnUse" x1="358.1255" y1="663.8516" x2="361.8334" y2="663.8516" gradientTransform="matrix(-2.7965 -2.5264 -2.5264 2.7965 2692.6133 -828.6807)">
			<stop  offset="0" style="stop-color:#000000"/>
			<stop  offset="1" style="stop-color:#000000"/>
		</linearGradient>
		<polygon clip-path="url(#SVGID_8_)" fill="url(#SVGID_9_)" points="9.706,136.768 -9.57,119.355 7.922,99.993 27.197,117.407 		
			"/>
	</g>
</g>
</svg>
