<?xml version="1.0" encoding="utf-8"?>
<!-- Generator: Adobe Illustrator 16.0.0, SVG Export Plug-In . SVG Version: 6.00 Build 0)  -->
<!DOCTYPE svg PUBLIC "-//W3C//DTD SVG 1.1//EN" "http://www.w3.org/Graphics/SVG/1.1/DTD/svg11.dtd">
<svg version="1.1" id="Layer_1" xmlns="http://www.w3.org/2000/svg" xmlns:xlink="http://www.w3.org/1999/xlink" x="0px" y="0px"
	 width="27.538px" height="32px" viewBox="0 0 27.538 32" enable-background="new 0 0 27.538 32" xml:space="preserve">
<g>
	<g>
		<defs>
			<polygon id="SVGID_19_" points="27.538,5.597 10.027,26.429 3.469,20.917 20.98,0.084 24.013,0 27.099,2.595 			"/>
		</defs>
		<clipPath id="SVGID_2_">
			<use xlink:href="#SVGID_19_"  overflow="visible"/>
		</clipPath>
		
			<linearGradient id="SVGID_3_" gradientUnits="userSpaceOnUse" x1="257.209" y1="344.0254" x2="258.1361" y2="344.0254" gradientTransform="matrix(9.0935 7.6439 7.6439 -9.0935 -4957.354 1171.969)">
			<stop  offset="0" style="stop-color:#F38020"/>
			<stop  offset="1" style="stop-color:#FFCA0A"/>
		</linearGradient>
		<polygon clip-path="url(#SVGID_2_)" fill="url(#SVGID_3_)" points="13.434,-11.855 40.556,10.943 17.573,38.285 -9.549,15.486 		
			"/>
	</g>
	<g>
		<defs>
			
				<rect id="SVGID_22_" x="1.538" y="10.47" transform="matrix(0.6435 -0.7655 0.7655 0.6435 -3.7986 16.8159)" width="29.229" height="4.032"/>
		</defs>
		<clipPath id="SVGID_5_">
			<use xlink:href="#SVGID_22_"  overflow="visible"/>
		</clipPath>
		
			<linearGradient id="SVGID_6_" gradientUnits="userSpaceOnUse" x1="279.1597" y1="380.2715" x2="280.0869" y2="380.2715" gradientTransform="matrix(-19.1325 -0.0167 -0.0167 19.1325 5372.395 -7258.3828)">
			<stop  offset="0" style="stop-color:#FFCA0A"/>
			<stop  offset="1" style="stop-color:#FFCA0A"/>
		</linearGradient>
		<polygon clip-path="url(#SVGID_5_)" fill="url(#SVGID_6_)" points="27.099,24.989 5.183,24.97 5.205,-0.019 27.122,0 		"/>
	</g>
	<g>
		<defs>
			<path id="SVGID_25_" d="M0,32l4.407-2.447c-0.298-0.537-0.692-1.016-1.163-1.411c-0.511-0.429-1.103-0.752-1.738-0.952L0,32z"/>
		</defs>
		<clipPath id="SVGID_8_">
			<use xlink:href="#SVGID_25_"  overflow="visible"/>
		</clipPath>
		
			<linearGradient id="SVGID_9_" gradientUnits="userSpaceOnUse" x1="285.9355" y1="454.7773" x2="286.8625" y2="454.7773" gradientTransform="matrix(-2.7965 -2.5264 -2.5264 2.7965 1952.0564 -518.6382)">
			<stop  offset="0" style="stop-color:#000000"/>
			<stop  offset="1" style="stop-color:#000000"/>
		</linearGradient>
		<polygon clip-path="url(#SVGID_8_)" fill="url(#SVGID_9_)" points="2.426,34.192 -2.392,29.839 1.98,24.998 6.799,29.352 		"/>
	</g>
</g>
</svg>
