<?xml version="1.0" encoding="utf-8"?>
<!-- Generator: Adobe Illustrator 16.0.0, SVG Export Plug-In . SVG Version: 6.00 Build 0)  -->
<!DOCTYPE svg PUBLIC "-//W3C//DTD SVG 1.1//EN" "http://www.w3.org/Graphics/SVG/1.1/DTD/svg11.dtd">
<svg version="1.1" id="Layer_1" xmlns="http://www.w3.org/2000/svg" xmlns:xlink="http://www.w3.org/1999/xlink" x="0px" y="0px"
	 width="16px" height="16px" viewBox="0 0 16 16" enable-background="new 0 0 16 16" xml:space="preserve">
<g>
	<path fill="#F89939" d="M0.783,16C0.351,16,0,15.647,0,15.214V1.926C0,0.864,0.853,0,1.901,0h12.197C15.146,0,16,0.864,16,1.926
		v8.398c0,1.063-0.854,1.927-1.902,1.927H4.576c-0.052,0-0.102,0.021-0.14,0.06L1.351,15.75C1.187,15.917,0.991,16,0.783,16z
		 M1.901,1C1.404,1,1,1.415,1,1.926v12.719l2.708-3.019c0.244-0.248,0.546-0.375,0.868-0.375h9.522c0.497,0,0.902-0.416,0.902-0.927
		V1.926C15,1.415,14.595,1,14.098,1H1.901z"/>
	<path fill="#F89939" d="M5.188,6.124c0,0.518-0.42,0.938-0.938,0.938s-0.938-0.42-0.938-0.938c0-0.519,0.42-0.938,0.938-0.938
		S5.188,5.605,5.188,6.124"/>
	<path fill="#F89939" d="M8.938,6.124c0,0.518-0.419,0.937-0.937,0.937c-0.517,0-0.937-0.419-0.937-0.937s0.42-0.938,0.937-0.938
		C8.519,5.187,8.938,5.606,8.938,6.124"/>
	<path fill="#F89939" d="M12.688,6.124c0,0.518-0.419,0.937-0.937,0.937s-0.937-0.419-0.937-0.937s0.419-0.938,0.937-0.938
		S12.688,5.606,12.688,6.124"/>
</g>
</svg>
