<?xml version="1.0" encoding="utf-8"?>
<!-- Generator: Adobe Illustrator 16.0.0, SVG Export Plug-In . SVG Version: 6.00 Build 0)  -->
<!DOCTYPE svg PUBLIC "-//W3C//DTD SVG 1.1//EN" "http://www.w3.org/Graphics/SVG/1.1/DTD/svg11.dtd">
<svg version="1.1" id="Layer_1" xmlns="http://www.w3.org/2000/svg" xmlns:xlink="http://www.w3.org/1999/xlink" x="0px" y="0px"
	 width="32px" height="32px" viewBox="0 0 32 32" enable-background="new 0 0 32 32" xml:space="preserve">
<g>
	<path fill="#F89939" d="M1.565,32C0.702,32,0,31.295,0,30.428V3.853C0,1.729,1.706,0,3.803,0h24.394C30.293,0,32,1.729,32,3.853
		v16.796c0,2.125-1.707,3.853-3.804,3.853H9.151c-0.104,0-0.203,0.043-0.28,0.121L2.702,31.5C2.374,31.834,1.982,32,1.565,32z
		 M3.803,2C2.809,2,2,2.831,2,3.853v25.436l5.416-6.037c0.487-0.496,1.093-0.75,1.735-0.75h19.045c0.994,0,1.804-0.831,1.804-1.853
		V3.853C30,2.831,29.19,2,28.196,2H3.803z"/>
	<path fill="#F89939" d="M10.376,12.249c0,1.036-0.84,1.876-1.876,1.876s-1.876-0.84-1.876-1.876s0.84-1.876,1.876-1.876
		S10.376,11.212,10.376,12.249"/>
	<path fill="#F89939" d="M17.876,12.249c0,1.035-0.839,1.874-1.874,1.874c-1.034,0-1.874-0.839-1.874-1.874s0.84-1.874,1.874-1.874
		C17.037,10.375,17.876,11.213,17.876,12.249"/>
	<path fill="#F89939" d="M25.377,12.249c0,1.035-0.839,1.874-1.874,1.874s-1.874-0.839-1.874-1.874s0.839-1.874,1.874-1.874
		S25.377,11.213,25.377,12.249"/>
</g>
</svg>
