<?xml version="1.0" encoding="utf-8"?>
<!-- Generator: Adobe Illustrator 16.0.0, SVG Export Plug-In . SVG Version: 6.00 Build 0)  -->
<!DOCTYPE svg PUBLIC "-//W3C//DTD SVG 1.1//EN" "http://www.w3.org/Graphics/SVG/1.1/DTD/svg11.dtd">
<svg version="1.1" id="Layer_1" xmlns="http://www.w3.org/2000/svg" xmlns:xlink="http://www.w3.org/1999/xlink" x="0px" y="0px"
	 width="127.998px" height="128px" viewBox="0 0 127.998 128" enable-background="new 0 0 127.998 128" xml:space="preserve">
<g>
	<path fill="#F89939" d="M6.262,128C2.809,128,0,125.18,0,121.711V15.412C0,6.914,6.824,0,15.211,0h97.572
		c8.389,0,15.215,6.914,15.215,15.412v67.186c0,8.498-6.826,15.41-15.215,15.41h-76.18c-0.414,0-0.811,0.172-1.119,0.482L10.809,126
		C9.496,127.338,7.928,128,6.262,128z M15.211,8C11.234,8,8,11.324,8,15.412v101.744l21.662-24.148c1.951-1.984,4.371-3,6.941-3
		h76.18c3.979,0,7.215-3.324,7.215-7.41V15.412c0-4.088-3.236-7.412-7.215-7.412H15.211z"/>
	<path fill="#F89939" d="M41.502,48.994c0,4.145-3.359,7.504-7.504,7.504s-7.504-3.359-7.504-7.504s3.359-7.504,7.504-7.504
		S41.502,44.85,41.502,48.994"/>
	<path fill="#F89939" d="M71.502,48.994c0,4.141-3.355,7.496-7.496,7.496c-4.137,0-7.496-3.355-7.496-7.496s3.359-7.496,7.496-7.496
		C68.146,41.498,71.502,44.854,71.502,48.994"/>
	<path fill="#F89939" d="M101.506,48.994c0,4.141-3.355,7.496-7.496,7.496s-7.496-3.355-7.496-7.496s3.355-7.496,7.496-7.496
		S101.506,44.854,101.506,48.994"/>
</g>
</svg>
