<?xml version="1.0" encoding="utf-8"?>
<!-- Generator: Adobe Illustrator 16.0.0, SVG Export Plug-In . SVG Version: 6.00 Build 0)  -->
<!DOCTYPE svg PUBLIC "-//W3C//DTD SVG 1.1//EN" "http://www.w3.org/Graphics/SVG/1.1/DTD/svg11.dtd">
<svg version="1.1" id="Layer_1" xmlns="http://www.w3.org/2000/svg" xmlns:xlink="http://www.w3.org/1999/xlink" x="0px" y="0px"
	 width="32px" height="32px" viewBox="0 0 32 32" enable-background="new 0 0 32 32" xml:space="preserve">
<g>
	<path fill="#FAA526" d="M16,22.627c-3.654,0-6.626-2.973-6.626-6.627S12.346,9.373,16,9.373c3.654,0,6.627,2.973,6.627,6.627
		S19.654,22.627,16,22.627z M16,11.373c-2.551,0-4.626,2.076-4.626,4.627s2.075,4.627,4.626,4.627c2.551,0,4.627-2.076,4.627-4.627
		S18.551,11.373,16,11.373z"/>
	<path fill="#FAA526" d="M17.874,32h-3.75c-0.858,0-1.556-0.698-1.556-1.556l-0.124-2.72c-0.77-0.232-1.513-0.54-2.223-0.92
		L8.178,28.67c-0.522,0.526-1.58,0.557-2.167-0.032L3.36,25.987c-0.293-0.292-0.457-0.683-0.457-1.099
		c0-0.417,0.162-0.809,0.458-1.103l1.833-2.009c-0.379-0.708-0.686-1.451-0.919-2.223L1.51,19.429c0,0-0.001,0-0.001,0
		C0.697,19.429,0,18.731,0,17.874v-3.75c0-0.858,0.698-1.556,1.556-1.556l2.72-0.124c0.232-0.77,0.541-1.513,0.92-2.221L3.33,8.179
		C3.066,7.918,2.905,7.527,2.905,7.111c0-0.416,0.163-0.806,0.457-1.1L6.013,3.36c0.588-0.588,1.612-0.588,2.2,0l2.011,1.835
		c0.708-0.379,1.452-0.687,2.222-0.92l0.125-2.765C12.57,0.698,13.268,0,14.125,0h3.751c0.858,0,1.556,0.698,1.556,1.556
		l0.123,2.721c0.771,0.233,1.515,0.541,2.222,0.92L23.82,3.33c0.522-0.526,1.58-0.557,2.168,0.032l2.651,2.651
		c0.294,0.293,0.456,0.684,0.456,1.1s-0.162,0.807-0.457,1.101l-1.835,2.01c0.379,0.708,0.687,1.452,0.92,2.222l2.765,0.125
		c0,0,0.001,0,0.001,0c0.813,0,1.509,0.698,1.509,1.555v3.75c0,0.858-0.698,1.556-1.556,1.556l-2.721,0.124
		c-0.232,0.77-0.541,1.513-0.92,2.222l1.867,2.042c0.263,0.262,0.425,0.653,0.425,1.069c0,0.416-0.163,0.807-0.457,1.1l-2.651,2.651
		c-0.586,0.587-1.613,0.588-2.2,0l-2.01-1.835c-0.708,0.379-1.451,0.687-2.223,0.92l-0.125,2.765C19.43,31.302,18.731,32,17.874,32z
		 M14.549,30h2.901l0.173-3.852l0.735-0.173c1.075-0.253,2.093-0.675,3.025-1.253l0.643-0.398l2.846,2.601l2.051-2.051l-2.601-2.844
		l0.397-0.643c0.579-0.936,1-1.954,1.253-3.026l0.173-0.735L30,17.451V14.55l-3.852-0.173l-0.173-0.735
		c-0.253-1.072-0.674-2.09-1.253-3.026l-0.397-0.643l2.6-2.846l-2.051-2.052l-2.846,2.602l-0.643-0.398
		c-0.932-0.578-1.95-0.999-3.025-1.253l-0.735-0.173L17.451,2H14.55l-0.173,3.851l-0.735,0.173
		c-1.074,0.253-2.092,0.675-3.026,1.253L9.972,7.675l-2.846-2.6L5.075,7.126l2.6,2.846l-0.397,0.643
		c-0.579,0.936-1.001,1.954-1.253,3.025l-0.173,0.735L2,14.549v2.901l3.851,0.173l0.173,0.735c0.254,1.077,0.675,2.094,1.252,3.025
		l0.398,0.643l-2.6,2.846l2.051,2.051l2.845-2.601l0.643,0.398c0.936,0.58,1.953,1.001,3.024,1.252l0.736,0.173L14.549,30z"/>
</g>
</svg>
