<?xml version="1.0" encoding="utf-8"?>
<!-- Generator: Adobe Illustrator 16.0.0, SVG Export Plug-In . SVG Version: 6.00 Build 0)  -->
<!DOCTYPE svg PUBLIC "-//W3C//DTD SVG 1.1//EN" "http://www.w3.org/Graphics/SVG/1.1/DTD/svg11.dtd">
<svg version="1.1" id="Layer_1" xmlns="http://www.w3.org/2000/svg" xmlns:xlink="http://www.w3.org/1999/xlink" x="0px" y="0px"
	 width="128px" height="128px" viewBox="0 0 128 128" enable-background="new 0 0 128 128" xml:space="preserve">
<g>
	<path fill="#515254" d="M63.998,90.508c-14.615,0-26.504-11.891-26.504-26.508s11.889-26.508,26.504-26.508
		c14.617,0,26.508,11.891,26.508,26.508S78.615,90.508,63.998,90.508z M63.998,45.492c-10.203,0-18.504,8.303-18.504,18.508
		s8.301,18.508,18.504,18.508c10.205,0,18.508-8.303,18.508-18.508S74.203,45.492,63.998,45.492z"/>
	<path fill="#515254" d="M71.496,128h-15c-3.432,0-6.225-2.793-6.225-6.225l-0.496-10.881c-3.08-0.928-6.053-2.16-8.891-3.682
		l-8.172,7.467c-2.09,2.102-6.314,2.227-8.666-0.125l-10.607-10.607c-1.174-1.166-1.826-2.73-1.826-4.396
		c-0.002-1.666,0.648-3.234,1.832-4.41l7.332-8.035c-1.514-2.826-2.742-5.801-3.676-8.891l-11.061-0.5c-0.002,0-0.004,0-0.006,0
		C2.787,77.715,0,74.926,0,71.496v-15c0-3.432,2.791-6.225,6.223-6.225l10.879-0.496c0.932-3.08,2.164-6.053,3.68-8.885
		l-7.463-8.174c-1.049-1.039-1.697-2.602-1.699-4.266c0-1.664,0.646-3.229,1.824-4.404l10.607-10.607
		c2.352-2.352,6.449-2.352,8.801,0l8.043,7.342c2.832-1.516,5.807-2.746,8.889-3.68l0.5-11.061C50.279,2.791,53.07,0,56.5,0h15.004
		c3.432,0,6.223,2.791,6.223,6.223l0.492,10.883c3.086,0.934,6.061,2.164,8.889,3.68l8.174-7.467
		c2.088-2.105,6.32-2.229,8.674,0.127l10.604,10.605c1.178,1.176,1.824,2.74,1.824,4.404c-0.002,1.662-0.65,3.225-1.826,4.4
		l-7.34,8.039c1.518,2.834,2.748,5.809,3.68,8.891l11.059,0.498c0.002,0,0.006,0,0.008,0c3.25,0,6.037,2.791,6.037,6.221v15
		c0,3.432-2.793,6.223-6.225,6.223l-10.883,0.496c-0.93,3.08-2.162,6.053-3.68,8.889l7.467,8.17c1.051,1.043,1.699,2.605,1.699,4.27
		s-0.648,3.229-1.826,4.404l-10.605,10.604c-2.346,2.348-6.451,2.352-8.801,0l-8.041-7.342c-2.832,1.518-5.805,2.748-8.891,3.68
		l-0.5,11.061C77.719,125.207,74.928,128,71.496,128z M58.195,120h11.604l0.693-15.406l2.941-0.691
		c4.299-1.014,8.371-2.699,12.102-5.012l2.572-1.594l11.385,10.402l8.205-8.203L97.295,88.119l1.59-2.57
		c2.316-3.746,4.002-7.818,5.014-12.107l0.691-2.941L120,69.803V58.199l-15.406-0.691l-0.691-2.943
		c-1.012-4.289-2.697-8.361-5.014-12.104l-1.59-2.572l10.4-11.383l-8.205-8.207L88.111,30.705l-2.572-1.594
		c-3.727-2.311-7.799-3.996-12.102-5.012l-2.941-0.693L69.803,8H58.199l-0.693,15.402l-2.941,0.693
		c-4.295,1.014-8.367,2.701-12.104,5.014l-2.572,1.59l-11.383-10.4l-8.207,8.205l10.4,11.383l-1.59,2.57
		c-2.314,3.738-4,7.811-5.014,12.1l-0.693,2.941L8,58.195v11.604l15.402,0.693l0.693,2.941c1.018,4.311,2.703,8.383,5.008,12.102
		l1.594,2.572L20.299,99.492l8.203,8.205l11.381-10.404l2.572,1.594c3.742,2.32,7.813,4.006,12.098,5.01l2.945,0.691L58.195,120z"/>
</g>
</svg>
