<?xml version="1.0" encoding="utf-8"?>
<!-- Generator: Adobe Illustrator 16.0.0, SVG Export Plug-In . SVG Version: 6.00 Build 0)  -->
<!DOCTYPE svg PUBLIC "-//W3C//DTD SVG 1.1//EN" "http://www.w3.org/Graphics/SVG/1.1/DTD/svg11.dtd">
<svg version="1.1" id="Layer_1" xmlns="http://www.w3.org/2000/svg" xmlns:xlink="http://www.w3.org/1999/xlink" x="0px" y="0px"
	 width="16px" height="16px" viewBox="0 0 16 16" enable-background="new 0 0 16 16" xml:space="preserve">
<g>
	<path fill="#515254" d="M8,11.313c-1.827,0-3.313-1.486-3.313-3.313S6.173,4.687,8,4.687c1.827,0,3.313,1.486,3.313,3.313
		S9.827,11.313,8,11.313z M8,5.687C6.724,5.687,5.687,6.725,5.687,8S6.724,10.313,8,10.313c1.276,0,2.313-1.038,2.313-2.313
		S9.275,5.687,8,5.687z"/>
	<path fill="#515254" d="M8.937,16H7.062c-0.429,0-0.778-0.349-0.778-0.778l-0.062-1.36c-0.385-0.116-0.757-0.27-1.111-0.46
		l-1.021,0.934c-0.262,0.263-0.79,0.278-1.083-0.016L1.68,12.993c-0.147-0.146-0.229-0.341-0.229-0.549s0.081-0.404,0.229-0.551
		l0.917-1.004c-0.189-0.353-0.343-0.725-0.459-1.111L0.755,9.714c0,0-0.001,0-0.001,0C0.348,9.714,0,9.366,0,8.937V7.062
		c0-0.429,0.349-0.778,0.778-0.778l1.36-0.063c0.117-0.385,0.271-0.756,0.46-1.11L1.665,4.09C1.534,3.96,1.453,3.765,1.453,3.557
		S1.533,3.153,1.68,3.006L3.006,1.68c0.294-0.294,0.806-0.294,1.1,0l1.005,0.918c0.354-0.189,0.726-0.343,1.111-0.46l0.063-1.383
		C6.285,0.349,6.634,0,7.063,0h1.875c0.429,0,0.778,0.349,0.778,0.778l0.062,1.36c0.386,0.117,0.757,0.271,1.111,0.46l1.022-0.933
		c0.261-0.264,0.79-0.279,1.084,0.016l1.325,1.326c0.147,0.147,0.228,0.342,0.228,0.55c0,0.208-0.082,0.403-0.228,0.55l-0.918,1.005
		c0.19,0.354,0.344,0.726,0.46,1.111l1.383,0.062c0,0,0,0,0.001,0C15.652,6.285,16,6.634,16,7.063v1.875
		c0,0.429-0.349,0.778-0.778,0.778l-1.36,0.062c-0.116,0.385-0.271,0.756-0.46,1.111l0.933,1.021
		c0.131,0.13,0.212,0.326,0.212,0.534s-0.081,0.404-0.229,0.55l-1.325,1.326c-0.293,0.293-0.807,0.294-1.101,0l-1.005-0.917
		c-0.354,0.189-0.726,0.343-1.111,0.46l-0.063,1.382C9.715,15.651,9.366,16,8.937,16z M7.274,15h1.451l0.086-1.926l0.368-0.086
		c0.537-0.126,1.046-0.337,1.513-0.626l0.321-0.199l1.423,1.3l1.026-1.025l-1.301-1.422l0.199-0.321
		c0.289-0.468,0.5-0.977,0.626-1.513l0.086-0.368L15,8.726V7.275l-1.926-0.086L12.988,6.82c-0.126-0.536-0.337-1.045-0.627-1.513
		l-0.198-0.321l1.3-1.423l-1.025-1.026l-1.423,1.301l-0.322-0.199C10.227,3.35,9.717,3.14,9.18,3.013L8.812,2.926L8.725,1h-1.45
		L7.188,2.925L6.821,3.012C6.284,3.139,5.775,3.35,5.308,3.639L4.986,3.837l-1.423-1.3L2.538,3.563l1.3,1.423L3.639,5.307
		c-0.29,0.467-0.5,0.976-0.626,1.512L2.925,7.188L1,7.274v1.45l1.925,0.087l0.087,0.368c0.127,0.539,0.338,1.048,0.626,1.513
		l0.199,0.322l-1.3,1.423l1.025,1.025l1.422-1.3l0.322,0.199c0.468,0.29,0.977,0.5,1.512,0.626l0.368,0.086L7.274,15z"/>
</g>
</svg>
