<?xml version="1.0" encoding="utf-8"?>
<!-- Generator: Adobe Illustrator 16.0.0, SVG Export Plug-In . SVG Version: 6.00 Build 0)  -->
<!DOCTYPE svg PUBLIC "-//W3C//DTD SVG 1.1//EN" "http://www.w3.org/Graphics/SVG/1.1/DTD/svg11.dtd">
<svg version="1.1" id="Layer_1" xmlns="http://www.w3.org/2000/svg" xmlns:xlink="http://www.w3.org/1999/xlink" x="0px" y="0px"
	 width="74.879px" height="128px" viewBox="0 0 74.879 128" enable-background="new 0 0 74.879 128" xml:space="preserve">
<g>
	<rect x="1.686" y="1.686" fill="#FFFFFF" width="71.508" height="124.628"/>
	<path fill="#3399FF" d="M74.879,128H0V0h74.879V128z M3.371,124.628h68.137V3.371H3.371V124.628z"/>
	<path fill="#3399FF" d="M36.119,48.656c-0.517-0.21-1.118-0.094-1.518,0.307l-8.417,8.465h-6.48c-0.767,0-1.391,0.624-1.391,1.397
		v10.049c0,0.767,0.624,1.39,1.391,1.39h6.454l8.449,8.467c0.267,0.271,0.622,0.411,0.984,0.411c0.177,0,0.361-0.034,0.533-0.106
		c0.522-0.217,0.861-0.723,0.861-1.284V49.946C36.981,49.38,36.642,48.872,36.119,48.656"/>
	<path fill="#3399FF" d="M50.611,63.812c0-5.22-3.101-9.918-7.904-11.976c-0.706-0.306-1.525,0.023-1.825,0.728
		c-0.304,0.706,0.024,1.529,0.73,1.829c3.779,1.618,6.214,5.317,6.214,9.419c0,4.081-2.43,7.766-6.186,9.389
		c-0.703,0.305-1.03,1.123-0.73,1.829c0.227,0.524,0.745,0.839,1.284,0.839c0.185,0,0.373-0.039,0.552-0.116
		C47.526,73.695,50.611,69.002,50.611,63.812"/>
	<g>
		<defs>
			<rect id="SVGID_3_" x="18.314" y="46.209" width="38.252" height="35.577"/>
		</defs>
		<clipPath id="SVGID_2_">
			<use xlink:href="#SVGID_3_"  overflow="visible"/>
		</clipPath>
		<path clip-path="url(#SVGID_2_)" fill="#3399FF" d="M44.453,63.806c0-2.753-1.641-5.232-4.18-6.311
			c-0.707-0.293-1.524,0.034-1.824,0.74c-0.306,0.713,0.028,1.528,0.732,1.829c1.508,0.634,2.479,2.107,2.479,3.743
			c0,1.616-0.96,3.083-2.443,3.73c-0.712,0.304-1.036,1.123-0.73,1.829c0.229,0.527,0.74,0.839,1.279,0.839
			c0.184,0,0.378-0.04,0.557-0.117C42.829,68.997,44.453,66.534,44.453,63.806"/>
		<path clip-path="url(#SVGID_2_)" fill="#3399FF" d="M45.076,46.327c-0.706-0.305-1.531,0.022-1.829,0.728
			c-0.305,0.706,0.021,1.524,0.727,1.829c5.981,2.563,9.852,8.423,9.852,14.927c0,6.481-3.854,12.331-9.816,14.897
			c-0.707,0.306-1.035,1.125-0.73,1.829c0.229,0.529,0.74,0.84,1.279,0.84c0.183,0,0.373-0.032,0.556-0.11
			c6.982-3.014,11.495-9.862,11.495-17.456C56.609,56.194,52.084,49.329,45.076,46.327"/>
	</g>
</g>
</svg>
