<?xml version="1.0" encoding="utf-8"?>
<!-- Generator: Adobe Illustrator 16.0.0, SVG Export Plug-In . SVG Version: 6.00 Build 0)  -->
<!DOCTYPE svg PUBLIC "-//W3C//DTD SVG 1.1//EN" "http://www.w3.org/Graphics/SVG/1.1/DTD/svg11.dtd">
<svg version="1.1" id="Layer_1" xmlns="http://www.w3.org/2000/svg" xmlns:xlink="http://www.w3.org/1999/xlink" x="0px" y="0px"
	 width="9.359px" height="16px" viewBox="0 0 9.359 16" enable-background="new 0 0 9.359 16" xml:space="preserve">
<g>
	<rect x="0.21" y="0.21" fill="#FFFFFF" width="8.938" height="15.579"/>
	<path fill="#3399FF" d="M9.359,16H0V0h9.359V16z M0.421,15.579h8.518V0.421H0.421V15.579z"/>
	<path fill="#3399FF" d="M4.515,6.082C4.45,6.056,4.375,6.07,4.325,6.121L3.273,7.178h-0.81c-0.096,0-0.174,0.078-0.174,0.175v1.256
		c0,0.096,0.078,0.174,0.174,0.174H3.27l1.056,1.058c0.033,0.034,0.078,0.052,0.123,0.052c0.022,0,0.045-0.004,0.067-0.014
		c0.065-0.027,0.107-0.09,0.107-0.16V6.243C4.622,6.172,4.58,6.109,4.515,6.082"/>
	<path fill="#3399FF" d="M6.326,7.977c0-0.653-0.388-1.24-0.988-1.497C5.25,6.441,5.147,6.482,5.11,6.57
		C5.072,6.659,5.113,6.762,5.201,6.799c0.473,0.202,0.777,0.664,0.777,1.177c0,0.51-0.304,0.971-0.773,1.173
		C5.117,9.188,5.076,9.291,5.114,9.378c0.028,0.065,0.093,0.105,0.161,0.105c0.022,0,0.046-0.004,0.068-0.014
		C5.94,9.212,6.326,8.625,6.326,7.977"/>
	<g>
		<defs>
			<rect id="SVGID_7_" x="2.289" y="5.776" width="4.781" height="4.447"/>
		</defs>
		<clipPath id="SVGID_2_">
			<use xlink:href="#SVGID_7_"  overflow="visible"/>
		</clipPath>
		<path clip-path="url(#SVGID_2_)" fill="#3399FF" d="M5.557,7.976c0-0.345-0.205-0.654-0.523-0.789
			C4.945,7.15,4.843,7.191,4.806,7.279C4.768,7.369,4.81,7.47,4.897,7.508c0.188,0.08,0.31,0.263,0.31,0.468
			c0,0.202-0.12,0.385-0.305,0.466C4.813,8.48,4.772,8.583,4.811,8.67c0.029,0.066,0.093,0.105,0.16,0.105
			c0.022,0,0.047-0.005,0.069-0.014C5.354,8.625,5.557,8.317,5.557,7.976"/>
		<path clip-path="url(#SVGID_2_)" fill="#3399FF" d="M5.634,5.791C5.546,5.752,5.443,5.793,5.405,5.882
			C5.367,5.97,5.408,6.072,5.497,6.11c0.748,0.321,1.231,1.053,1.231,1.866c0,0.811-0.482,1.542-1.227,1.862
			C5.413,9.877,5.372,9.979,5.41,10.067c0.029,0.066,0.092,0.105,0.16,0.105c0.023,0,0.047-0.004,0.07-0.014
			c0.873-0.377,1.437-1.233,1.437-2.183C7.076,7.024,6.51,6.166,5.634,5.791"/>
	</g>
</g>
</svg>
