<?xml version="1.0" encoding="utf-8"?>
<!-- Generator: Adobe Illustrator 16.0.0, SVG Export Plug-In . SVG Version: 6.00 Build 0)  -->
<!DOCTYPE svg PUBLIC "-//W3C//DTD SVG 1.1//EN" "http://www.w3.org/Graphics/SVG/1.1/DTD/svg11.dtd">
<svg version="1.1" id="Layer_1" xmlns="http://www.w3.org/2000/svg" xmlns:xlink="http://www.w3.org/1999/xlink" x="0px" y="0px"
	 width="18.72px" height="32px" viewBox="0 0 18.72 32" enable-background="new 0 0 18.72 32" xml:space="preserve">
<g>
	<rect x="0.421" y="0.421" fill="#FFFFFF" width="17.877" height="31.157"/>
	<path fill="#3399FF" d="M18.72,32H0V0h18.72V32z M0.843,31.157h17.034V0.843H0.843V31.157z"/>
	<path fill="#3399FF" d="M9.03,12.164c-0.129-0.053-0.279-0.023-0.379,0.077l-2.104,2.116h-1.62c-0.192,0-0.348,0.156-0.348,0.35
		v2.512c0,0.192,0.156,0.348,0.348,0.348H6.54l2.112,2.117c0.066,0.068,0.155,0.103,0.246,0.103c0.044,0,0.09-0.008,0.133-0.026
		c0.13-0.054,0.215-0.181,0.215-0.321v-6.952C9.245,12.345,9.161,12.218,9.03,12.164"/>
	<path fill="#3399FF" d="M12.653,15.953c0-1.305-0.775-2.479-1.976-2.994c-0.176-0.076-0.381,0.006-0.456,0.182
		c-0.076,0.177,0.006,0.383,0.182,0.458c0.945,0.404,1.554,1.329,1.554,2.355c0,1.02-0.607,1.941-1.546,2.347
		c-0.176,0.077-0.257,0.281-0.182,0.458c0.057,0.131,0.186,0.209,0.321,0.209c0.046,0,0.093-0.009,0.138-0.029
		C11.881,18.424,12.653,17.25,12.653,15.953"/>
	<g>
		<defs>
			<rect id="SVGID_5_" x="4.579" y="11.552" width="9.563" height="8.895"/>
		</defs>
		<clipPath id="SVGID_2_">
			<use xlink:href="#SVGID_5_"  overflow="visible"/>
		</clipPath>
		<path clip-path="url(#SVGID_2_)" fill="#3399FF" d="M11.113,15.952c0-0.688-0.41-1.308-1.045-1.578
			c-0.177-0.073-0.381,0.008-0.456,0.185c-0.077,0.178,0.007,0.382,0.183,0.457c0.377,0.159,0.62,0.527,0.62,0.936
			c0,0.404-0.24,0.771-0.611,0.932c-0.178,0.076-0.259,0.281-0.183,0.458c0.058,0.132,0.185,0.209,0.32,0.209
			c0.046,0,0.095-0.01,0.139-0.029C10.707,17.249,11.113,16.634,11.113,15.952"/>
		<path clip-path="url(#SVGID_2_)" fill="#3399FF" d="M11.269,11.582c-0.177-0.076-0.383,0.005-0.458,0.182
			c-0.076,0.177,0.005,0.381,0.182,0.457c1.495,0.641,2.463,2.106,2.463,3.732c0,1.621-0.964,3.083-2.454,3.725
			c-0.177,0.077-0.259,0.281-0.183,0.457c0.057,0.132,0.185,0.21,0.32,0.21c0.045,0,0.093-0.008,0.139-0.027
			c1.745-0.753,2.874-2.466,2.874-4.364C14.152,14.049,13.021,12.332,11.269,11.582"/>
	</g>
</g>
</svg>
