<?xml version="1.0" encoding="utf-8"?>
<!-- Generator: Adobe Illustrator 16.0.0, SVG Export Plug-In . SVG Version: 6.00 Build 0)  -->
<!DOCTYPE svg PUBLIC "-//W3C//DTD SVG 1.1//EN" "http://www.w3.org/Graphics/SVG/1.1/DTD/svg11.dtd">
<svg version="1.1" id="Layer_1" xmlns="http://www.w3.org/2000/svg" xmlns:xlink="http://www.w3.org/1999/xlink" x="0px" y="0px"
	 width="218.806px" height="128px" viewBox="0 0 218.806 128" enable-background="new 0 0 218.806 128" xml:space="preserve">
<g>
	<rect x="2.881" y="2.881" fill="#FFFFFF" width="213.043" height="122.237"/>
	<path fill="#3399FF" d="M218.806,128H0V0h218.806V128z M5.763,122.237h207.281V5.763H5.763V122.237z"/>
	<path fill="#3399FF" d="M104.267,49.652l21.91,12.648c1.306,0.756,1.306,2.64,0,3.392l-21.91,12.652
		c-1.306,0.754-2.939-0.19-2.939-1.698V51.349C101.328,49.839,102.961,48.897,104.267,49.652"/>
	<path fill="#3399FF" d="M103.291,81.491c-2.67,0-4.844-2.172-4.844-4.844V51.349c0-2.672,2.172-4.844,4.843-4.844
		c0.845,0,1.683,0.225,2.421,0.652l21.907,12.647c1.518,0.879,2.421,2.447,2.42,4.197c-0.001,1.749-0.906,3.314-2.421,4.187
		l-21.908,12.652C104.971,81.266,104.135,81.491,103.291,81.491z M104.209,52.946v22.105l19.143-11.054L104.209,52.946z"/>
	<path fill="#3399FF" d="M109.401,100.055c-19.881,0-36.056-16.175-36.056-36.056c0-19.882,16.175-36.058,36.056-36.058
		c19.882,0,36.058,16.175,36.058,36.058C145.458,83.879,129.283,100.055,109.401,100.055z M109.401,33.704
		c-16.704,0-30.293,13.591-30.293,30.295s13.589,30.293,30.293,30.293s30.295-13.589,30.295-30.293S126.105,33.704,109.401,33.704z"
		/>
</g>
</svg>
