<?xml version="1.0" encoding="utf-8"?>
<!-- Generator: Adobe Illustrator 16.0.0, SVG Export Plug-In . SVG Version: 6.00 Build 0)  -->
<!DOCTYPE svg PUBLIC "-//W3C//DTD SVG 1.1//EN" "http://www.w3.org/Graphics/SVG/1.1/DTD/svg11.dtd">
<svg version="1.1" id="Layer_1" xmlns="http://www.w3.org/2000/svg" xmlns:xlink="http://www.w3.org/1999/xlink" x="0px" y="0px"
	 width="27.351px" height="16px" viewBox="0 0 27.351 16" enable-background="new 0 0 27.351 16" xml:space="preserve">
<g>
	<rect x="0.36" y="0.36" fill="#FFFFFF" width="26.63" height="15.279"/>
	<path fill="#3399FF" d="M27.351,16H0V0h27.351V16z M0.721,15.279h25.91V0.721H0.721V15.279z"/>
	<path fill="#3399FF" d="M13.034,6.207l2.739,1.581c0.163,0.094,0.163,0.33,0,0.424l-2.739,1.581
		c-0.164,0.095-0.368-0.023-0.368-0.212V6.419C12.666,6.23,12.87,6.112,13.034,6.207"/>
	<path fill="#3399FF" d="M12.912,10.187c-0.334,0-0.605-0.271-0.605-0.605V6.419c0-0.334,0.271-0.605,0.605-0.605
		c0.106,0,0.21,0.028,0.303,0.081l2.738,1.581c0.19,0.11,0.303,0.306,0.303,0.524s-0.113,0.415-0.303,0.523l-2.738,1.582
		C13.122,10.158,13.017,10.187,12.912,10.187z M13.026,6.618v2.763L15.419,8L13.026,6.618z"/>
	<path fill="#3399FF" d="M13.675,12.507c-2.485,0-4.507-2.022-4.507-4.507c0-2.485,2.021-4.507,4.507-4.507S18.183,5.515,18.183,8
		C18.183,10.485,16.161,12.507,13.675,12.507z M13.675,4.213c-2.088,0-3.787,1.699-3.787,3.787s1.699,3.786,3.787,3.786
		S17.462,10.088,17.462,8S15.763,4.213,13.675,4.213z"/>
</g>
</svg>
