<?xml version="1.0" encoding="utf-8"?>
<!-- Generator: Adobe Illustrator 16.0.0, SVG Export Plug-In . SVG Version: 6.00 Build 0)  -->
<!DOCTYPE svg PUBLIC "-//W3C//DTD SVG 1.1//EN" "http://www.w3.org/Graphics/SVG/1.1/DTD/svg11.dtd">
<svg version="1.1" id="Layer_1" xmlns="http://www.w3.org/2000/svg" xmlns:xlink="http://www.w3.org/1999/xlink" x="0px" y="0px"
	 width="54.702px" height="32px" viewBox="0 0 54.702 32" enable-background="new 0 0 54.702 32" xml:space="preserve">
<g>
	<rect x="0.72" y="0.72" fill="#FFFFFF" width="53.261" height="30.56"/>
	<path fill="#3399FF" d="M54.702,32H0V0h54.702V32z M1.441,30.559h51.82V1.441H1.441V30.559z"/>
	<path fill="#3399FF" d="M26.067,12.413l5.478,3.162c0.326,0.189,0.326,0.66,0,0.848l-5.478,3.163
		c-0.327,0.188-0.735-0.048-0.735-0.425v-6.324C25.332,12.46,25.74,12.224,26.067,12.413"/>
	<path fill="#3399FF" d="M25.823,20.373c-0.667,0-1.211-0.543-1.211-1.211v-6.324c0-0.668,0.543-1.211,1.21-1.211
		c0.211,0,0.421,0.056,0.605,0.163l5.477,3.162c0.38,0.22,0.605,0.612,0.605,1.049c0,0.437-0.227,0.829-0.605,1.047l-5.477,3.163
		C26.243,20.316,26.034,20.373,25.823,20.373z M26.052,13.236v5.526L30.838,16L26.052,13.236z"/>
	<path fill="#3399FF" d="M27.35,25.014c-4.97,0-9.014-4.044-9.014-9.014c0-4.971,4.043-9.014,9.014-9.014
		c4.971,0,9.015,4.043,9.015,9.014C36.365,20.97,32.321,25.014,27.35,25.014z M27.35,8.426c-4.176,0-7.573,3.398-7.573,7.574
		c0,4.176,3.397,7.573,7.573,7.573c4.176,0,7.574-3.397,7.574-7.573C34.924,11.824,31.526,8.426,27.35,8.426z"/>
</g>
</svg>
